<?xml version="1.0" encoding="UTF-8" standalone="no"?>
<svg
   version="1.2"
   viewBox="0 0 68.250168 68"
   width="68.250168"
   height="68"
   id="svg1"
   sodipodi:docname="awe-branch.svg"
   inkscape:version="1.4.2 (ebf0e940d0, 2025-05-08)"
   xmlns:inkscape="http://www.inkscape.org/namespaces/inkscape"
   xmlns:sodipodi="http://sodipodi.sourceforge.net/DTD/sodipodi-0.dtd"
   xmlns="http://www.w3.org/2000/svg"
   xmlns:svg="http://www.w3.org/2000/svg"
   xmlns:rdf="http://www.w3.org/1999/02/22-rdf-syntax-ns#"
   xmlns:cc="http://creativecommons.org/ns#"
   xmlns:dc="http://purl.org/dc/elements/1.1/">
  <defs
     id="defs1" />
  <sodipodi:namedview
     id="namedview1"
     pagecolor="#ffffff"
     bordercolor="#000000"
     borderopacity="0.25"
     inkscape:showpageshadow="2"
     inkscape:pageopacity="0.0"
     inkscape:pagecheckerboard="0"
     inkscape:deskcolor="#d1d1d1"
     inkscape:zoom="6.4810127"
     inkscape:cx="34.176758"
     inkscape:cy="34.408203"
     inkscape:window-width="1916"
     inkscape:window-height="1021"
     inkscape:window-x="0"
     inkscape:window-y="0"
     inkscape:window-maximized="0"
     inkscape:current-layer="svg1" />
  <title
     id="title1">awe-branch</title>
  <style
     id="style1">
		.s0 { opacity: .64;fill: #00ecf5 } 
	</style>
  <path
     id="Path 0"
     fill-rule="evenodd"
     class="s0"
     d="m 12.55017,0 h 42.2 l 13.5,13.5 v 5.8 c 0,4.9 -0.4,6 -2.5,7.7 -2.5,2 -2.5,2.1 -2.5,18 0,13.6 0.2,16 1.5,16 1,0 1.5,1.1 1.5,7 H 3.2501705 v -3.5 c 0,-2.7 0.4,-3.5 1.6999998,-3.5 1.7,0 1.8,-1.2 1.1,-16.2 -0.5,-12.2 -1,-16.4 -1.9999998,-16.8 -0.7,-0.2 -1.9,-1 -2.6,-1.7 -0.60000001,-0.7 -1.30000001,-3.7 -1.40000001,-6.7 -0.2,-5.4 -0.1,-5.6 6.19999981,-12.5 z M 4.2501705,13 C 13.65017,13 14.45017,12.6 15.85017,10.2 c 1,-1.5 2.3,-3.7 3,-5 1.3,-2.2 1.3,-2.2 -2.4,-2.2 -3.2,0.1 -4.3,0.7 -7.9999997,5 z M 17.25017,13 h 10 c 1.7,-6.6 2.4,-8.8 2.6,-9.2 0.3,-0.4 -1.3,-0.8 -3.4,-0.8 -3.5,0 -3.9,0.4 -6.5,5 z m 12.5,-0.5 c 7,0.4 9.1,0.4 9.2,0.3 0.1,-0.2 -0.3,-2.3 -1.1,-4.8 -0.9,-3.2 -1.9,-4.6 -3.3,-4.8 -1.6,-0.2 -2.3,0.6 -3.4,4.5 z m 10.5,-4 1,4.5 c 7.8,0 10,-0.2 10,-0.5 0,-0.3 -1.1,-2.5 -2.5,-5 -2.2,-4 -2.8,-4.5 -6,-4.5 -1.9,0 -3.5,0.2 -3.5,0.5 0,0.3 0.5,2.5 1,5 z m 11.5,0 c 2.5,4.4 2.6,4.5 7.8,4.5 h 5.2 c -8.6,-8.6 -10.7,-10 -12.7,-10 -1.5,0 -2.8,0.2 -2.8,0.5 0,0.3 1.2,2.5 2.5,5 z M 2.2501705,19.8 c 0,2 0.6,4.3 1.3,5 0.7,0.7 2.4999998,1.2 3.9999998,1.2 1.5,0 3.3999997,-0.2 4.1999997,-0.5 1.1,-0.3 1.5,-1.9 1.5,-5 V 16 H 2.2501705 Z m 14.2999995,1 c 0.2,4.2 0.5,4.8 2.8,5.1 1.3,0.2 3.5,0 4.7,-0.3 1.9,-0.5 2.3,-1.2 2.3,-5 v -4.5 h -10.2 z m 12.9,-0.3 c 0,4.1 0.2,4.6 2.7,5.1 1.5,0.4 3.8,0.1 5,-0.5 1.8,-0.9 2.3,-1.9 2.3,-5.1 v -4 h -10 z m 13,-0.5 c 0,3.2 0.4,4.2 2.2,5.1 q 2.3,1.1 5.3,0.2 c 2.6,-0.9 3,-1.4 3,-5.1 l 0.1,-4.2 h -10.6 z m 12.9,-0.2 c 0,2 0.6,4.3 1.3,5 0.7,0.7 2.3,1.2 3.5,1.2 1.2,0 3.2,-0.4 4.3,-1 1.5,-0.7 2,-2 2,-5 v -4 h -11 z M 8.3501703,28.6 V 61.1 C 43.65017,61.1 44.35017,61 44.35017,59.1 c 0,-2 -0.8,-2.1 -16.8,-2.3 l -16.7,-0.2 -0.5,-22.5 47.5,0.5 c 0.4,21.2 0.9,26.5 1.5,26.5 0.6,0 1,-6.1 1,-16.3 V 28.6 c -5.5,-1.6 -7.7,-1.7 -8.7,-1.2 -1,0.5 -3.4,0.6 -5.3,0.3 -2,-0.4 -4.2,-0.7 -5,-0.7 -0.9,0 -3.3,0.3 -5.5,0.7 -2.3,0.3 -5.1,0.1 -6.4,-0.5 -1.3,-0.6 -2.5,-0.8 -2.6,-0.4 -0.2,0.4 -1.8,1.1 -3.7,1.5 -2.1,0.5 -4.3,0.3 -5.8,-0.5 -1.8,-0.9 -3.4,-1 -5.8,-0.2 z M 13.35017,45.1 c 0,7.3 0.3,9 1.5,9 0.9,0 1.5,-0.6 1.5,-1.3 0,-0.7 2,-2.9 4.5,-5 q 0.9,-0.7 1.7,-1.3 c -0.3,0.4 -0.1,0.6 0.6,0.6 -0.5,0.4 -0.8,0.8 -0.8,1.2 0,0.7 -1,2.3 -2.2,3.5 l -2.3,2.3 h 26.5 v -18 h -31 z m 9.2,1.4 q 0.2,-0.3 0.7,-0.9 c 0.7,-0.8 1.7,-1.3 2.2,-1 0.5,0.2 0.7,0.9 0.4,1.5 -0.2,0.5 -1.3,1 -2.2,1 q -0.3,0 -0.5,0 0.6,-0.4 1.2,-0.5 c 1.1,-0.3 1.8,-1 1.5,-1.5 -0.2,-0.5 -1.6,0.2 -3.3,1.4 z m 23.8,14.6 h 9 v -25 h -9 z m -12,4.7 c 18.5,-0.2 29,-0.6 29,-1.2 0,-0.7 -10.5,-1.1 -29,-1.3 C 9.0501703,63.1 5.4501703,63.2 5.3501703,64.5 c 0,1.4 3.7,1.5 28.9999997,1.3 z m -9,-26.7 c 0.9,0 -0.3,1.8 -3.2,4.7 -2.7,2.6 -5.1,4.4 -5.5,4 -0.4,-0.3 1,-2.5 3.2,-4.7 2.2,-2.2 4.6,-4 5.5,-4 z m 3.5,1 c 0.8,0 1.6,0.3 1.6,0.7 0,0.4 -0.7,1.4 -1.5,2.3 -0.9,0.8 -1.9,1.1 -2.3,0.7 -0.4,-0.4 -0.4,-1.4 0,-2.2 0.4,-0.9 1.4,-1.5 2.2,-1.5 z m 20.6,8.1 c 0.5,0.2 1,0.8 1.2,1.3 0.1,0.5 -0.3,1 -1,1.2 -0.7,0.2 -1.2,-0.4 -1.2,-1.2 0.1,-0.9 0.6,-1.5 1,-1.3 z"
     style="fill:#f6d72e;fill-opacity:1" />
  <metadata
     id="metadata1">
    <rdf:RDF>
      <cc:Work
         rdf:about="">
        <dc:title>awe-branch</dc:title>
      </cc:Work>
    </rdf:RDF>
  </metadata>
</svg>
