<svg xmlns="http://www.w3.org/2000/svg" viewBox="0 0 278.67 36.34"><defs><style>.cls-1{fill:#e82127;}</style></defs><g id="Layer_2" data-name="Layer 2"><g id="Layer_1-2" data-name="Layer 1"><g id="TESLA"><g id="g8"><polyline id="polyline10" class="cls-1" points="238.08 14.38 238.08 36.29 245.1 36.29 245.1 21.7 270.68 21.7 270.68 36.29 277.7 36.29 277.7 14.42 238.08 14.38"/><path id="path12" class="cls-1" d="M244.32,7.29h27A10,10,0,0,0,278.67,0H237a10,10,0,0,0,7.33,7.26"/></g><g id="g14"><path id="path16" class="cls-1" d="M216.8,36.31A10,10,0,0,0,223,29.17H191.46l0-29.12-7.07,0V36.31H216.8"/></g><g id="g18"><path id="path20" class="cls-1" d="M131.87,7.2h25c3.76-1.1,6.92-4,7.69-7.14H124.88V21.48h32.44V29l-25.45,0a14.17,14.17,0,0,0-9.05,7.33l2.06,0h39.41V14.36H131.87V7.2"/></g><g id="g22"><path id="path24" class="cls-1" d="M70.27,7.27h27A10,10,0,0,0,104.62,0H62.94a10,10,0,0,0,7.33,7.27"/><path id="path26" class="cls-1" d="M70.27,21.59h27a10,10,0,0,0,7.34-7.26H62.94a10,10,0,0,0,7.33,7.26"/><path id="path28" class="cls-1" d="M70.27,36.3h27A10,10,0,0,0,104.62,29H62.94a10,10,0,0,0,7.33,7.26"/></g><g id="g30"><path id="path32" class="cls-1" d="M0,.09A10.06,10.06,0,0,0,7.32,7.3H18.69l.58.23V36.22h7.1V7.53L27,7.3H38.39A10.21,10.21,0,0,0,45.68.09V0H0V.09"/></g></g></g></g></svg>