<svg xmlns="http://www.w3.org/2000/svg" viewBox="0 0 225.83 225.83"><defs><style>.cls-1{fill:#1d1d1b;}</style></defs><g id="Layer_2" data-name="Layer 2"><g id="Layer_1-2" data-name="Layer 1"><path class="cls-1" d="M102.31,121.47h27.41v-9.15h-3c0,3.51-2.56,6.09-6.47,6.09H116V104.75h4.54v-3H102.31v3h4.6v13.66h-4.61Z"/><polygon class="cls-1" points="142.9 121.49 153.57 121.5 162.62 104.75 167.16 104.75 167.16 101.72 153.51 101.72 153.51 104.75 157.45 104.75 150.85 116.94 144.18 104.75 148.97 104.75 148.96 101.72 129.16 101.72 129.16 104.75 133.69 104.75 142.9 121.49"/><polygon class="cls-1" points="47.73 101.72 27.93 101.72 27.93 104.75 32.46 104.75 41.67 121.49 52.33 121.5 61.39 104.75 65.92 104.75 65.92 101.72 52.27 101.72 52.27 104.75 56.22 104.75 49.63 116.94 42.94 104.75 47.73 104.75 47.73 101.72"/><path class="cls-1" d="M68.57,111.62c0,5.82,4.7,10.45,14.1,10.45s14-4.63,14-10.45-4.92-10.32-14.1-10.32S68.57,105.88,68.57,111.62Zm18.94,0c-.07,3.59-1.55,7.33-5,7.27s-4.82-3.77-4.75-7.45,1.89-7.13,5-7.07S87.58,107.86,87.51,111.67Z"/><path class="cls-1" d="M169.77,111.62c0,5.82,4.69,10.45,14.09,10.45s14-4.63,14-10.45S193,101.3,183.82,101.3,169.77,105.88,169.77,111.62Zm14.21-7.2c3.14,0,4.8,3.44,4.73,7.25-.07,3.59-1.55,7.33-5,7.27s-4.83-3.77-4.76-7.45S180.85,104.36,184,104.42Z"/><path class="cls-1" d="M205.84,48.76,194.37,60.23a97,97,0,1,1-28.65-28.69l11.46-11.47a112.88,112.88,0,1,0,28.66,28.69Z"/><path class="cls-1" d="M169.72,4.44V7.61a119.52,119.52,0,0,1,19.25,13L172.89,36.71A96.81,96.81,0,0,1,189.21,53l16.07-16.07a124.9,124.9,0,0,1,13,19.17h3.09V4.44Z"/></g></g></svg>