<?xml version="1.0" encoding="UTF-8"?>
<svg version="1.1" xmlns="http://www.w3.org/2000/svg" width="3544" height="3544">
<path d="M0 0 C6.26128783 0.01139341 12.52240554 0.00460448 18.78368759 -0.0068779 C49.415057 -0.05451446 79.9340096 0.50123271 110.51660156 2.26074219 C111.20382294 2.29962051 111.89104431 2.33849884 112.59909058 2.3785553 C120.82776571 2.84489505 129.04795674 3.39350368 137.26660156 4.01074219 C138.38185211 4.09311127 139.49710266 4.17548035 140.64614868 4.26034546 C254.43778267 12.73639497 367.47975289 31.95242154 849.97070312 211.85107422 C852.74173563 213.38539928 855.52901385 214.8865317 858.32128906 216.38183594 C871.59320496 223.48987497 884.65898532 230.89115388 897.62011719 238.55078125 C900.40988875 240.19774349 903.20461433 241.83593864 906.00097656 243.47167969 C969.03709545 280.41719973 1029.69028447 321.60070859 1087.51660156 366.26074219 C1088.25265625 366.82792969 1088.98871094 367.39511719 1089.74707031 367.97949219 C1098.50864721 374.7354069 1107.19490085 381.56963728 1115.75683594 388.57714844 C1119.98487637 392.03377172 1124.26355325 395.41435072 1128.57910156 398.76074219 C1134.25660965 403.17604241 1139.70479057 407.8195386 1145.11352539 412.55883789 C1148.77446478 415.76425326 1152.47822904 418.89275539 1156.26660156 421.94824219 C1160.94288635 425.73215902 1165.36665134 429.74092888 1169.79003906 433.81542969 C1172.34276366 436.10483599 1174.9575801 438.25312091 1177.64160156 440.38574219 C1183.48742287 445.09604425 1188.90017521 450.23071663 1194.32763672 455.41357422 C1198.3227433 459.22447922 1202.3828081 462.92489308 1206.55444336 466.54150391 C1209.79325202 469.37934024 1212.93590403 472.31789476 1216.07910156 475.26074219 C1216.69978516 475.83824219 1217.32046875 476.41574219 1217.95996094 477.01074219 C1221.02507325 479.87449676 1224.03822749 482.77165387 1226.98144531 485.76074219 C1229.24198724 488.04170355 1231.55692571 490.18208726 1234.00683594 492.25708008 C1239.66346881 497.18139024 1244.91375731 502.51366483 1250.20800781 507.81933594 C1251.32309167 508.93374437 1252.43832379 510.04800448 1253.55369568 511.16212463 C1255.87913918 513.4861024 1258.20278667 515.81185683 1260.52514648 518.13891602 C1263.4824806 521.1019467 1266.44428284 524.06046389 1269.4074564 527.01765347 C1271.70770754 529.31426851 1274.00554387 531.61328784 1276.30268669 533.91301155 C1277.39305453 535.00404025 1278.48414836 536.09434396 1279.57602119 537.1838665 C1284.93955749 542.53838545 1290.24311905 547.90404974 1295.15672302 553.68067932 C1297.00063206 555.82314433 1298.9886354 557.79331232 1301.01660156 559.76074219 C1304.29763524 563.00330478 1307.37120153 566.3312124 1310.37207031 569.83105469 C1313.35108393 573.20618486 1316.4360642 576.47839312 1319.51660156 579.76074219 C1323.7164056 584.2400591 1327.88355516 588.7292985 1331.88769531 593.38574219 C1333.85325245 595.648254 1335.87333466 597.85764901 1337.89160156 600.07324219 C1341.84031601 604.44359903 1345.56287366 608.96377297 1349.26660156 613.54199219 C1351.45161725 616.18221948 1353.70831547 618.72803939 1356.01660156 621.26074219 C1359.87752346 625.50241244 1363.5220986 629.88108145 1367.12988281 634.33886719 C1369.74050984 637.53485576 1372.40395123 640.68133026 1375.07910156 643.82324219 C1378.91646435 648.33976093 1382.68271249 652.90067662 1386.36425781 657.54589844 C1388.01056833 659.62246071 1389.66431595 661.69197388 1391.32519531 663.75683594 C1396.99885396 670.81438069 1402.60765841 677.91372399 1408.10644531 685.10839844 C1410.46142795 688.18857832 1412.8323407 691.2559732 1415.20410156 694.32324219 C1430.27783002 713.89884585 1444.79350123 733.86795302 1458.98632812 754.08886719 C1460.50623161 756.24602439 1462.03759404 758.39462464 1463.57128906 760.54199219 C1480.38341703 784.18621183 1496.14566401 808.66012181 1511.51660156 833.26074219 C1512.12987305 834.24171875 1512.74314453 835.22269531 1513.375 836.23339844 C1532.97239159 867.66002338 1551.32391598 899.77853667 1568.94189453 932.35400391 C1570.01590111 934.33650348 1571.09319056 936.31722724 1572.17333984 938.29638672 C1588.17020597 967.60961205 1603.18764044 997.47374773 1616.98339844 1027.88671875 C1618.56081884 1031.35804836 1620.15507176 1034.82131354 1621.75097656 1038.28417969 C1644.98576495 1088.86488964 1665.33363144 1140.66362996 1683.51660156 1193.26074219 C1683.83844421 1194.19126404 1684.16028687 1195.12178589 1684.49188232 1196.08050537 C1706.2328808 1259.06299061 1724.01468555 1323.23726702 1738.51660156 1388.26074219 C1738.81343842 1389.5886377 1738.81343842 1389.5886377 1739.11627197 1390.94335938 C1760.91375925 1488.7064625 1773.78686499 1588.92603411 1778.40945435 1693.63500977 C1778.48555238 1695.49985591 1778.56434295 1697.36459305 1778.64498901 1699.22924805 C1779.66006668 1723.15333289 1779.71820458 1747.06869774 1779.70410156 1771.01074219 C1779.70383469 1772.02749779 1779.70356781 1773.04425339 1779.70329285 1774.09181976 C1779.69294904 1805.52626912 1779.43654287 1836.87556645 1777.51660156 1868.26074219 C1777.38098409 1870.54426857 1777.24540645 1872.82779733 1777.10986328 1875.11132812 C1770.44331672 1985.89164286 1754.05453416 2095.60397469 1612.51660156 2525.26074219 C1612.08541016 2526.18242187 1611.65421875 2527.10410156 1611.20996094 2528.05371094 C1604.39402341 2542.5650618 1597.24988495 2556.91732069 1590.10119629 2571.26678467 C1589.06407492 2573.34905689 1588.02813917 2575.43192017 1586.99353027 2577.51544189 C1580.22588304 2591.1343182 1573.19045495 2604.56956164 1565.83178711 2617.87838745 C1564.32611486 2620.6057938 1562.83470346 2623.3407204 1561.34632874 2626.07759094 C1552.72800334 2641.91853372 1543.77297396 2657.51664808 1534.48681641 2672.97753906 C1532.51682569 2676.2603687 1530.55665193 2679.54888561 1528.59863281 2682.83886719 C1521.56737671 2694.63509941 1514.41096973 2706.33552661 1507.01464844 2717.90625 C1505.48770888 2720.30615305 1503.97721025 2722.71576473 1502.46972656 2725.12792969 C1483.3523168 2755.6104023 1462.72319424 2785.20170835 1441.51660156 2814.26074219 C1440.94941406 2815.03804687 1440.38222656 2815.81535156 1439.79785156 2816.61621094 C1431.99396265 2827.29430001 1424.06343665 2837.86689119 1415.9921875 2848.34423828 C1414.61472417 2850.13329969 1413.24071271 2851.92494021 1411.86816406 2853.71777344 C1401.84632829 2866.80009962 1391.60083353 2879.66036988 1381.09130859 2892.35400391 C1378.99168987 2894.89633293 1376.91013644 2897.45319127 1374.82910156 2900.01074219 C1366.89630399 2909.71451486 1358.71992337 2919.21604442 1350.55175781 2928.72167969 C1348.53089051 2931.0744863 1346.51848597 2933.4341343 1344.51269531 2935.79980469 C1338.5549605 2942.81386859 1332.44924594 2949.65195064 1326.17675781 2956.38574219 C1324.12238662 2958.60603176 1322.11323507 2960.84291525 1320.14160156 2963.13574219 C1316.21124629 2967.67812359 1312.08786217 2972.03949391 1307.97973633 2976.42041016 C1305.12665228 2979.46324891 1302.27921519 2982.50957307 1299.46972656 2985.59277344 C1293.43816813 2992.20783501 1287.24916473 2998.61878028 1280.85473633 3004.88574219 C1277.85051374 3007.84706482 1274.9676185 3010.84804337 1272.21972656 3014.04980469 C1267.75584703 3019.22051198 1262.91742949 3024.00554679 1258.07910156 3028.82324219 C1257.17611328 3029.73009766 1256.273125 3030.63695313 1255.34277344 3031.57128906 C1250.83232932 3036.07520104 1246.26311551 3040.41897538 1241.42651367 3044.5690918 C1237.96327706 3047.63655524 1234.75480296 3050.95929466 1231.51660156 3054.26074219 C1226.93817382 3058.92859235 1222.30458837 3063.4251301 1217.32714844 3067.66894531 C1215.4758019 3069.29661244 1213.7417623 3071.00062247 1212.01660156 3072.76074219 C1209.09529368 3075.72790019 1206.03668483 3078.4613319 1202.88378906 3081.17871094 C1199.87937607 3083.82120619 1196.94926084 3086.53914392 1194.01660156 3089.26074219 C1186.55131761 3096.1760973 1178.87552938 3102.81970271 1171.14404297 3109.43432617 C1167.36520505 3112.66897545 1163.59969549 3115.91834086 1159.84472656 3119.18066406 C1149.7303446 3127.96805583 1139.61032844 3136.69796577 1129.03027344 3144.9230957 C1124.26636454 3148.63818472 1119.60389406 3152.46667096 1114.95410156 3156.32324219 C1108.50253605 3161.66566427 1101.95661444 3166.83383943 1095.28759766 3171.90332031 C1093.30784095 3173.4207517 1091.34300275 3174.95622509 1089.37988281 3176.49511719 C1078.57653275 3184.96260778 1067.61624175 3193.18597281 1056.51660156 3201.26074219 C1055.37143066 3202.09436279 1055.37143066 3202.09436279 1054.203125 3202.94482422 C1044.14843192 3210.25518259 1034.03613852 3217.48222659 1023.85693359 3224.61816406 C1022.2366376 3225.75537994 1020.61792593 3226.89485524 1019.00048828 3228.03613281 C971.95375762 3261.22514687 922.78707575 3291.51926897 872.52636719 3319.58007812 C870.44034698 3320.74491939 868.35581063 3321.91242042 866.27246094 3323.08203125 C847.00857737 3333.8881948 827.48384196 3344.12824224 807.78204346 3354.11175537 C805.51513529 3355.26148585 803.24982642 3356.41431428 800.98486328 3357.56787109 C781.00689904 3367.73500221 760.86544078 3377.40403409 740.390625 3386.52880859 C736.67680269 3388.18558612 732.97491706 3389.86738656 729.27441406 3391.55371094 C689.51043118 3409.62924541 648.86608351 3425.77636987 607.7355957 3440.4677124 C606.19341702 3441.01886015 604.6516144 3441.57106083 603.11010742 3442.12408447 C503.40663519 3477.89000233 400.57424211 3503.9823838 100.51660156 3542.26074219 C98.99942535 3542.33905273 98.99942535 3542.33905273 97.45159912 3542.41894531 C-2.54526132 3547.51964121 -103.23667208 3544.1872381 -745.48339844 3377.26074219 C-746.8867041 3376.60138672 -746.8867041 3376.60138672 -748.31835938 3375.92871094 C-762.81288855 3369.11623077 -777.15285939 3361.98763065 -791.48742676 3354.84634399 C-793.57055312 3353.80879466 -795.65427058 3352.77243106 -797.73864746 3351.73739624 C-811.35734023 3344.96984106 -824.7923976 3337.93449621 -838.1010437 3330.57592773 C-840.82847598 3329.07024117 -843.56342965 3327.57881746 -846.30032349 3326.09042358 C-862.06332236 3317.51454285 -877.59181196 3308.60485373 -892.9765625 3299.36425781 C-896.02638052 3297.53286198 -899.08223496 3295.7117729 -902.13963318 3293.89306641 C-925.06159308 3280.25716013 -947.4747798 3265.98546623 -969.67089844 3251.19824219 C-970.55805542 3250.60722717 -971.4452124 3250.01621216 -972.35925293 3249.4072876 C-1002.81848492 3229.09948906 -1032.65229807 3208.12839093 -1061.73339844 3185.88574219 C-1065.44466757 3183.04839828 -1069.17408325 3180.23842371 -1072.92089844 3177.44824219 C-1082.9874488 3169.91612742 -1092.78362068 3162.05057144 -1102.51928711 3154.09765625 C-1106.25381255 3151.05233895 -1110.01562996 3148.05027776 -1113.82324219 3145.09692383 C-1121.32532085 3139.27792205 -1128.49763219 3133.13320127 -1135.63525391 3126.875 C-1138.58813251 3124.29581462 -1141.56650414 3121.74669957 -1144.54589844 3119.19824219 C-1145.11880615 3118.70718994 -1145.69171387 3118.2161377 -1146.28198242 3117.71020508 C-1149.18685282 3115.22119326 -1152.09701041 3112.73868311 -1155.01464844 3110.26464844 C-1162.0276635 3104.30576359 -1168.8663303 3098.20063939 -1175.60058594 3091.92871094 C-1177.86575436 3089.83235588 -1180.14854411 3087.7780954 -1182.48339844 3085.76074219 C-1187.6571286 3081.27828286 -1192.65566271 3076.60370926 -1197.66992188 3071.94482422 C-1199.54577052 3070.20282045 -1201.42474386 3068.46422509 -1203.30371094 3066.72558594 C-1209.6777864 3060.81472867 -1215.98376935 3054.87638244 -1222.04199219 3048.63964844 C-1224.03049168 3046.70205454 -1226.04751585 3044.89540592 -1228.15136719 3043.08837891 C-1232.34595089 3039.42895691 -1236.3083811 3035.58064799 -1240.23730469 3031.63964844 C-1240.94185287 3030.93605698 -1241.64640106 3030.23246552 -1242.37229919 3029.5075531 C-1243.8499321 3028.03059571 -1245.326323 3026.55239476 -1246.80151367 3025.07299805 C-1249.04006325 3022.82909134 -1251.28390317 3020.59057514 -1253.52832031 3018.35253906 C-1254.97330247 3016.90689601 -1256.41797436 3015.46094273 -1257.86230469 3014.01464844 C-1258.52291397 3013.35606339 -1259.18352325 3012.69747833 -1259.864151 3012.01893616 C-1263.70281846 3008.16119344 -1267.35898229 3004.19815134 -1270.89964294 3000.06468201 C-1273.45397499 2997.15522957 -1276.21358777 2994.46316087 -1278.98339844 2991.76074219 C-1283.07139104 2987.77221413 -1286.91874705 2983.66657491 -1290.65332031 2979.34472656 C-1293.83192025 2975.72512557 -1297.16451206 2972.2512951 -1300.48339844 2968.76074219 C-1305.05927494 2963.94818242 -1309.55157724 2959.09128584 -1313.90234375 2954.07373047 C-1316.00985891 2951.65705233 -1318.18264076 2949.30348156 -1320.35839844 2946.94824219 C-1324.4824652 2942.43170381 -1328.36276709 2937.76941203 -1332.20214844 2933.01074219 C-1334.55058812 2930.1797464 -1336.99249746 2927.46690621 -1339.48339844 2924.76074219 C-1343.54323489 2920.34434075 -1347.37663665 2915.79910697 -1351.14355469 2911.13183594 C-1353.6707359 2908.03087067 -1356.25969623 2904.98912119 -1358.85839844 2901.94824219 C-1363.10666352 2896.96050537 -1367.19708306 2891.86952422 -1371.21948242 2886.69848633 C-1374.72048595 2882.20513066 -1378.30863447 2877.78991115 -1381.92089844 2873.38574219 C-1386.73507442 2867.49970137 -1391.36608611 2861.50468119 -1395.89550781 2855.39746094 C-1399.65902316 2850.3302442 -1403.52377919 2845.35068283 -1407.42089844 2840.38574219 C-1413.79626119 2832.23934811 -1419.87937837 2823.90807879 -1425.88769531 2815.48876953 C-1427.45697773 2813.29763255 -1429.03800535 2811.11557008 -1430.62402344 2808.93652344 C-1450.46432475 2781.66838654 -1469.35339584 2753.69413424 -1487.48339844 2725.26074219 C-1487.92458008 2724.57206055 -1488.36576172 2723.88337891 -1488.8203125 2723.17382812 C-1516.95223386 2679.22635013 -1542.77615945 2633.84316372 -1566.78027344 2587.5222168 C-1568.08927028 2585.01549535 -1569.40744173 2582.51458052 -1570.73339844 2580.0168457 C-1576.7273435 2568.71470698 -1582.50476675 2557.32373169 -1588.10839844 2545.82324219 C-1588.53515869 2544.94899597 -1588.96191895 2544.07474976 -1589.40161133 2543.17401123 C-1597.25463083 2527.0596123 -1604.65437173 2510.77110686 -1611.82002258 2494.34121704 C-1613.72053788 2489.98655379 -1615.65211432 2485.64759213 -1617.61230469 2481.31933594 C-1631.1128002 2451.47859318 -1643.04186288 2420.94283918 -1654.48339844 2390.26074219 C-1654.73996216 2389.57355103 -1654.99652588 2388.88635986 -1655.26086426 2388.17834473 C-1691.32716695 2291.44241414 -1718.35239558 2191.54780513 -1763.37625122 1854.67373657 C-1763.45075878 1852.99579927 -1763.52958825 1851.31805058 -1763.61178589 1849.64047241 C-1764.73544004 1826.39467368 -1764.67086312 1803.13667667 -1764.66870117 1779.86938477 C-1764.66862051 1775.28926595 -1764.67548135 1770.70924844 -1764.68920898 1766.12915039 C-1764.80891757 1725.48859497 -1763.70281339 1684.98302961 -1760.67089844 1644.44824219 C-1760.58691803 1643.30269867 -1760.50293762 1642.15715515 -1760.41641235 1640.97689819 C-1752.57123354 1534.44309059 -1735.2904058 1428.8316233 -1674.48339844 1210.26074219 C-1674.19378235 1209.38436096 -1673.90416626 1208.50797974 -1673.60577393 1207.6050415 C-1661.83609499 1172.03014762 -1648.74266749 1136.91282393 -1634.48339844 1102.26074219 C-1634.19718628 1101.56412476 -1633.91097412 1100.86750732 -1633.61608887 1100.14978027 C-1618.22229157 1062.71529152 -1601.60301732 1025.852185 -1583.63366699 989.58343506 C-1582.41797877 987.12864277 -1581.20496408 984.67254055 -1579.9921875 982.21630859 C-1570.98604957 963.98933958 -1561.97950471 945.78174824 -1552.03515625 928.04345703 C-1550.23731246 924.81944453 -1548.46464505 921.58194686 -1546.69433594 918.34277344 C-1538.2079489 902.83187289 -1529.50155145 887.47054414 -1520.48339844 872.26074219 C-1519.9788916 871.40754395 -1519.47438477 870.5543457 -1518.95458984 869.67529297 C-1511.25414307 856.67048839 -1503.28253471 843.84046675 -1495.23388672 831.04882812 C-1493.6935397 828.59544417 -1492.16233002 826.13676163 -1490.63574219 823.67480469 C-1484.09962471 813.17323074 -1477.28073292 802.86494073 -1470.42089844 792.57324219 C-1469.96157928 791.88376495 -1469.50226013 791.19428772 -1469.02902222 790.48391724 C-1460.37979141 777.51113366 -1451.62010955 764.61014327 -1442.60839844 751.88574219 C-1442.11629883 751.19061523 -1441.62419922 750.49548828 -1441.1171875 749.77929688 C-1439.57502569 747.60470278 -1438.02978857 745.43233111 -1436.48339844 743.26074219 C-1435.97583008 742.54692383 -1435.46826172 741.83310547 -1434.9453125 741.09765625 C-1427.28338553 730.34195435 -1419.37386265 719.79389214 -1411.34277344 709.31152344 C-1407.91846852 704.84015194 -1404.53724595 700.33831697 -1401.17089844 695.82324219 C-1396.16696135 689.12453123 -1391.03451719 682.53630348 -1385.84228516 675.98291016 C-1384.46622444 674.23897694 -1383.10040457 672.48747621 -1381.73730469 670.73339844 C-1376.75326372 664.32887929 -1371.66737773 658.04152692 -1366.39526367 651.87158203 C-1363.71720415 648.73416656 -1361.10199968 645.56061834 -1358.54589844 642.32324219 C-1354.81189996 637.60983427 -1350.90727417 633.05783442 -1346.97802734 628.50756836 C-1343.89591768 624.93152464 -1340.88210365 621.31336802 -1337.92089844 617.63574219 C-1333.8203861 612.58266075 -1329.46755087 607.80764871 -1325.04589844 603.03808594 C-1322.38225707 600.15112098 -1319.79191496 597.21150885 -1317.21777344 594.24511719 C-1314.44416781 591.07171255 -1311.61586984 587.94798285 -1308.79199219 584.81933594 C-1307.30220563 583.16821886 -1305.81502967 581.51474075 -1304.33105469 579.85839844 C-1298.68631363 573.56037812 -1292.97360708 567.32765812 -1287.21817017 561.13095093 C-1286.11798807 559.94487546 -1285.01931248 558.75739935 -1283.92269897 557.56802368 C-1271.24562919 543.8291582 -1258.01815418 530.64102893 -1244.79003906 517.43701172 C-1241.59519236 514.24791706 -1238.40493457 511.05427504 -1235.21593475 507.85933495 C-1232.72632102 505.36609324 -1230.23431304 502.87525551 -1227.74159241 500.38512039 C-1226.56404035 499.20822853 -1225.38721147 498.03061257 -1224.21116638 496.85221481 C-1218.62393589 491.25623846 -1213.04647478 485.69582066 -1207.01477051 480.57192993 C-1205.06348132 478.90120176 -1203.26701185 477.10805608 -1201.48339844 475.26074219 C-1198.40094339 472.13663234 -1195.20830072 469.2337313 -1191.88183594 466.37402344 C-1188.6919289 463.56337245 -1185.59083953 460.66194805 -1182.48339844 457.76074219 C-1177.06474561 452.71080167 -1171.58563208 447.76478797 -1165.953125 442.95361328 C-1164.17119697 441.43140152 -1162.38971243 439.90867245 -1160.60839844 438.38574219 C-1159.99955811 437.8657666 -1159.39071777 437.34579102 -1158.76342773 436.81005859 C-1155.22639583 433.78129443 -1151.73913358 430.70894756 -1148.29589844 427.57324219 C-1144.13752259 423.80027679 -1139.8361346 420.24493962 -1135.47167969 416.71386719 C-1132.07589791 413.92621888 -1128.74661721 411.06870223 -1125.42089844 408.19824219 C-1120.75833727 404.18120867 -1116.04962788 400.24989875 -1111.21777344 396.43652344 C-1109.08809139 394.74190501 -1106.97684642 393.03118546 -1104.87402344 391.30371094 C-1097.48650716 385.24035486 -1090.01852536 379.33727155 -1082.34423828 373.640625 C-1078.0019777 370.41397337 -1073.7229496 367.12102371 -1069.48339844 363.76074219 C-1056.84961886 353.7699077 -1043.84060193 344.29768302 -1030.76123047 334.90185547 C-1028.50600829 333.27703194 -1026.25739016 331.64348971 -1024.01074219 330.00683594 C-994.64810821 308.63580781 -964.21319032 288.60495848 -933.48339844 269.26074219 C-932.60393555 268.70660645 -931.72447266 268.1524707 -930.81835938 267.58154297 C-909.9200985 254.44830445 -888.64241752 241.90829083 -867.15283203 229.76904297 C-865.32386361 228.7356273 -863.4961234 227.70003575 -861.66943359 226.66259766 C-844.42426829 216.87214804 -826.97251061 207.50153801 -809.41937256 198.27819824 C-807.54517996 197.29321162 -805.67170856 196.30686495 -803.79833984 195.3203125 C-789.58578595 187.84219231 -775.28208978 180.62295056 -760.74462891 173.79785156 C-757.77858242 172.39987068 -754.81863099 170.99002298 -751.86053467 169.5753479 C-690.69523192 140.3359829 -627.70186849 114.97124294 -563.48339844 93.26074219 C-562.51358032 92.93267578 -561.54376221 92.60460937 -560.54455566 92.26660156 C-491.39926462 68.91891315 -421.01300502 49.78091646 -349.48339844 35.26074219 C-348.56282654 35.07314331 -347.64225464 34.88554443 -346.69378662 34.69226074 C-274.22582732 19.95540881 -200.97262143 10.11839573 -127.25683594 4.35839844 C-126.48401276 4.29752548 -125.71118958 4.23665253 -124.91494751 4.17393494 C-83.30057946 1.00832062 -41.72639968 -0.07659682 0 0 Z " fill="#FEF100" transform="translate(1764.4833984375,-0.2607421875)"/>
<path d="M0 0 C2.27248665 0.00523697 4.54495955 0.00715265 6.81745148 0.00866318 C29.43070638 0.03480475 51.82373525 0.64818523 74.29883575 3.31765366 C76.41860837 3.54829757 78.53839892 3.77877674 80.65821075 4.00905991 C103.8559039 6.67033372 126.68930859 11.57708967 149.29883575 17.31765366 C150.18071564 17.53953354 151.06259552 17.76141342 151.97119904 17.99001694 C162.04407421 20.53378917 172.01794074 23.31398336 181.896492 26.53835678 C183.631292 27.10110897 185.36860303 27.65614052 187.1074295 28.20632553 C226.01077809 40.52158938 263.93758436 56.91200597 299.29883575 77.31765366 C300.08161896 77.76431381 300.86440216 78.21097397 301.67090607 78.67116928 C330.13775733 94.98854317 357.3157198 113.9737151 382.57080841 134.89382553 C384.12970016 136.17829242 385.70364015 137.44444302 387.2793045 138.70827866 C392.90905976 143.22508086 398.27172118 147.95892064 403.53394318 152.89406967 C406.2808313 155.46963421 409.06165783 157.98196896 411.92090607 160.43264389 C416.67315456 164.58405055 421.12904222 169.00393781 425.583992 173.46999741 C426.44391251 174.32896118 427.30383301 175.18792496 428.18981171 176.07291794 C429.99699437 177.8794238 431.80292967 179.68717827 433.60767365 181.49612045 C436.35321968 184.24702176 439.10406121 186.99254587 441.85547638 189.73757553 C443.61946895 191.50222897 445.38315126 193.26719263 447.146492 195.03249741 C448.36708061 196.25004967 448.36708061 196.25004967 449.61232758 197.49219894 C453.84801482 201.74512559 457.93139135 206.06923168 461.83300018 210.63163376 C463.87450179 212.97979094 466.07035312 215.14781531 468.29883575 217.31765366 C471.92765097 220.90254978 475.33946435 224.58058965 478.6543045 228.45437241 C480.81306349 230.90028223 483.12967913 233.1611059 485.45728302 235.44485092 C487.22720432 237.24480669 488.88083027 239.09849004 490.52539825 241.01296616 C494.29566929 245.34947568 498.21724771 249.52652075 502.17383575 253.69265366 C507.21857015 259.02776563 512.21701746 264.39127953 517.10352325 269.87234116 C519.76617165 272.8382093 522.46729033 275.76687848 525.17383575 278.69265366 C534.68219909 288.97412832 544.12081971 299.31339116 553.47071075 309.73952866 C557.59528092 314.33213515 561.74508546 318.89941952 565.92383575 323.44265366 C569.48136674 327.31133187 572.9817315 331.22099491 576.42383575 335.19265366 C578.84433717 337.93588859 581.32087753 340.62646609 583.79883575 343.31765366 C587.44300516 347.27625089 591.03797355 351.26942197 594.56446075 355.33327866 C598.09383041 359.37138628 601.70454206 363.33739554 605.29883575 367.31765366 C613.86743783 376.80637407 613.86743783 376.80637407 617.73633575 381.25515366 C620.547061 384.48324878 623.41463476 387.65503808 626.29883575 390.81765366 C629.75211729 394.60428363 633.15982627 398.42241686 636.521492 402.29030991 C638.59243062 404.65254538 640.69396423 406.98561219 642.79883575 409.31765366 C646.06274424 412.93441711 649.28674525 416.58154974 652.48633575 420.25515366 C654.5709474 422.62729794 656.6831222 424.97321431 658.79883575 427.31765366 C663.59791367 432.64100059 668.33961525 438.00628704 672.97852325 443.46999741 C678.03977343 449.42278437 683.14844065 455.29794871 688.48633575 461.00515366 C692.05212688 464.8176491 695.46984362 468.67799923 698.73633575 472.75515366 C703.3219587 478.46838881 708.29629118 483.76967303 713.302742 489.11062241 C717.68000289 493.78158686 721.85026465 498.61512906 725.9980545 503.48952866 C727.01465332 504.6825168 728.03159163 505.87521571 729.04883575 507.06765366 C729.56365509 507.67133774 730.07847443 508.27502182 730.60889435 508.89699936 C733.98985565 512.84250649 737.44985618 516.69884731 740.98633575 520.50515366 C744.35467022 524.13048574 747.57805595 527.82997759 750.67383575 531.69265366 C754.72485299 536.73101559 759.07107133 541.42070125 763.49927521 546.12356186 C767.54137768 550.43974523 771.29471684 554.92259864 774.990242 559.54030991 C777.65163033 562.74208165 780.45345821 565.78000283 783.29883575 568.81765366 C787.73718482 573.55629509 791.89026029 578.43884945 795.95508575 583.50515366 C798.63091746 586.71615171 801.44241852 589.76794503 804.29883575 592.81765366 C808.7371625 597.5563183 812.89025825 602.43884691 816.95508575 607.50515366 C819.63091746 610.71615171 822.44241852 613.76794503 825.29883575 616.81765366 C829.7371625 621.5563183 833.89025825 626.43884691 837.95508575 631.50515366 C840.63091853 634.71615299 843.44243282 637.76793002 846.29883575 640.81765366 C850.75758019 645.5785436 854.93681405 650.48233186 859.021492 655.57155991 C861.51710044 658.58084418 864.13648718 661.4570402 866.79883575 664.31765366 C871.06804354 668.90522805 875.05642314 673.6520837 878.98633575 678.53640366 C881.94059939 682.08950452 885.06796999 685.45789046 888.21509552 688.83938217 C891.18599204 692.05064416 893.99844652 695.34393181 896.73633575 698.75515366 C900.10229841 702.94002672 903.63059593 706.90079764 907.29883575 710.81765366 C911.75755771 715.57856699 915.93681199 720.48232929 920.021492 725.57155991 C922.51710123 728.58084512 925.1365038 731.45702388 927.79883575 734.31765366 C932.08843982 738.92764309 936.10294698 743.69548881 940.052742 748.60280991 C942.38714165 751.42438861 944.81874174 754.12356077 947.29883575 756.81765366 C950.57301999 760.3743561 953.70526008 763.98927176 956.73633575 767.75515366 C960.3945459 772.29081809 964.24626541 776.57466535 968.21265411 780.83694077 C971.99374134 784.92426371 975.49573542 789.19808609 978.98633575 793.53640366 C981.49854709 796.55784702 984.12286033 799.44205444 986.79883575 802.31765366 C991.08841336 806.92767005 995.10294473 811.69548602 999.052742 816.60280991 C1001.38714165 819.42438861 1003.81874174 822.12356077 1006.29883575 824.81765366 C1009.57301999 828.3743561 1012.70526008 831.98927176 1015.73633575 835.75515366 C1018.95826677 839.74989352 1022.30539071 843.56319715 1025.79883575 847.31765366 C1030.08838688 851.92769701 1034.10294248 856.69548322 1038.052742 861.60280991 C1040.38714165 864.42438861 1042.81874174 867.12356077 1045.29883575 869.81765366 C1049.39234667 874.26492477 1053.22326074 878.86482829 1057.01758575 883.56765366 C1059.36602544 886.39864944 1061.80793478 889.11148963 1064.29883575 891.81765366 C1068.39234667 896.26492477 1072.22326074 900.86482829 1076.01758575 905.56765366 C1078.36602544 908.39864944 1080.80793478 911.11148963 1083.29883575 913.81765366 C1087.39234667 918.26492477 1091.22326074 922.86482829 1095.01758575 927.56765366 C1097.36602544 930.39864944 1099.80793478 933.11148963 1102.29883575 935.81765366 C1106.39234667 940.26492477 1110.22326074 944.86482829 1114.01758575 949.56765366 C1116.36602544 952.39864944 1118.80793478 955.11148963 1121.29883575 957.81765366 C1125.39234667 962.26492477 1129.22326074 966.86482829 1133.01758575 971.56765366 C1135.36602544 974.39864944 1137.80793478 977.11148963 1140.29883575 979.81765366 C1144.41262484 984.28750486 1148.26970872 988.90810259 1152.083992 993.63405991 C1154.25516402 996.26473923 1156.50124932 998.7970779 1158.79883575 1001.31765366 C1161.89438772 1004.71364047 1164.85034783 1008.17936896 1167.73633575 1011.75515366 C1170.81220163 1015.55852868 1173.98636741 1019.21848017 1177.29883575 1022.81765366 C1181.41262484 1027.28750486 1185.26970872 1031.90810259 1189.083992 1036.63405991 C1191.25516402 1039.26473923 1193.50124932 1041.7970779 1195.79883575 1044.31765366 C1198.89438772 1047.71364047 1201.85034783 1051.17936896 1204.73633575 1054.75515366 C1207.81220163 1058.55852868 1210.98636741 1062.21848017 1214.29883575 1065.81765366 C1218.41262484 1070.28750486 1222.26970872 1074.90810259 1226.083992 1079.63405991 C1228.25516402 1082.26473923 1230.50124932 1084.7970779 1232.79883575 1087.31765366 C1236.71774828 1091.61757156 1240.39054445 1096.07684912 1244.04883575 1100.59890366 C1246.94359286 1104.09673516 1249.99473114 1107.43550769 1253.052742 1110.79030991 C1255.36071173 1113.38727758 1257.55439438 1116.05169378 1259.73633575 1118.75515366 C1262.81220163 1122.55852868 1265.98636741 1126.21848017 1269.29883575 1129.81765366 C1273.41262484 1134.28750486 1277.26970872 1138.90810259 1281.083992 1143.63405991 C1283.25516402 1146.26473923 1285.50124932 1148.7970779 1287.79883575 1151.31765366 C1291.71774828 1155.61757156 1295.39054445 1160.07684912 1299.04883575 1164.59890366 C1301.23385145 1167.23913095 1303.49054966 1169.78495086 1305.79883575 1172.31765366 C1309.71774828 1176.61757156 1313.39054445 1181.07684912 1317.04883575 1185.59890366 C1319.23385145 1188.23913095 1321.49054966 1190.78495086 1323.79883575 1193.31765366 C1327.71774828 1197.61757156 1331.39054445 1202.07684912 1335.04883575 1206.59890366 C1337.23385145 1209.23913095 1339.49054966 1211.78495086 1341.79883575 1214.31765366 C1345.71774828 1218.61757156 1349.39054445 1223.07684912 1353.04883575 1227.59890366 C1355.23385145 1230.23913095 1357.49054966 1232.78495086 1359.79883575 1235.31765366 C1363.62176616 1239.51628584 1367.215631 1243.85784307 1370.787117 1248.27077866 C1373.71164219 1251.81841418 1376.71621696 1255.2889407 1379.73633575 1258.75515366 C1381.92501099 1261.27496852 1384.11205399 1263.7961956 1386.29883575 1266.31765366 C1387.15606232 1267.30507553 1388.01328888 1268.29249741 1388.896492 1269.30984116 C1436.93692172 1325.7085245 1467.79250541 1397.42677779 1483.29883575 1469.31765366 C1483.5946756 1470.68712143 1483.5946756 1470.68712143 1483.896492 1472.08425522 C1485.11964996 1477.81299674 1486.2532791 1483.55387237 1487.29883575 1489.31765366 C1487.43386505 1490.05950912 1487.56889435 1490.80136459 1487.70801544 1491.56570053 C1488.75077533 1497.46179966 1489.56629086 1503.37558017 1490.29883575 1509.31765366 C1490.43708771 1510.42060776 1490.57533966 1511.52356186 1490.71778107 1512.65993881 C1495.32798194 1551.18061272 1495.17045036 1590.83819775 1490.29883575 1629.31765366 C1490.09000763 1631.0970433 1490.09000763 1631.0970433 1489.87696075 1632.91238022 C1487.69185147 1651.39982106 1483.84431008 1669.29026876 1479.29883575 1687.31765366 C1479.09226349 1688.14668198 1478.88569122 1688.9757103 1478.67285919 1689.82986069 C1476.26472443 1699.44273258 1473.39067495 1708.9056271 1470.29883575 1718.31765366 C1469.96110138 1719.35228745 1469.623367 1720.38692123 1469.27539825 1721.45290756 C1463.87232645 1737.89268508 1457.85629282 1753.81557933 1450.58643341 1769.53249741 C1449.39478843 1772.11010186 1448.22525797 1774.69654665 1447.0605545 1777.28640366 C1430.30941841 1814.07478389 1407.26524897 1848.43268777 1381.29883575 1879.31765366 C1380.86281036 1879.83859604 1380.42678497 1880.35953842 1379.97754669 1880.89626694 C1365.98766056 1897.57427226 1351.15579965 1914.41807334 1334.4824295 1928.47390366 C1332.6592357 1930.01334458 1330.86858303 1931.57782847 1329.083992 1933.16140366 C1319.82259756 1941.34794826 1310.20595723 1948.93117777 1300.29883575 1956.31765366 C1299.51927521 1956.9022435 1298.73971466 1957.48683334 1297.93653107 1958.08913803 C1248.35856264 1995.23747404 1192.34603527 2023.49867443 1135.29883575 2047.31765366 C1134.66586578 2047.58257614 1134.03289581 2047.84749863 1133.38074493 2048.12044907 C1112.52467626 2056.84283155 1091.43980178 2064.8810126 1070.20209503 2072.62289047 C1067.45791401 2073.62462259 1064.71655593 2074.63402218 1061.974617 2075.64187241 C1048.72821626 2080.48353843 1035.39199323 2085.06370981 1022.04883575 2089.63015366 C1021.164841 2089.93315384 1020.28084625 2090.23615402 1019.37006378 2090.54833603 C1004.99109522 2095.47189539 990.55346076 2100.00310525 975.92383575 2104.13015366 C967.16102728 2106.61284302 958.43311438 2109.1757519 949.73633575 2111.88015366 C938.13130456 2115.47252867 926.38995248 2118.47826863 914.61719513 2121.46487045 C911.16139665 2122.35297405 907.71408712 2123.26915007 904.26758575 2124.19265366 C877.07917172 2131.46854904 849.81533494 2138.39244443 822.29883575 2144.31765366 C821.22240814 2144.55008774 820.14598053 2144.78252182 819.0369339 2145.02199936 C810.53000753 2146.85890806 802.02129604 2148.68733413 793.5111084 2150.50906754 C791.52605282 2150.93414862 789.54113 2151.35984525 787.55622101 2151.7856102 C763.34255704 2156.97214584 739.07829445 2161.74487299 714.67383575 2165.94265366 C711.3480604 2166.51671112 708.02255112 2167.09228402 704.69727325 2167.66921616 C703.89102509 2167.80901901 703.08477692 2167.94882187 702.25409698 2168.09286118 C697.33668072 2168.94985753 692.42942285 2169.84801952 687.52539825 2170.77859116 C669.55106125 2174.1692762 651.53875531 2177.10077735 633.42383575 2179.63015366 C630.1843567 2180.08564937 626.94500864 2180.54206804 623.70568085 2180.99863815 C621.49208927 2181.31059161 619.27843549 2181.62210399 617.06472015 2181.93317795 C609.9103709 2182.94078114 602.76160036 2183.98155201 595.615242 2185.04421616 C560.59850172 2190.22819924 525.472458 2194.36877754 490.29883575 2198.31765366 C488.60627655 2198.50811264 488.60627655 2198.50811264 486.87952423 2198.70241928 C407.87517188 2207.56781397 328.47712298 2213.2790646 183.1140213 2219.84670639 C175.24066993 2220.07759478 167.3676372 2220.31279161 159.49514008 2220.57136154 C111.53074706 2222.14654289 63.61115769 2222.63665988 15.62233859 2222.57479131 C9.11222084 2222.56726816 2.60216415 2222.56996576 -3.90795135 2222.57839584 C-43.9191701 2222.62882597 -83.90485765 2222.42042957 -123.90428925 2221.38405991 C-124.71681381 2221.36304498 -125.52933836 2221.34203005 -126.36648488 2221.3203783 C-156.16230333 2220.54391008 -185.96195368 2219.60170724 -215.7363205 2218.21999741 C-216.47546251 2218.186033 -217.21460453 2218.1520686 -217.97614479 2218.11707497 C-308.13300774 2213.96340477 -398.19156399 2207.25099949 -569.45116425 2187.13015366 C-570.60465363 2186.9737944 -571.75814301 2186.81743515 -572.94658661 2186.65633774 C-602.89535562 2182.57661088 -632.75239581 2177.90751658 -662.57616425 2173.00515366 C-663.29339283 2172.88741718 -664.01062141 2172.76968071 -664.7495842 2172.64837646 C-697.00941163 2167.35143806 -729.19208434 2161.76400873 -761.1269455 2154.73952866 C-768.13214847 2153.20592596 -775.16475675 2151.82457458 -782.20116425 2150.44265366 C-838.44025506 2139.30848685 -894.73168925 2125.74602809 -949.51561737 2108.82326889 C-956.55992504 2106.64837001 -963.63166169 2104.59081494 -970.7363205 2102.62185287 C-1002.71281568 2093.65365517 -1034.65581184 2083.08586558 -1065.70116425 2071.31765366 C-1066.46088531 2071.02997116 -1067.22060638 2070.74228867 -1068.0033493 2070.44588852 C-1128.07750823 2047.67776331 -1189.64360839 2023.61671132 -1244.46581268 1989.69900131 C-1247.13214885 1988.05132438 -1249.81193879 1986.42629649 -1252.49022675 1984.79812241 C-1263.7273365 1977.91851116 -1274.50836318 1970.75884887 -1284.91161346 1962.67898178 C-1287.84212049 1960.4497175 -1290.86970783 1958.36204243 -1293.88866425 1956.25515366 C-1300.31801731 1951.73002129 -1306.2591146 1946.73713563 -1312.20018768 1941.59646225 C-1314.427646 1939.69870254 -1316.72380006 1937.88929188 -1319.01366425 1936.06765366 C-1330.23826341 1926.90008782 -1340.50447109 1916.59739918 -1350.76366425 1906.38015366 C-1351.54870331 1905.59978745 -1352.33374237 1904.81942123 -1353.1425705 1904.01540756 C-1357.86754469 1899.27728596 -1362.35013097 1894.39952716 -1366.70116425 1889.31765366 C-1367.65061283 1888.23468142 -1368.60108209 1887.15260289 -1369.55272675 1886.07155991 C-1377.35372394 1877.12830862 -1384.6190671 1867.8375053 -1391.70116425 1858.31765366 C-1392.51569061 1857.22662338 -1392.51569061 1857.22662338 -1393.34667206 1856.11355209 C-1406.54773268 1838.36310636 -1418.02464936 1819.68038306 -1428.70116425 1800.31765366 C-1429.43568817 1798.98854965 -1429.43568817 1798.98854965 -1430.18505096 1797.63259506 C-1442.91787956 1774.40452364 -1453.20254063 1750.08973232 -1461.76952362 1725.03933334 C-1462.6229875 1722.54603794 -1463.49507429 1720.06021275 -1464.37303925 1717.57546616 C-1474.90051613 1687.41863134 -1481.56123617 1655.11273884 -1484.42479706 1623.31716537 C-1484.68997109 1620.43913701 -1485.0004542 1617.56917042 -1485.31835175 1614.69655991 C-1488.83702165 1580.23514959 -1487.91011638 1544.67204633 -1483.70116425 1510.31765366 C-1483.55662811 1509.10077866 -1483.41209198 1507.88390366 -1483.26317596 1506.63015366 C-1476.58248525 1451.70496223 -1459.32044869 1399.69425944 -1434.70116425 1350.31765366 C-1434.01087128 1348.93102524 -1434.01087128 1348.93102524 -1433.306633 1347.51638412 C-1417.5354151 1316.07053 -1397.61828242 1286.49547934 -1374.31249237 1260.14675522 C-1371.66608654 1257.14268363 -1369.05680737 1254.10708449 -1366.45116425 1251.06765366 C-1365.95447235 1250.48902573 -1365.45778046 1249.9103978 -1364.94603729 1249.31423569 C-1361.91639093 1245.77301205 -1358.94806846 1242.18861692 -1356.01366425 1238.56765366 C-1352.4584852 1234.1861357 -1348.73346887 1230.00054684 -1344.93553925 1225.82937241 C-1342.69981892 1223.31614134 -1340.56738743 1220.74453886 -1338.45116425 1218.13015366 C-1333.23597909 1211.69053373 -1327.78784673 1205.46309962 -1322.34764862 1199.21413803 C-1319.76479016 1196.23910177 -1317.2005951 1193.24821306 -1314.63866425 1190.25515366 C-1314.14777313 1189.68176254 -1313.65688202 1189.10837143 -1313.15111542 1188.51760483 C-1312.16231221 1187.36234848 -1311.17362376 1186.2069939 -1310.18505096 1185.05154037 C-1308.19220953 1182.72295205 -1306.19752006 1180.39595104 -1304.20262909 1178.0691185 C-1303.20404242 1176.90426309 -1302.20566896 1175.73922487 -1301.2075119 1174.57400131 C-1298.67404147 1171.61676843 -1296.137588 1168.66218308 -1293.5956955 1165.71218491 C-1289.00509872 1160.37930043 -1284.44355026 1155.03579421 -1280.01366425 1149.56765366 C-1276.46371103 1145.19257618 -1272.74552604 1141.01216173 -1268.95116425 1136.84890366 C-1266.62254371 1134.22920556 -1264.40553477 1131.54250056 -1262.20116425 1128.81765366 C-1258.59083982 1124.35489152 -1254.81688496 1120.09045833 -1250.95116425 1115.84890366 C-1248.62254371 1113.22920556 -1246.40553477 1110.54250056 -1244.20116425 1107.81765366 C-1240.59083982 1103.35489152 -1236.81688496 1099.09045833 -1232.95116425 1094.84890366 C-1230.62254371 1092.22920556 -1228.40553477 1089.54250056 -1226.20116425 1086.81765366 C-1222.59083982 1082.35489152 -1218.81688496 1078.09045833 -1214.95116425 1073.84890366 C-1212.62254371 1071.22920556 -1210.40553477 1068.54250056 -1208.20116425 1065.81765366 C-1204.59083982 1061.35489152 -1200.81688496 1057.09045833 -1196.95116425 1052.84890366 C-1194.62254371 1050.22920556 -1192.40553477 1047.54250056 -1190.20116425 1044.81765366 C-1186.59083982 1040.35489152 -1182.81688496 1036.09045833 -1178.95116425 1031.84890366 C-1176.62254371 1029.22920556 -1174.40553477 1026.54250056 -1172.20116425 1023.81765366 C-1168.58967291 1019.35344908 -1164.8145573 1015.08763252 -1160.947258 1010.84499741 C-1158.63928827 1008.24802973 -1156.44560562 1005.58361353 -1154.26366425 1002.88015366 C-1150.40407822 998.10769163 -1146.32916434 993.58656257 -1142.1738205 989.07155991 C-1138.95406906 985.48558082 -1135.94211249 981.75063874 -1132.916008 978.00124741 C-1130.03635538 974.5121445 -1126.99422549 971.18768445 -1123.947258 967.84499741 C-1121.63928827 965.24802973 -1119.44560562 962.58361353 -1117.26366425 959.88015366 C-1113.40407822 955.10769163 -1109.32916434 950.58656257 -1105.1738205 946.07155991 C-1101.95406906 942.48558082 -1098.94211249 938.75063874 -1095.916008 935.00124741 C-1093.03635538 931.5121445 -1089.99422549 928.18768445 -1086.947258 924.84499741 C-1084.63928827 922.24802973 -1082.44560562 919.58361353 -1080.26366425 916.88015366 C-1076.40291288 912.10625066 -1072.32679349 907.58376938 -1068.16991425 903.06765366 C-1065.75738321 900.38027731 -1063.46860214 897.62799922 -1061.20116425 894.81765366 C-1057.36397394 890.06169947 -1053.30731324 885.56260565 -1049.16991425 881.06765366 C-1046.75738321 878.38027731 -1044.46860214 875.62799922 -1042.20116425 872.81765366 C-1038.36397394 868.06169947 -1034.30731324 863.56260565 -1030.16991425 859.06765366 C-1027.75738321 856.38027731 -1025.46860214 853.62799922 -1023.20116425 850.81765366 C-1019.36397394 846.06169947 -1015.30731324 841.56260565 -1011.16991425 837.06765366 C-1008.75738321 834.38027731 -1006.46860214 831.62799922 -1004.20116425 828.81765366 C-1000.36397394 824.06169947 -996.30731324 819.56260565 -992.16991425 815.06765366 C-989.75738321 812.38027731 -987.46860214 809.62799922 -985.20116425 806.81765366 C-981.36397394 802.06169947 -977.30731324 797.56260565 -973.16991425 793.06765366 C-970.75738321 790.38027731 -968.46860214 787.62799922 -966.20116425 784.81765366 C-962.3628101 780.06025697 -958.30494066 775.55981447 -954.166008 771.06374741 C-951.77409127 768.39890199 -949.50861541 765.6693354 -947.26366425 762.88015366 C-943.60610161 758.34529204 -939.75499397 754.06229183 -935.78954315 749.80056381 C-931.98717618 745.6898609 -928.45845833 741.39489782 -924.947258 737.03249741 C-921.81949245 733.25198079 -918.48842541 729.67284491 -915.166008 726.06374741 C-912.77409127 723.39890199 -910.50861541 720.6693354 -908.26366425 717.88015366 C-904.6054541 713.34448923 -900.75373459 709.06064196 -896.78734589 704.79836655 C-893.79689425 701.5657139 -890.96337417 698.25068599 -888.20116425 694.81765366 C-884.56552375 690.29907189 -880.73280023 686.03782036 -876.78490448 681.79592514 C-873.81400796 678.58466315 -871.00155348 675.29137551 -868.26366425 671.88015366 C-864.42070946 667.10224028 -860.33285095 662.62770382 -856.1450119 658.15603256 C-852.2220957 653.9433626 -848.582054 649.55351811 -844.978508 645.06374741 C-842.04038974 641.52087067 -838.91885247 638.16323594 -835.78466034 634.795681 C-832.81386358 631.58448492 -830.00148104 628.29128524 -827.26366425 624.88015366 C-823.42070946 620.10224028 -819.33285095 615.62770382 -815.1450119 611.15603256 C-811.2220957 606.9433626 -807.582054 602.55351811 -803.978508 598.06374741 C-801.03973089 594.52007621 -797.91754077 591.16162864 -794.78246307 587.79348373 C-791.83170078 584.60423447 -789.04116201 581.3339146 -786.32616425 577.94265366 C-782.27514701 572.90429172 -777.92892867 568.21460606 -773.50072479 563.51174545 C-769.45862232 559.19556208 -765.70528316 554.71270867 -762.009758 550.09499741 C-758.86314717 546.30948083 -755.50428759 542.74260204 -752.14012909 539.15114975 C-749.04321722 535.82593042 -746.10487433 532.43036295 -743.26366425 528.88015366 C-739.23605295 523.85843141 -734.90770568 519.19182605 -730.49828339 514.50930405 C-727.25553163 511.04686521 -724.16679644 507.5246939 -721.20116425 503.81765366 C-716.64074498 498.12133661 -711.68381761 492.844463 -706.697258 487.52468491 C-702.31999711 482.85372045 -698.14973535 478.02017825 -694.0019455 473.14577866 C-688.17517959 466.30739509 -682.25735824 459.58603848 -676.1581955 452.98952866 C-673.53586164 450.13789693 -670.98128106 447.23635294 -668.44335175 444.30984116 C-666.38616026 441.9574473 -664.2951951 439.637304 -662.20116425 437.31765366 C-659.51132994 434.33702645 -656.83806061 431.34520133 -654.20116425 428.31765366 C-650.80863331 424.42252555 -647.34922224 420.58982603 -643.88866425 416.75515366 C-641.97562275 414.62347885 -640.08228812 412.47746255 -638.20116425 410.31765366 C-634.80863331 406.42252555 -631.34922224 402.58982603 -627.88866425 398.75515366 C-625.97562275 396.62347885 -624.08228812 394.47746255 -622.20116425 392.31765366 C-617.32973221 386.72785377 -612.34221274 381.24230468 -607.37303925 375.73952866 C-603.99731403 371.99637756 -600.6297899 368.24968893 -597.32616425 364.44265366 C-593.87264863 360.47512642 -590.31112485 356.60917725 -586.74852753 352.74001694 C-584.19590662 349.96306683 -581.6714822 347.16802052 -579.20116425 344.31765366 C-575.79439075 340.38676116 -572.2711364 336.56568793 -568.74803925 332.73952866 C-566.19561281 329.96271308 -563.67133136 327.16784649 -561.20116425 324.31765366 C-557.83658552 320.43792412 -554.36527516 316.65907857 -550.88866425 312.88015366 C-547.97326468 309.70985577 -545.07733347 306.52370609 -542.20116425 303.31765366 C-536.61196641 297.09196354 -530.94592367 290.93712288 -525.28514862 284.77663803 C-523.88175143 283.24901205 -522.4787925 281.72098568 -521.07616425 280.19265366 C-520.61524384 279.69048325 -520.15432343 279.18831284 -519.67943573 278.67092514 C-516.89550823 275.63350825 -514.13508755 272.57647731 -511.38866425 269.50515366 C-507.01118428 264.62739027 -502.5412808 259.83938825 -498.06298065 255.05447006 C-494.27964587 251.01168345 -490.51323623 246.95425669 -486.76366425 242.88015366 C-482.15838263 237.88251827 -477.53087536 232.90600599 -472.88866425 227.94265366 C-472.27837372 227.288535 -471.66808319 226.63441635 -471.03929901 225.96047592 C-468.13973902 222.86532478 -465.21158407 219.81691666 -462.1894455 216.84109116 C-459.89922441 214.57147375 -457.75016365 212.24512567 -455.66454315 209.78713608 C-450.95578517 204.37795582 -445.87269262 199.34472333 -440.7988205 194.28249741 C-439.75167288 193.2346742 -438.70467359 192.18670276 -437.65781403 191.13859177 C-435.47507098 188.95438377 -433.290554 186.77197034 -431.1047287 184.59084702 C-428.32330001 181.81511485 -425.54638648 179.03491583 -422.77079868 176.25334454 C-420.61315404 174.09206162 -418.45310278 171.93319651 -416.29234886 169.77502251 C-415.26830654 168.75164045 -414.2449875 167.72753405 -413.22245216 166.70264626 C-407.55714351 161.02716222 -401.82041638 155.50566819 -395.70116425 150.31765366 C-394.60645958 149.36823246 -393.5125587 148.41788263 -392.41991425 147.46609116 C-360.67331015 120.0479025 -326.44775099 95.61520694 -289.70116425 75.31765366 C-288.59466522 74.70341537 -287.4881662 74.08917709 -286.3481369 73.45632553 C-245.21956154 50.68821211 -201.21156059 32.29616132 -155.70116425 20.31765366 C-154.12697723 19.89854721 -154.12697723 19.89854721 -152.52098846 19.47097397 C-135.37831273 14.93749635 -118.17984087 11.29015999 -100.70116425 8.31765366 C-99.72083221 8.14959213 -98.74050018 7.98153061 -97.73046112 7.80837631 C-90.23546949 6.53906321 -82.72653609 5.39150828 -75.20116425 4.31765366 C-74.10675018 4.15265366 -73.01233612 3.98765366 -71.884758 3.81765366 C-48.03870189 0.4374818 -24.03927099 -0.05912908 0 0 Z " fill="#000000" transform="translate(1768.7011642456055,521.6823463439941)"/>
<path d="M0 0 C0.85013672 0.10183594 1.70027344 0.20367188 2.57617188 0.30859375 C16.84521035 2.09084836 30.94567562 4.9959532 45 8 C45.93021973 8.19851563 46.86043945 8.39703125 47.81884766 8.6015625 C61.20719998 11.50628548 74.11839909 15.3454719 87 20 C87.9909668 20.35690918 88.98193359 20.71381836 90.00292969 21.08154297 C140.08614664 39.30718526 185.03401513 65.8390629 225 101 C225.92683594 101.81339844 226.85367188 102.62679687 227.80859375 103.46484375 C234.64019082 109.5987458 241.16872378 116.03686702 247.6875 122.5 C249.00633179 123.79925415 249.00633179 123.79925415 250.35180664 125.12475586 C255.58877497 130.35483279 260.40602295 135.76761759 265.0324707 141.54443359 C266.59593919 143.49571366 268.18184426 145.40430901 269.828125 147.28515625 C277.5041491 156.0878226 284.31875779 165.42706966 291 175 C291.66298096 175.94697754 291.66298096 175.94697754 292.33935547 176.91308594 C333 235.37169319 333 235.37169319 333 254 C313.86 254 294.72 254 275 254 C271.04 246.74 267.08 239.48 263 232 C240.66708156 194.18630855 212.60603707 159.29058367 178 132 C177.35579102 131.48324707 176.71158203 130.96649414 176.04785156 130.43408203 C165.43389311 121.92105586 154.60487326 114.10441362 143 107 C142.33210449 106.58830566 141.66420898 106.17661133 140.97607422 105.75244141 C120.22878758 93.03408773 98.71663164 82.70564586 76 74 C75.13375 73.66129883 74.2675 73.32259766 73.375 72.97363281 C40.82506439 60.33147032 3.88793664 52.98892099 -31.01171875 52.76171875 C-32.24642914 52.75201553 -33.48113953 52.74231232 -34.75326538 52.73231506 C-38.7313512 52.70745456 -42.70935192 52.69414879 -46.6875 52.6875 C-47.3624992 52.68605484 -48.0374984 52.68460968 -48.73295212 52.68312073 C-69.09160573 52.64783769 -88.9441182 53.11711577 -109 57 C-109.88526367 57.16016602 -110.77052734 57.32033203 -111.68261719 57.48535156 C-116.36834982 58.33779655 -121.0043667 59.32055158 -125.63427734 60.43603516 C-128.21530123 61.05132568 -130.80419693 61.62444986 -133.39453125 62.19921875 C-158.97728134 68.05060397 -183.50096156 77.37964216 -207 89 C-207.89332031 89.43779785 -208.78664063 89.8755957 -209.70703125 90.32666016 C-238.99885928 104.79566525 -265.38710412 123.74432517 -289.48828125 145.7109375 C-291.24513467 147.31205119 -293.01446151 148.8995365 -294.79296875 150.4765625 C-306.53941235 160.99715531 -317.35656247 172.51560937 -327 185 C-327.8055835 186.03737305 -327.8055835 186.03737305 -328.62744141 187.09570312 C-342.32383839 204.81213952 -354.54613812 223.19116645 -365 243 C-365.42990234 243.80002441 -365.85980469 244.60004883 -366.30273438 245.42431641 C-389.38286264 288.57741753 -402.93139326 337.83751109 -405.625 386.6875 C-405.66512207 387.41050293 -405.70524414 388.13350586 -405.74658203 388.87841797 C-405.97663158 393.69019858 -406.01595551 398.49061904 -406.00927734 403.30786133 C-406.00793793 404.56278885 -406.00659851 405.81771637 -406.00521851 407.110672 C-406.00263535 408.54088936 -406.00263535 408.54088936 -406 410 C-405.29326479 409.29155605 -405.29326479 409.29155605 -404.57225209 408.56880009 C-376.61443403 380.54377007 -348.64873008 352.52663117 -320.67283847 324.51964248 C-317.30974847 321.15280061 -313.94672408 317.78589322 -310.58374023 314.41894531 C-309.91426195 313.74868009 -309.24478366 313.07841487 -308.55501815 312.38783859 C-297.73139992 301.55118539 -286.91309786 290.70924005 -276.09676955 279.86531116 C-264.98862142 268.72905563 -253.87473671 257.59854919 -242.75556535 246.47329986 C-235.90098076 239.61460989 -229.05084819 232.7515358 -222.20643988 225.88269047 C-217.50523025 221.16555774 -212.798433 216.45404745 -208.08731488 211.74681075 C-205.3740919 209.03549912 -202.66329318 206.32188144 -199.95913887 203.60152245 C-175.14397411 178.64504891 -175.14397411 178.64504891 -159.6875 169.8125 C-158.97730713 169.40233643 -158.26711426 168.99217285 -157.53540039 168.56958008 C-134.98037429 155.80394922 -110.99055288 149.49918634 -85.13330078 149.61181641 C-83.52617032 149.6077365 -81.91904266 149.60238677 -80.31192017 149.59588623 C-76.00179938 149.58237301 -71.6918974 149.58744465 -67.38177347 149.59702349 C-62.83433418 149.60470679 -58.28691159 149.59755049 -53.73947144 149.59286499 C-46.10574031 149.58743125 -38.4720967 149.5945349 -30.83837891 149.60888672 C-22.06272356 149.62519686 -13.28727757 149.61992693 -4.51162732 149.6034075 C3.07368102 149.58971019 10.65892701 149.58791326 18.24424374 149.59572351 C22.75226901 149.60035659 27.26019653 149.60114755 31.76821518 149.59111404 C75.34139654 149.50735902 75.34139654 149.50735902 94.5 156.5625 C95.45720947 156.90764648 96.41441895 157.25279297 97.40063477 157.60839844 C113.55909848 163.63218161 127.75643759 171.98965189 141 183 C141.57975586 183.48194824 142.15951172 183.96389648 142.75683594 184.46044922 C170.43447839 207.87938279 188.42700682 242.97655218 192 279 C193.62733058 305.33043423 189.94699106 328.99233374 179 353 C178.52175781 354.07378906 178.04351563 355.14757813 177.55078125 356.25390625 C167.9216216 376.74792884 152.49882454 395.80872411 134 409 C133.34 409 132.68 409 132 409 C132 409.66 132 410.32 132 411 C132.84884766 411.38865234 132.84884766 411.38865234 133.71484375 411.78515625 C158.37081561 424.89286095 177.16678329 456.10711055 185.31640625 482.0078125 C186.27124421 485.32684335 187.15157894 488.65251689 188 492 C188.51046875 493.71703125 188.51046875 493.71703125 189.03125 495.46875 C198.62623306 530.44401082 189.55587132 569.02830562 172.31640625 600.02734375 C157.87646986 623.60911037 137.60004449 642.44484629 113 655 C112.40703125 655.30389648 111.8140625 655.60779297 111.203125 655.92089844 C99.4194587 661.81902628 86.85116447 665.24148942 74 668 C73.26729134 668.16322785 72.53458267 668.32645571 71.77967072 668.49462986 C64.1658724 670.05261901 56.83720899 670.27162452 49.08325195 670.22705078 C47.7220409 670.22648525 46.36082923 670.22680598 44.99961853 670.22793579 C41.33917485 670.22850479 37.67886481 670.21682469 34.01845193 670.20278788 C30.1801296 670.19020421 26.34180352 670.18910404 22.50346375 670.18673706 C15.25061074 670.18054457 7.99781871 670.16416426 0.74499243 670.14403808 C-9.06676181 670.11740759 -18.87853297 670.10668839 -28.69031429 670.09503365 C-44.12692179 670.07628182 -59.56340065 670.03642139 -75 670 C-75 631.72 -75 593.44 -75 554 C-79.29 553.34 -83.58 552.68 -88 552 C-91.15073282 551.08944339 -94.08628654 550.1706103 -97.125 549 C-97.91994873 548.69876221 -98.71489746 548.39752441 -99.53393555 548.0871582 C-119.99376449 540.07082802 -137.46928455 528.44630938 -153 513 C-153.48597656 512.51805176 -153.97195313 512.03610352 -154.47265625 511.53955078 C-162.17017946 503.79745745 -168.38428521 495.34922734 -174 486 C-174.63252686 484.95078369 -174.63252686 484.95078369 -175.27783203 483.88037109 C-183.21929043 470.43797068 -192.24443527 452.89658526 -192 437 C-212.93248718 436.16447351 -233.85974207 435.57705989 -254.80683804 435.26685238 C-264.53956046 435.11723152 -274.25872469 434.89232132 -283.98413086 434.47973633 C-332.8035838 430.63733291 -332.8035838 430.63733291 -375.63181019 449.73331928 C-390.89898766 463.42950638 -390.89898766 463.42950638 -399.15742302 481.24445915 C-398.92961102 483.64085082 -398.92961102 483.64085082 -398 487 C-397.74863281 488.25296875 -397.49726562 489.5059375 -397.23828125 490.796875 C-384.03121912 548.50393332 -356.50700421 602.84334381 -317 647 C-316.00516602 648.12402222 -316.00516602 648.12402222 -314.99023438 649.27075195 C-309.54578433 655.38502205 -303.91644225 661.27664364 -298.125 667.0625 C-297.24585938 667.94083496 -296.36671875 668.81916992 -295.4609375 669.72412109 C-289.56030079 675.56911201 -283.56431251 680.91291788 -277 686 C-275.18556464 687.56025217 -273.37320007 689.12291451 -271.5625 690.6875 C-214.87280734 737.78355237 -136.69034237 767.86764525 -62.75390625 768.203125 C-61.71312424 768.21018463 -60.67234222 768.21724426 -59.60002136 768.22451782 C-27.18449844 768.44299121 -27.18449844 768.44299121 5 765 C6.20285645 764.80664062 7.40571289 764.61328125 8.64501953 764.4140625 C62.34337977 755.53626241 114.85276121 735.10708276 159 703 C159.83265381 702.39478516 159.83265381 702.39478516 160.68212891 701.77734375 C167.60806757 696.71294697 174.3692023 691.44392415 181 686 C181.95390625 685.23300781 182.9078125 684.46601562 183.890625 683.67578125 C192.1515106 676.9032628 199.74820662 669.4667802 207.3125 661.9375 C208.08004608 661.17771851 208.08004608 661.17771851 208.86309814 660.40258789 C215.7140446 653.60630836 222.00162549 646.57511583 228 639 C229.01266668 637.76839494 230.02791049 636.53889967 231.046875 635.3125 C247.89403994 614.77468442 261.00427648 592.10350849 274 569 C293.14 569 312.28 569 332 569 C330.63816074 573.08551778 329.33126799 576.62726497 327.49609375 580.45703125 C327.00761963 581.47829102 326.51914551 582.49955078 326.01586914 583.55175781 C325.49500732 584.62780273 324.97414551 585.70384766 324.4375 586.8125 C323.89665771 587.93108398 323.35581543 589.04966797 322.79858398 590.20214844 C311.48060878 613.49115556 298.55648045 635.26483565 283 656 C282.5555957 656.59748047 282.11119141 657.19496094 281.65332031 657.81054688 C275.14969922 666.53869631 268.19271758 674.83529356 261 683 C260.1853125 683.928125 259.370625 684.85625 258.53125 685.8125 C252.34843617 692.69968503 245.84387137 699.25738025 239.3125 705.8125 C238.42119385 706.708479 237.5298877 707.60445801 236.61157227 708.52758789 C231.56847025 713.55848696 226.43941911 718.40084469 221 723 C220.36521729 723.54148682 219.73043457 724.08297363 219.07641602 724.64086914 C197.6332517 742.82486642 174.54945774 758.33544956 150 772 C149.19643066 772.44843262 148.39286133 772.89686523 147.56494141 773.35888672 C67.45251737 817.66723198 -28.94113761 832.35954887 -161.4520874 807.30285645 C-186.78997877 799.84914485 -211.64236421 790.33507961 -235.03222656 778.02880859 C-237.1865748 776.90245333 -239.35420242 775.8044251 -241.5234375 774.70703125 C-265.79566263 762.32390488 -288.42548969 746.8862892 -309.30566406 729.40625 C-311.65100502 727.45968459 -314.04918195 725.58094134 -316.4375 723.6875 C-330.11075869 712.48903926 -343.54913267 699.78777262 -355.01171875 686.328125 C-356.62045463 684.44441855 -358.24938545 682.58601786 -359.89453125 680.734375 C-377.01984483 661.37577545 -391.64251102 640.12219295 -404.84667969 617.92773438 C-405.83213493 616.28058057 -406.83964168 614.64665349 -407.8515625 613.015625 C-421.52523776 590.59338974 -444 552.13749205 -444 525 C-450.82358925 530.49813177 -456.61583601 536.87186218 -462.46733093 543.35749435 C-475.41824137 557.70046053 -488.64015891 571.77886148 -501.96773243 585.77151394 C-509.64771136 593.84593073 -517.2436795 601.97560811 -524.67602539 610.27905273 C-533.3040373 619.89788689 -542.10347533 629.32476482 -551.20703125 638.49609375 C-551.94131175 639.23592609 -552.67559224 639.97575843 -553.43212366 640.73800993 C-573.46636449 660.71570123 -590.84045697 672.41853629 -619.76042175 672.60011292 C-634.31264959 672.39395232 -648.71750811 670.74963254 -663 668 C-658.51336095 662.614352 -653.75526808 657.64436141 -648.7616272 652.72885132 C-647.94795728 651.92349933 -647.13428736 651.11814735 -646.29596078 650.28839076 C-644.51994844 648.53114704 -642.7427246 646.77512711 -640.96443558 645.02018738 C-638.07004142 642.16377308 -635.17864746 639.30435433 -632.28826904 636.44387817 C-631.27432068 635.44049247 -630.26036476 634.43711441 -629.24640155 633.43374372 C-628.73558161 632.92825935 -628.22476167 632.42277499 -627.69846234 631.90197292 C-626.11319567 630.33354915 -624.52756925 628.7654899 -622.94184422 627.19752955 C-615.22174079 619.56336308 -607.51250618 611.9183328 -599.80966187 604.26675415 C-599.25162733 603.71246476 -598.6935928 603.15817538 -598.11864813 602.58708934 C-592.94075981 597.44383033 -587.76355044 592.29988812 -582.58665204 587.15563273 C-579.04237268 583.63379623 -575.49769158 580.11236448 -571.95263672 576.59130859 C-571.06951365 575.71414883 -571.06951365 575.71414883 -570.1685497 574.81926866 C-560.6216169 565.33810228 -551.05341161 555.87867241 -541.47771616 546.426567 C-531.63595966 536.71077028 -521.81912252 526.97029922 -512.02450311 517.20698321 C-505.98772207 511.19111962 -499.93219568 505.1954924 -493.85098176 499.22454233 C-489.68546027 495.13095006 -485.54427504 491.01374641 -481.42130215 486.87730686 C-479.04314561 484.4928161 -476.6532299 482.12466054 -474.23958206 479.77579498 C-471.6207736 477.22400312 -469.04525475 474.63505583 -466.47647095 472.03305054 C-465.7101559 471.30528455 -464.94384086 470.57751857 -464.15430415 469.82769907 C-459.90756204 465.42454261 -458.54811766 462.49942713 -458.50226402 456.31304359 C-458.62572842 454.20577919 -458.7907517 452.10048134 -459 450 C-459.08496345 448.93438918 -459.1699269 447.86877835 -459.257465 446.77087629 C-459.41535498 444.83872438 -459.58484727 442.90749632 -459.76403809 440.97720337 C-460.16820692 435.87768199 -460.18196311 430.78121257 -460.203125 425.66796875 C-460.21022995 424.52586945 -460.2173349 423.38377014 -460.22465515 422.20706177 C-460.64788036 334.11570331 -440.02513494 250.14079434 -389 177 C-388.5659082 176.37303223 -388.13181641 175.74606445 -387.68457031 175.10009766 C-369.0079835 148.19059575 -346.98893018 122.25145541 -322 101 C-320.56333984 99.72962891 -320.56333984 99.72962891 -319.09765625 98.43359375 C-267.41894627 52.93428187 -203.21884868 20.64067812 -135.83251953 6.59960938 C-133.30432868 6.06442262 -130.79139473 5.4880019 -128.27734375 4.890625 C-87.19056037 -4.57108443 -41.70275804 -5.0757677 0 0 Z " fill="#FDF000" transform="translate(1820,791)"/>
<path d="M0 0 C0.79083984 0.29245605 1.58167969 0.58491211 2.39648438 0.88623047 C35.45472443 13.26668555 64.66158231 31.38231953 90 56 C90.60440918 56.57862793 91.20881836 57.15725586 91.83154297 57.75341797 C100.71831634 66.27755841 108.70529214 75.08143752 116 85 C116.63929443 85.85609863 116.63929443 85.85609863 117.29150391 86.72949219 C123.80660208 95.47052061 129.62551042 104.5177509 135 114 C135.39687012 114.69125977 135.79374023 115.38251953 136.20263672 116.09472656 C169.09274296 173.89051025 174.22986411 242.5602909 157.41015625 306.23291016 C152.59615198 323.54257551 145.44092429 340.17076549 137 356 C136.65888184 356.64888184 136.31776367 357.29776367 135.96630859 357.96630859 C127.483395 374.01154013 117.00905691 388.42375206 105 402 C104.26394531 402.84691406 103.52789063 403.69382812 102.76953125 404.56640625 C93.34165247 415.26507379 83.33582152 425.32338594 72 434 C71.46213867 434.41427246 70.92427734 434.82854492 70.37011719 435.25537109 C48.8130552 451.76859413 25.50456756 464.62503338 0 474 C-1.08796875 474.41507813 -2.1759375 474.83015625 -3.296875 475.2578125 C-15.85128553 479.77399185 -28.92930185 482.44419114 -42 485 C-42.93779297 485.18369141 -43.87558594 485.36738281 -44.84179688 485.55664062 C-72.96433916 490.77375675 -103.0565472 489.42685402 -131 484 C-132.6754372 483.70636341 -134.35120059 483.41457962 -136.02734375 483.125 C-178.7066563 475.37034104 -218.83297589 453.68868575 -251 425 C-251.80147461 424.29109619 -251.80147461 424.29109619 -252.61914062 423.56787109 C-295.60667573 385.38647499 -325.33849025 331.1259324 -333 274 C-333.08506805 273.36828888 -333.17013611 272.73657776 -333.25778198 272.08572388 C-334.7789244 260.51427864 -335.36942553 249.10322163 -335.3125 237.4375 C-335.31001251 236.61306396 -335.30752502 235.78862793 -335.30496216 234.93920898 C-335.05014509 179.96226136 -317.35240868 126.2236351 -283 83 C-282.29617188 82.10410156 -281.59234375 81.20820312 -280.8671875 80.28515625 C-274.92639849 72.86449328 -268.53599531 65.8941641 -262 59 C-260.93265625 57.86884766 -260.93265625 57.86884766 -259.84375 56.71484375 C-254.61645606 51.32687479 -248.85789243 46.68134261 -243 42 C-242.24332031 41.36449219 -241.48664063 40.72898437 -240.70703125 40.07421875 C-216.36566964 19.83862897 -187.09982173 5.38352876 -157 -4 C-155.70449219 -4.40412109 -155.70449219 -4.40412109 -154.3828125 -4.81640625 C-104.97361404 -19.8130398 -48.30512862 -17.93270789 0 0 Z " fill="#FEF100" transform="translate(1327,1855)"/>
<path d="M0 0 C34.98 0 69.96 0 106 0 C106.01458252 8.69593506 106.02916504 17.39187012 106.04418945 26.35131836 C106.09301869 54.22249556 106.15644762 82.0936226 106.22898628 109.96474778 C106.24025351 114.299008 106.25139211 118.63326854 106.26245117 122.9675293 C106.26465486 123.8303483 106.26685854 124.69316731 106.269129 125.58213235 C106.30443458 139.5254025 106.32933668 153.4686726 106.35034702 167.41197079 C106.3721629 181.73499564 106.4052679 196.05796283 106.44870156 210.38093859 C106.47511891 219.20833643 106.49288715 228.03566254 106.49934604 236.86309791 C106.50463044 242.92868342 106.52094876 248.9941789 106.54566566 255.05971604 C106.559577 258.5514003 106.56889084 262.0429238 106.56500816 265.53463745 C106.55078847 297.97297204 112.32049844 325.95970235 134 351 C134.43763672 351.5062793 134.87527344 352.01255859 135.32617188 352.53417969 C150.97397047 370.21460233 172.15688946 381.0155932 195 386 C196.546875 386.33837891 196.546875 386.33837891 198.125 386.68359375 C226.3815679 391.90961715 255.9766908 384.71897293 279.75488281 368.82714844 C297.92758433 356.05574902 309.89449945 339.98876813 319 320 C319.63228516 318.64261719 319.63228516 318.64261719 320.27734375 317.2578125 C325.92528548 304.25689003 327.14573719 290.10641728 327.15821838 276.10437012 C327.16562535 274.3300224 327.16562535 274.3300224 327.17318195 272.51982927 C327.18584067 269.25424892 327.19415839 265.98869142 327.20060861 262.72309399 C327.20864743 259.19490038 327.2223331 255.66672804 327.23532104 252.1385498 C327.25703461 246.03161794 327.2751977 239.92468387 327.29092598 233.81773376 C327.31367139 224.98818931 327.34180765 216.15866844 327.37124526 207.32914406 C327.41886402 193.00264294 327.46214363 178.67613214 327.50268555 164.34960938 C327.5420696 150.43553922 327.58350277 136.52147765 327.62768555 122.60742188 C327.63177196 121.32019247 327.63177196 121.32019247 327.63594092 120.00695843 C327.64962088 115.70171087 327.66334105 111.39646345 327.67708123 107.09121609 C327.79095618 71.39416092 327.89698431 35.69708848 328 0 C362.65 0 397.3 0 433 0 C433.04415845 37.25784487 433.08106074 74.51566489 433.10213066 111.77352848 C433.10463183 116.18031786 433.1072205 120.58710718 433.10986328 124.99389648 C433.11065021 126.30976767 433.11065021 126.30976767 433.11145304 127.65222212 C433.1201363 141.82372084 433.13589472 155.9952032 433.15430559 170.16669223 C433.17306268 184.72699274 433.18412896 199.28728473 433.18817699 213.84759682 C433.19091004 222.81933212 433.19951637 231.79102115 433.21583293 240.76274218 C433.22647166 246.92968725 433.22958518 253.09660868 433.22700275 259.26356224 C433.22573208 262.81218963 433.22756586 266.36073665 433.23841095 269.90934944 C433.34514828 306.66828308 433.34514828 306.66828308 428.875 324.1875 C428.66109619 325.0444043 428.44719238 325.90130859 428.22680664 326.78417969 C418.01009712 366.39577109 399.24460713 400.55477195 371 430 C370.21753906 430.82371094 369.43507813 431.64742187 368.62890625 432.49609375 C363.12802006 438.15386796 357.22426026 443.15624875 351 448 C350.46697266 448.42007324 349.93394531 448.84014648 349.38476562 449.27294922 C311.95953321 478.58068785 264.8098376 494.54885264 217.375 494.3125 C216.59008179 494.31034485 215.80516357 494.3081897 214.99645996 494.30596924 C155.35472887 494.04439596 101.19259119 468.67383629 59.40844727 426.71289062 C53.39940084 420.54105496 48.06079732 413.96286893 43 407 C42.60087402 406.45102051 42.20174805 405.90204102 41.79052734 405.33642578 C39.10815018 401.61292819 36.53773606 397.8230829 34 394 C33.35675781 393.05640625 32.71351563 392.1128125 32.05078125 391.140625 C16.26868715 366.93927989 6.15705787 337.70102993 2.41744804 309.13709164 C2.13260231 306.9964967 1.82471736 304.85887272 1.4968586 302.72444248 C-0.36456933 289.36445284 -0.27404158 276.06230653 -0.23213124 262.5939604 C-0.22338624 259.05980276 -0.2264246 255.52565103 -0.22793579 251.9914856 C-0.22897775 245.88796149 -0.22277388 239.78448058 -0.21146011 233.68096733 C-0.19511367 224.85662995 -0.18998782 216.03231316 -0.18748413 207.20796228 C-0.18312127 192.88643246 -0.16985067 178.56492559 -0.15087891 164.2434082 C-0.13248345 150.34236769 -0.11834495 136.44133345 -0.10986328 122.5402832 C-0.10933783 121.68150778 -0.10881239 120.82273236 -0.10827102 119.93793344 C-0.10566069 115.62913767 -0.10313334 111.32034186 -0.10064721 107.01154602 C-0.07995864 71.34101028 -0.04311278 35.67051706 0 0 Z " fill="#FEF100" transform="translate(2092,1849)"/>
<path d="M0 0 C0.71800781 0.06413086 1.43601562 0.12826172 2.17578125 0.19433594 C24.65803244 2.25404529 46.76311107 8.61817284 68 16 C68.74604492 16.25217285 69.49208984 16.5043457 70.26074219 16.76416016 C113.75388771 31.50777542 113.75388771 31.50777542 119 42 C118.29760742 44.34277344 118.29760742 44.34277344 117.10546875 47.359375 C116.65292725 48.51630859 116.20038574 49.67324219 115.73413086 50.86523438 C115.21870612 52.16020357 114.70315847 53.45512385 114.1875 54.75 C113.65755115 56.09671686 113.128356 57.4437305 112.59985352 58.79101562 C111.41465723 61.80940961 110.22507728 64.82603387 109.03320312 67.84179688 C106.77171335 73.57056951 104.53410158 79.30859266 102.296875 85.046875 C100.67740181 89.19804098 99.05757935 93.34907056 97.4375 97.5 C97.04114349 98.51557983 96.64478699 99.53115967 96.23641968 100.57751465 C95.09509116 103.50009554 93.95209492 106.42201861 92.80859375 109.34375 C92.46838196 110.21553894 92.12817017 111.08732788 91.77764893 111.98553467 C89.9325449 116.69512892 88.02037471 121.36279251 86 126 C82.12734237 124.59453846 78.62511701 122.75070454 75.02490234 120.77636719 C63.06202167 114.24388963 50.68100345 108.96973389 38 104 C37.21351074 103.69046387 36.42702148 103.38092773 35.61669922 103.06201172 C-5.62576322 87.05761174 -58.41137712 81.16502218 -100.09375 98.26953125 C-112.48114164 103.94708575 -123.47701027 113.76030568 -128.375 126.6875 C-129.59479275 130.46155961 -130.67624054 134.03394665 -131 138 C-131.07476563 138.84820313 -131.14953125 139.69640625 -131.2265625 140.5703125 C-131.7721063 151.56732705 -128.21554692 161.62348559 -121.04296875 170.01953125 C-114.86695381 176.00660501 -107.18056353 179.53909879 -99.4375 183.0625 C-98.77322998 183.36679932 -98.10895996 183.67109863 -97.42456055 183.98461914 C-83.93189163 189.8863969 -69.62280542 193.82809935 -55.39550781 197.50537109 C-52.99871945 198.12533123 -50.60473189 198.75530787 -48.2109375 199.38671875 C-39.5797475 201.64799757 -30.9311954 203.75364579 -22.20239258 205.60623169 C-15.14661153 207.12039004 -8.28551669 209.17797226 -1.38769531 211.28808594 C1.52446844 212.15637525 4.44962541 212.9741925 7.375 213.796875 C50.48354538 226.08401844 50.48354538 226.08401844 70 236 C70.99257812 236.4846875 71.98515625 236.969375 73.0078125 237.46875 C100.62013854 251.6289172 123.38936141 275.97469732 133.56640625 305.36328125 C144.81932444 340.34437388 140.75953561 379.68276086 124.1706543 412.17944336 C118.82910004 422.29333897 112.87130311 431.55996321 104.9765625 439.90234375 C102.85141601 442.09050731 102.85141601 442.09050731 100.625 445.0625 C72.2001377 476.87127448 24.82883446 492.02094618 -16 497 C-17.03459351 497.12760208 -17.03459351 497.12760208 -18.09008789 497.25778198 C-31.57668285 498.88061516 -44.92363101 499.36157547 -58.5 499.3125 C-59.99954727 499.31076279 -59.99954727 499.31076279 -61.52938843 499.30899048 C-77.8710918 499.27170705 -93.82554907 498.47737847 -110 496 C-110.79390137 495.88253418 -111.58780273 495.76506836 -112.40576172 495.64404297 C-116.55335967 495.01600687 -120.66657737 494.27557343 -124.77783203 493.44335938 C-127.28388355 492.94336052 -129.79582832 492.48067147 -132.30859375 492.015625 C-168.95502647 485.03048008 -202.87774927 471.77924954 -235 453 C-234.4346251 438.58018214 -232.5032241 424.3592708 -230.625 410.0625 C-230.01110668 405.34529969 -229.40004832 400.6277339 -228.7890625 395.91015625 C-228.63906799 394.75657623 -228.48907349 393.60299622 -228.33453369 392.41445923 C-227.15522087 383.30851943 -226.0437244 374.19541301 -224.97012329 365.07643127 C-224.37548201 360.04003983 -223.74591149 355.01632032 -223 350 C-219.34751035 351.02726271 -217.05937466 352.7214665 -214.31640625 355.234375 C-182.97719763 383.07281345 -138.55163797 397.79006771 -98 405 C-97.09411133 405.16516113 -96.18822266 405.33032227 -95.25488281 405.50048828 C-70.99075869 409.76811433 -44.14807267 410.209011 -20 405 C-19.21786133 404.83371094 -18.43572266 404.66742187 -17.62988281 404.49609375 C-2.26008609 401.07917723 13.76374883 395.00360079 23.1875 381.75 C24.15086605 380.18227026 25.08905026 378.59875616 26 377 C26.41636719 376.30777344 26.83273437 375.61554687 27.26171875 374.90234375 C30.18562903 369.08530119 30.41216444 363.33017212 30.5 356.9375 C30.51853027 356.09856201 30.53706055 355.25962402 30.55615234 354.39526367 C30.46195926 344.96579683 26.46312234 336.80328668 20 330 C-7.50690374 305.5110951 -50.47648007 299.78625535 -85.27368164 291.19140625 C-129.05077022 280.32981449 -173.69709194 268.39232199 -206.5625 235.875 C-207.66911987 234.78372803 -207.66911987 234.78372803 -208.7980957 233.67041016 C-232.73296019 209.34567374 -239.53148434 176.97209331 -239.35375977 143.92553711 C-239.18223663 134.29643579 -238.36753562 125.3251913 -236 116 C-235.84966309 115.34950684 -235.69932617 114.69901367 -235.54443359 114.02880859 C-230.02970259 90.37215875 -217.68663912 69.43157837 -201 52 C-200.34 51.27683594 -199.68 50.55367187 -199 49.80859375 C-149.5802914 -2.51265077 -66.76698517 -6.52736399 0 0 Z " fill="#FEF100" transform="translate(2889,1844)"/>
<path d="M0 0 C130.35 0 260.7 0 395 0 C396.98 16.5 398.96 33 401 50 C402.23694144 59.76572906 403.48360972 69.52914241 404.76611328 79.28881836 C405.14618069 82.18830407 405.52249649 85.08825812 405.8984375 87.98828125 C406.01085785 88.83368973 406.1232782 89.67909821 406.23910522 90.55012512 C406.33986359 91.32933823 406.44062195 92.10855133 406.54443359 92.91137695 C406.63292572 93.5844136 406.72141785 94.25745026 406.81259155 94.95088196 C407.02667365 97.29164885 407 99.64946372 407 102 C355.19 102 303.38 102 250 102 C250 229.05 250 356.1 250 487 C215.02 487 180.04 487 144 487 C144 359.95 144 232.9 144 102 C92.52 102 41.04 102 -12 102 C-10.85244 81.34392007 -10.85244 81.34392007 -9.4765625 71.16015625 C-9.32972015 70.02887802 -9.18287781 68.89759979 -9.03158569 67.73204041 C-8.56889981 64.17468541 -8.09754951 60.61855685 -7.625 57.0625 C-7.00945897 52.38718018 -6.39818988 47.71131571 -5.7890625 43.03515625 C-5.63906799 41.89019684 -5.48907349 40.74523743 -5.33453369 39.56558228 C-4.07468915 29.84123716 -2.9829312 20.10146445 -1.97012329 10.34840393 C-1.856716 9.28137741 -1.74330872 8.21435089 -1.62646484 7.11499023 C-1.48040298 5.7018882 -1.48040298 5.7018882 -1.33139038 4.26023865 C-1 2 -1 2 0 0 Z " fill="#FEF100" transform="translate(1575,1849)"/>
<path d="M0 0 C34.98 0 69.96 0 106 0 C106 126.72 106 253.44 106 384 C192.13 384 278.26 384 367 384 C362.40988471 427.60609529 362.40988471 427.60609529 359.875 446.75 C359.49294361 449.66176993 359.11232984 452.57371862 358.73342896 455.48590088 C358.50392886 457.24735856 358.27266081 459.00858779 358.03878784 460.76947021 C356.89434442 469.50237768 355.97339123 478.23947893 355 487 C237.85 487 120.7 487 0 487 C0 326.29 0 165.58 0 0 Z " fill="#FDF000" transform="translate(573,1849)"/>
<path d="M0 0 C0.78681152 0.21430664 1.57362305 0.42861328 2.38427734 0.64941406 C33.93585977 9.32499426 63.30091588 28.08852812 82.9375 54.5625 C83.45473633 55.25867432 83.97197266 55.95484863 84.50488281 56.67211914 C89.24397726 63.15925231 93.31177188 69.85620344 97 77 C97.33483398 77.63454102 97.66966797 78.26908203 98.01464844 78.92285156 C109.10913509 100.16384526 113.43350239 122.20422336 113.375 146 C113.37412384 146.86783112 113.37324768 147.73566223 113.37234497 148.62979126 C113.3294854 161.48276897 112.81554798 173.63806564 109 186 C108.76925781 186.79212891 108.53851562 187.58425781 108.30078125 188.40039062 C103.02289489 206.2027851 94.74398144 223.54405497 83 238 C82.31679687 238.88300781 81.63359375 239.76601562 80.9296875 240.67578125 C66.89080212 258.46340125 50.06003544 271.6180047 30 282 C28.99324219 282.54140625 27.98648437 283.0828125 26.94921875 283.640625 C19.86416556 287.20661204 12.52905187 289.50534893 4.9375 291.75 C3.94427734 292.04406738 2.95105469 292.33813477 1.92773438 292.64111328 C-9.97153967 296.02773923 -21.32713995 297.33174549 -33.66259766 297.26074219 C-35.86519097 297.25004763 -38.06696292 297.26068605 -40.26953125 297.2734375 C-52.48057249 297.28658997 -64.35747645 296.03544911 -76.1875 292.875 C-77.37315552 292.55849487 -77.37315552 292.55849487 -78.58276367 292.2355957 C-116.65013825 281.56921134 -149.64196965 255.34700981 -169.11816406 221.02978516 C-187.03585431 188.11029351 -194.12271937 148.7656655 -184.54248047 112.10205078 C-184.03370018 110.13058439 -183.59435229 108.14156745 -183.16015625 106.15234375 C-178.15000984 84.56484653 -166.58942503 64.5135729 -152 48 C-151.36408936 47.26571777 -151.36408936 47.26571777 -150.71533203 46.51660156 C-144.39698298 39.23561036 -137.71228052 32.82272044 -130 27 C-129.47035645 26.59539551 -128.94071289 26.19079102 -128.39501953 25.77392578 C-92.59715962 -1.41154389 -43.7016237 -12.60679112 0 0 Z " fill="#000000" transform="translate(1280,1945)"/>
<path d="M0 0 C19.94299131 -0.12032643 19.94299131 -0.12032643 28.51367188 -0.14648438 C34.33756825 -0.16434399 40.16132171 -0.18535862 45.98510742 -0.22631836 C50.68597787 -0.25916951 55.38669481 -0.27690674 60.08767128 -0.28463173 C61.87161992 -0.29012939 63.65556119 -0.30086348 65.43944359 -0.31719017 C88.89192589 -0.5230905 109.81176151 5.59923101 128 21 C128.65226562 21.50789063 129.30453125 22.01578125 129.9765625 22.5390625 C143.48427699 33.4636284 153.01893412 50.20317411 157 67 C157.34546875 68.134375 157.6909375 69.26875 158.046875 70.4375 C161.80536332 85.58417271 160.31014906 104.3888445 155 119 C154.34644531 120.80597656 154.34644531 120.80597656 153.6796875 122.6484375 C144.36471667 146.11401975 126.78037199 162.96606241 103.94873047 173.17919922 C99.08984675 175.22574984 94.11856003 176.76025285 89 178 C88.08124084 178.25130676 88.08124084 178.25130676 87.1439209 178.50769043 C78.37945129 180.62379045 69.47438573 180.25082683 60.5234375 180.1953125 C58.74411173 180.19157605 56.96478389 180.18873207 55.18545532 180.18673706 C50.53304223 180.17915031 45.88075671 180.15954516 41.22839355 180.1373291 C35.6298435 180.11313858 30.03125047 180.10406605 24.43266296 180.09242249 C15.95502029 180.07311729 7.47765677 180.03476032 -1 180 C-1 159.21 -1 138.42 -1 117 C4.61 115.68 10.22 114.36 16 113 C19.41487736 111.86911509 22.64032837 110.7517779 25.9375 109.375 C27.17608765 108.86622314 27.17608765 108.86622314 28.43969727 108.34716797 C42.52218409 102.39833449 55.3333679 94.8833904 67 85 C67.50724609 84.57106445 68.01449219 84.14212891 68.53710938 83.70019531 C77.95530053 75.64877588 86.31161782 66.64336905 93.16064453 56.29150391 C93.96116745 55.08368759 93.96116745 55.08368759 94.77786255 53.85147095 C95.18116791 53.24048553 95.58447327 52.62950012 96 52 C86.59302658 51.96833292 77.18704115 51.97491391 67.78016472 52.02846622 C63.41065864 52.05217929 59.04190993 52.06340025 54.67236328 52.04467773 C50.44432091 52.02704442 46.21762927 52.0440459 41.98974991 52.08367729 C40.38809656 52.0928719 38.78632365 52.09021159 37.18471909 52.07469368 C27.11579898 51.98672448 19.9716935 53.14614865 11.22659302 58.30516052 C8 60 8 60 0 62 C0 41.54 0 21.08 0 0 Z " fill="#010100" transform="translate(1799,1228)"/>
<path d="M0 0 C19.82266488 -0.16043524 19.82266488 -0.16043524 28.3671875 -0.1953125 C34.16453971 -0.2190897 39.96163578 -0.24700952 45.75878906 -0.30175781 C50.44023416 -0.34568533 55.12140403 -0.36923448 59.80303955 -0.37950897 C61.57615483 -0.3868172 63.34925754 -0.40108431 65.12225342 -0.42292023 C91.83760277 -0.7384189 115.06811434 8.07796096 134.3125 26.75 C152.39249543 45.08514469 159.34121637 68.12755817 159.38037109 93.33251953 C159.25088902 103.08636164 157.76988715 111.84656845 154.25 120.9375 C153.98687012 121.62279785 153.72374023 122.3080957 153.45263672 123.01416016 C144.4378224 145.92435236 127.39315047 163.17909819 105.125 173.3125 C90.75626247 178.96173146 77.80221794 180.57908451 62.5 180.390625 C60.68441397 180.38314172 58.86881973 180.3774587 57.05322266 180.37347412 C52.33167235 180.35838168 47.61063377 180.31924663 42.88928223 180.2746582 C37.19388398 180.22605157 31.49831226 180.20809321 25.80276489 180.18484497 C17.20149007 180.14638129 8.60133249 180.0696151 0 180 C0 159.54 0 139.08 0 118 C4.91373006 118.81895501 7.21068886 119.51042918 11.31243896 121.8828125 C20.85693396 127.34209304 28.93495769 128.14260207 39.75 128 C41.38624997 128.00754307 43.02248707 128.01859854 44.65869141 128.03295898 C48.90706626 128.06104626 53.15390839 128.0423373 57.40222168 128.01287842 C61.76042984 127.99127272 66.11838093 128.01530436 70.4765625 128.03515625 C78.98476076 128.06735639 87.49188878 128.04997535 96 128 C94.56547591 125.90782993 93.12845182 123.81745392 91.68994141 121.72802734 C91.28614761 121.1385582 90.88235382 120.54908905 90.46632385 119.9417572 C87.66076677 115.87237143 84.77171305 112.20642856 81.375 108.625 C80.51648437 107.70976563 79.65796875 106.79453125 78.7734375 105.8515625 C77.85820313 104.91054687 76.94296875 103.96953125 76 103 C75.45633789 102.43659912 74.91267578 101.87319824 74.35253906 101.29272461 C54.13586038 80.63912663 27.67782311 69.51242897 0 63 C0 42.21 0 21.42 0 0 Z " fill="#000000" transform="translate(1799,994)"/>
<path d="M0 0 C0 20.79 0 41.58 0 63 C-5.61 64.32 -11.22 65.64 -17 67 C-20.45536056 68.15178685 -23.72437559 69.29098905 -27.0625 70.6875 C-27.89265625 71.0285376 -28.7228125 71.3695752 -29.578125 71.72094727 C-46.82304569 78.99491027 -61.40292923 89.14737433 -75 102 C-75.81082031 102.74636719 -76.62164063 103.49273438 -77.45703125 104.26171875 C-91.91222866 118.03399345 -102.49871535 135.59947288 -109.875 154.0625 C-110.13700195 154.70872314 -110.39900391 155.35494629 -110.66894531 156.02075195 C-113.63342618 163.87053745 -115.04514009 171.69184538 -117 180 C-153.63 180 -190.26 180 -228 180 C-223.99417734 175.32654023 -220.01439377 170.86578648 -215.67810059 166.53092957 C-214.76642836 165.61374231 -214.76642836 165.61374231 -213.83633852 164.67802602 C-211.81707091 162.64782329 -209.79431267 160.62113694 -207.77148438 158.59448242 C-206.31531788 157.13204358 -204.85933934 155.66941756 -203.40353394 154.20661926 C-198.63718991 149.41932403 -193.86559173 144.63728296 -189.09375 139.85546875 C-187.44532534 138.20299318 -185.79693378 136.5504846 -184.14857483 134.8979435 C-176.40160123 127.1319378 -168.65223149 119.36833293 -160.8999095 111.60766619 C-151.97793414 102.67592593 -143.06429279 93.73597588 -134.1576705 84.7889263 C-127.25490891 77.85591996 -120.34440824 70.93068815 -113.42816019 64.01113588 C-109.30591146 59.88654628 -105.18697628 55.75877614 -101.07621765 51.62273216 C-97.20427726 47.72735947 -93.32274079 43.84180204 -89.43396378 39.96323967 C-88.01727986 38.54704755 -86.60394297 37.12749705 -85.19443893 35.70415878 C-59.94881692 10.22490362 -36.41987106 0 0 0 Z " fill="#000000" transform="translate(1745,994)"/>
<path d="M0 0 C0 58.74 0 117.48 0 178 C-6.7654735 176.87242108 -6.7654735 176.87242108 -9.69921875 175.43359375 C-10.34560303 175.11712891 -10.9919873 174.80066406 -11.65795898 174.47460938 C-12.32770752 174.13236328 -12.99745605 173.79011719 -13.6875 173.4375 C-14.39011963 173.08107422 -15.09273926 172.72464844 -15.81665039 172.35742188 C-22.00292068 169.13951508 -27.57768531 165.39155518 -33 161 C-34.14855469 160.09701172 -34.14855469 160.09701172 -35.3203125 159.17578125 C-53.35521656 144.18858746 -64.12499128 121.50895259 -66.60375977 98.43286133 C-68.83720656 72.13349928 -61.05390734 47.99666927 -44.3671875 27.7421875 C-34.45641198 16.20204412 -22.85107862 8.15603494 -9 2 C-8.1234375 1.608125 -7.246875 1.21625 -6.34375 0.8125 C-4 0 -4 0 0 0 Z " fill="#000000" transform="translate(1745,1112)"/>
</svg>
