<?xml version="1.0" encoding="UTF-8" standalone="no"?>
<svg
   version="1.2"
   viewBox="0 0 80 80"
   width="80"
   height="80"
   id="svg1"
   sodipodi:docname="proinstallers.svg"
   inkscape:version="1.4.2 (ebf0e940d0, 2025-05-08)"
   xmlns:inkscape="http://www.inkscape.org/namespaces/inkscape"
   xmlns:sodipodi="http://sodipodi.sourceforge.net/DTD/sodipodi-0.dtd"
   xmlns="http://www.w3.org/2000/svg"
   xmlns:svg="http://www.w3.org/2000/svg">
  <defs
     id="defs1" />
  <sodipodi:namedview
     id="namedview1"
     pagecolor="#ffffff"
     bordercolor="#000000"
     borderopacity="0.25"
     inkscape:showpageshadow="2"
     inkscape:pageopacity="0.0"
     inkscape:pagecheckerboard="0"
     inkscape:deskcolor="#d1d1d1"
     inkscape:zoom="6.4"
     inkscape:cx="40"
     inkscape:cy="40"
     inkscape:window-width="1916"
     inkscape:window-height="1021"
     inkscape:window-x="0"
     inkscape:window-y="0"
     inkscape:window-maximized="0"
     inkscape:current-layer="svg1" />
  <title
     id="title1">proinstallers</title>
  <style
     id="style1">
		.s0 { opacity: .98;fill: #00ecf5 } 
	</style>
  <path
     id="Path 0"
     fill-rule="evenodd"
     class="s0"
     d="m 38.8,0.1 c 2.3,-0.1 6.3,0.5 8.9,1.1 2.6,0.7 6,2.5 7.5,4 1.5,1.6 2.8,3.7 2.8,4.8 0,1.1 -0.6,2 -1.2,2 C 56.1,12 54.9,10.7 54.3,9 53.2,6.6 52,5.7 47.8,4.5 44.9,3.7 41.3,3 39.8,3 38.2,3 35,3.5 32.6,4.1 30.1,4.8 27.3,6.4 26.1,7.9 24.7,9.6 23.9,11.9 24,18.5 l 3.2,-0.8 c 1.8,-0.4 6,-1 9.3,-1.4 3.3,-0.3 8.7,0 12,0.6 5.3,0.9 6.1,0.8 7.2,-0.7 0.6,-0.9 1.4,-1.5 1.7,-1.2 0.3,0.3 0.9,3.1 1.3,6.2 0.7,5.2 0.6,5.9 -1.4,7.8 -1.3,1.1 -2.3,2.7 -2.3,3.5 0,0.8 -1.6,3.3 -3.5,5.5 -2.4,2.7 -3.2,4.4 -2.6,5.3 0.5,0.6 2.6,1.5 4.7,1.9 2.2,0.4 6,2.1 8.7,3.8 2.9,1.9 5.7,4.8 7.4,7.8 1.9,3.3 2.8,6.7 3.2,11.2 0.4,6 0.2,6.7 -4.8,12 H 40.5 C 21.8,80 12.3,79.6 10.8,78.9 9.5,78.2 8.2,77.2 7.8,76.6 7.4,76 7,72.5 7,68.8 c 0,-4.7 0.6,-8 1.9,-10.5 1,-2.1 3.6,-5.4 5.7,-7.4 2.2,-1.9 5.5,-4 7.4,-4.6 1.9,-0.6 4.7,-1.4 6.3,-1.7 C 29.8,44.3 31,43.4 31,42.8 30.9,42.1 29.6,40 28,38.3 26.3,36.5 24.7,33.8 24.3,32.3 23.9,30.7 22.8,28.8 21.8,28 20.2,26.7 20.1,25.5 20.7,17.5 21.3,9.6 21.7,8.1 24.1,5.5 25.6,3.9 28.6,2 30.7,1.4 32.8,0.7 36.4,0.2 38.8,0.1 Z M 28.3,20.5 c -1.3,0.3 -2.1,0.8 -1.9,1.3 0.2,0.4 6.2,0.7 13.3,0.6 7,-0.1 13.3,-0.2 13.8,-0.3 C 54,22 53.6,21.5 52.5,21 51.4,20.6 47.1,20 43,19.7 38.9,19.4 34.4,19.4 33,19.6 c -1.4,0.3 -3.5,0.7 -4.7,0.9 z m -3.5,6.4 c 0.9,0.5 2,2.1 2.4,3.7 0.3,1.6 1.4,3.9 2.5,5.2 1,1.2 3.6,2.9 5.8,3.6 2.7,0.9 5.1,1.1 7.5,0.5 1.9,-0.5 4.5,-1.9 5.8,-3.1 1.3,-1.3 2.7,-4 3.2,-6 0.6,-2.1 1.7,-4 2.5,-4.3 0.8,-0.3 1.5,-0.9 1.5,-1.5 0,-0.6 -0.7,-0.7 -1.7,-0.1 -1,0.5 -7.6,0.9 -14.8,0.9 -10.7,0 -13.3,-0.3 -14.8,-1.6 -1.6,-1.6 -1.8,-1.6 -1.7,0.1 0,0.9 0.8,2.1 1.8,2.6 z M 33,46.5 c 0,0.3 1.5,1.2 3.3,2.1 2,1 4.2,1.3 5.7,0.9 1.4,-0.4 3.1,-1.1 3.8,-1.6 Q 47,47 46.1,45.3 c -0.7,-1.4 -2.3,-1.8 -6.6,-1.9 -3.9,-0.1 -5.7,0.3 -6.1,1.2 -0.2,0.8 -0.4,1.6 -0.4,1.9 z M 28,61 H 52 C 52,50.9 51.7,48 51.3,48 50.8,47.9 49.2,48.9 47.5,50.1 45.9,51.4 42.9,52.5 41,52.8 38.4,53.1 36.5,52.5 33.8,50.6 31.7,49.2 29.6,48 29,48 c -0.6,0 -1,2.8 -1,6.5 z m -7,-6.5 c -0.5,0.3 -1.3,-0.4 -1.7,-1.5 -0.8,-2 -0.8,-2 -3.1,0.2 -1.3,1.3 -3.3,4 -4.3,6.1 -1,2 -1.9,4.4 -1.9,5.2 0,1.1 1.2,1.5 4.5,1.5 H 19 c 0,-6.9 0.4,-8 1.5,-8 0.8,0 1.5,0.9 1.5,2 q 0,2 1.5,1.5 C 24.6,61.1 25,59.4 25,55 c 0,-4.7 -0.3,-6 -1.5,-6 -0.9,0 -1.5,0.9 -1.5,2.5 0,1.4 -0.4,2.7 -1,3 z m 35.8,7.2 c 0.9,0.2 1.1,-1.3 1,-5.9 -0.2,-3.6 -0.8,-6.3 -1.5,-6.6 -0.8,-0.3 -1.1,1.4 -1,5.9 0.1,4 0.6,6.4 1.5,6.6 z M 61,66 h 9 C 68.4,61 66.9,57.8 65.5,55.8 64.1,53.7 62.6,52 62,52 c -0.6,0 -1,3 -1,7 z m -39.5,2.6 c -0.9,2 -1.6,4.7 -1.5,6 V 77 h 39 c 0,-4.3 -0.6,-7 -1.3,-8.8 L 56.5,65 H 23 Z m -10.2,7.1 c 0.7,0.7 2.3,1.3 3.5,1.3 1.9,0 2.3,-0.6 2.5,-4 0.3,-4 0.3,-4 -3.5,-4 -3.4,0 -3.7,0.2 -3.8,2.7 0,1.5 0.6,3.3 1.3,4 z M 63,75.2 c 0.1,1.1 0.8,1.8 2,1.8 1,0 2.6,-0.7 3.5,-1.5 0.9,-0.8 1.6,-2.6 1.6,-4 0,-2.3 -0.4,-2.5 -4.2,-2.5 -3.8,0 -4.1,0.2 -3.5,2.2 0.3,1.3 0.6,3.1 0.6,4 z"
     style="fill:#f6d72e;fill-opacity:1" />
  <path
     id="Path 1"
     fill-rule="evenodd"
     class="s0"
     d="m 46.5,6.5 v 7 l -6.8,0.3 C 33.3,14 33,13.9 32.5,11.5 32.2,10.1 32.5,8.3 33.2,7.5 34,6.3 35.8,6 46.5,6.5 Z m -7,4.5 C 42,11 44,10.6 44,10 44,9.4 42,9 39.5,9 37,9 35,9.4 35,10 c 0,0.6 2,1 4.5,1 z"
     style="fill:#f6d72e;fill-opacity:1" />
</svg>
