<svg version="1.2" xmlns="http://www.w3.org/2000/svg" viewBox="0 0 596 596" width="64" height="64">
	<title>Quad Film x P10X logo</title>
	<style>
		.s0 { fill: #000000 } 
		.s1 { fill: #0005fd } 
		.s2 { fill: #00ff00 } 
		.s3 { fill: #010102 } 
		.s4 { fill: #fd1cfa } 
		.s5 { opacity: 1;fill: #f4e8e7 } 
		.s6 { opacity: .99;fill: #526b5f } 
		.s7 { fill: #0f78de } 
		.s8 { opacity: 1;fill: #13bcc6 } 
		.s9 { opacity: 1;fill: #fcde09 } 
		.s10 { opacity: 1;fill: #f9de45 } 
		.s11 { opacity: 1;fill: #f7dc24 } 
		.s12 { opacity: 1;fill: #a6991f } 
		.s13 { opacity: 1;fill: #d5c93f } 
		.s14 { opacity: 1;fill: #b0a063 } 
		.s15 { opacity: .76;fill: #8c800f } 
	</style>
	<g id="Background">
		<path id="Path 0" fill-rule="evenodd" class="s0" d="m-242-197h1080v1080h-134.8c-74.1 0-137.5-0.3-147.2-1.5v-7.5h-9v9h-72v-2.8c0-2.2-0.9-3.1-9-7.2v5c0 4.3-0.3 5-2 5-1.1 0-3.1-0.6-4.5-1.3-2.4-1.1-2.6-1.7-2.5-8.4 0-6.9-0.2-7.4-2.8-9.1-1.5-1-3.5-2.2-4.5-2.5-1.5-0.6-1.7 0-1.7 13.3l-4.3-0.6c-2.3-0.4-4.3-1.1-4.5-1.5-0.1-0.5-2.2-0.9-9.2-0.9v11h-27v-13.5l-3.2-0.8c-1.8-0.4-3.9-0.7-4.6-0.7-0.7 0-1.2 1.3-1.2 6l-9-1.5v3.2c0 3.2-0.1 3.3-4.5 3.3-3.8 0-4.5 0.3-4.5 2 0 1.9-0.7 2-9 2-7.3 0-9-0.3-9-1.5 0-1.2-1.7-1.5-9-1.5-7.3 0-9 0.3-9 1.5 0 1.1-1.2 1.5-9 1.5v-11h-9v11h-18c-11 0-18.2-0.4-18.5-1-0.3-0.5-2.3-1-8.5-1v-4.3c0-3.8-0.2-4.3-2.7-4.9-1.6-0.4-3.6-0.9-4.6-1.2-1.5-0.5-1.7 0.2-1.7 12.4h-9v-5c0-3-0.5-5.3-1.3-5.7-0.6-0.4-4.7-0.9-16.7-1.8v9.5h-4.5c-3.3 0-4.5 0.4-4.5 1.5 0 1.1-1.2 1.5-4.5 1.5-2.5 0-4.5-0.5-4.5-1 0-0.5-2-1-4.5-1-2.5 0-4.5 0.5-4.5 1 0 0.6-8.2 1-22.5 1-19.3 0-22.5-0.2-22.5-1.5 0-1.1-1.2-1.5-4.5-1.5-3.3 0-4.5 0.4-4.5 1.5 0 1.3-23 1.5-402 1.5zm199 837h683v-683h-683z"/>
		<path id="Path 1" class="s1" d="m448 868v7c-6.6-1-8.6-1.7-8.8-2.1-0.1-0.5-2.2-0.9-4.7-0.9h-4.5v11c28.5-0.1 31.1-0.4 29.2-1.3-2-1.1-2.3-1.9-2.2-8.4 0-6.9-0.2-7.4-2.7-9.1-1.6-1-3.6-2.2-4.6-2.5-1.6-0.6-1.8 0-1.7 6.3zm-54 3v3l-9-1.5c0 6.4-0.1 6.5-4.5 6.5-3.8 0-4.5 0.3-4.5 2 0 1.9 0.7 2 13.5 2h13.5v-13.5c-5-1.2-7.1-1.5-7.7-1.5-0.8 0-1.3 1.3-1.3 3zm72 7v5c8.7 0 9-0.2 9-2.7 0-2.3-0.9-3.2-4.5-5.1l-4.5-2.2zm81 0.5v4.5h9v-9h-9zm-387 3c0 1.1 1.2 1.5 4.5 1.5 3.3 0 4.5-0.4 4.5-1.5 0-1.1-1.2-1.5-4.5-1.5-3.3 0-4.5 0.4-4.5 1.5zm180 0c0 1.2 1.7 1.5 9 1.5 7.3 0 9-0.3 9-1.5 0-1.2-1.7-1.5-9-1.5-7.3 0-9 0.3-9 1.5z"/>
		<path id="Path 2" class="s2" d="m268.2 876.4l-0.2 6.6c14.7 0 17.8-0.4 17.5-1-0.3-0.5-2.3-1-4.5-1h-4c0-8.1-0.2-8.6-2.7-9.2-1.6-0.4-3.5-1-4.4-1.3-1.4-0.6-1.6 0.3-1.7 5.9zm-27.1-1l-0.1 4.6c-7.8 0-9 0.4-9 1.5 0 1.3 2.2 1.5 13.5 1.5h13.5c0-8-0.5-10.3-1.2-10.7-0.7-0.4-4.7-0.9-8.9-1.1l-7.6-0.5zm80.8 2.2v5.5h9v-11h-9zm-108 4.5c0 0.5 2.1 1 4.5 1 2.5 0 4.5-0.5 4.5-1 0-0.6-2-1-4.5-1-2.4 0-4.5 0.4-4.5 1z"/>
		<path id="Path 3" class="s3" d="m45 641c0 0.5 0.7 0.8 1.5 0.5 0.8-0.3 1.5 0 1.5 0.5 0 0.5 0.9 1 2 1 1.1 0 2-0.7 2-1.5 0-1-1.1-1.5-3.5-1.5-1.9 0-3.5 0.5-3.5 1zm25 0c0 0.5 0.7 1.7 1.5 2.5 0.8 0.8 1.7 1.5 2 1.5 0.3 0 0.2-0.6-0.3-1.2q-0.7-1.3 0.8-0.6c0.8 0.4 2.1 0.1 2.8-0.5 0.7-0.7 1.2-1.5 1.2-2 0-0.4-1.8-0.7-4-0.7-2.2 0-4 0.5-4 1zm78 2c0 1.6 0.4 3.2 1 3.5 0.6 0.3 0.8 1 0.5 1.5-0.3 0.5 0.1 1.2 0.8 1.4q1.2 0.3 1-2.5c-0.2-2.3 0.1-2.9 1.7-2.9 1.2 0 2.2-0.8 2.5-2 0.4-1.8 0-2-3.5-2-3.8 0-4 0.2-4 3zm296-2.3c-0.1 0.5 0.6 1.5 1.5 2.3 1.1 1 1.3 1.7 0.4 2-0.7 0.3-0.9 1.6-0.5 3.3 0.4 1.7 1.3 2.7 2.4 2.7 0.9 0 3.7 0.3 6.2 0.7 3.3 0.4 4.6 1.1 4.8 2.5 0.1 1 1 1.8 2.2 1.8 1.1 0 2.7 0.2 3.5 0.5 1.1 0.4 1.5-0.3 1.5-3 0-1.9 0.5-3.7 1-4 0.5-0.3 1 0 1 0.5 0 0.5 0.6 0.9 1.3 0.9 0.6-0.1 2.2-0.1 3.5 0 1.2 0 2.2 0.7 2.2 1.3-0.1 0.7 0.5 1.8 1.2 2.4 0.7 0.6 2.8 1.4 4.5 1.8 2.8 0.5 3.3 0.3 3.3-1.4 0-1.1 0.5-2 1-2 0.5 0 1.2 0.7 1.5 1.5 0.4 1.2 2.2 1.5 8 1.5 6.5 0 7.5-0.2 7.5-1.8 0-1 1.3-2.3 3.4-3.2 1.9-0.8 3.3-1.8 3-2.3-0.2-0.4 0.7-2.4 2.1-4.5l2.5-3.7c-8.9-0.4-11.8-0.2-12.2 0.2-0.4 0.5-0.8 1.5-1 2.3-0.2 0.8-0.8 2-1.5 2.7-0.6 0.7-1.6 1.3-2.2 1.3-0.6 0-1.2 0.5-1.4 1-0.1 0.6-2.7 1.2-5.7 1.2-3 0.1-6.1-0.1-6.8-0.5-0.6-0.4-1.2-0.4-1.2 0 0 0.5-1.6-1-3.5-3.2-2-2.2-3.6-4.3-3.5-4.8 0-0.4-3.1-0.7-7-0.7-5.3 0-7.1 0.4-7.5 1.5-0.3 0.8-0.5 2-0.5 2.5 0 0.5 1.4 1.1 3.2 1.3 2 0.1 3.2 0.8 3.5 1.9 0.2 1.4-0.4 1.8-2.5 1.9-1.5 0-4.1 0.2-5.7 0.4-1.6 0.1-4.5 0.1-6.3-0.1-2.4-0.3-3.2-0.9-3.2-2.4 0-1.6 0.7-2 3-2 2.6 0 3-0.4 2.9-2.5-0.1-2.3-0.5-2.5-5-2.5-2.7 0-4.9 0.3-4.9 0.8zm37 0.7c0 0.8 0.9 2 2 2.5 1.1 0.5 3.4 1 5 1 1.6 0 3-0.5 3-1 0-0.5 0.6-1 1.2-1 0.7 0.1 2-0.6 2.8-1.5 1.4-1.4 0.8-1.6-6.3-1.5-6.2 0-7.7 0.3-7.7 1.5zm34.4 3.8l-4 5.2c5.2-0.2 6.5 0.5 7.3 1.9 1.1 1.9 1.2 1.5 1.3-2.9 0.2-5 0.2-5 1.5-2 0.7 1.6 2.3 3.3 3.6 3.7 1.3 0.4 2.9 0.4 3.4 0 0.5-0.3 2-0.5 3.3-0.4 1.2 0.1 3.1-0.3 4.2-0.8 1.6-0.8 2-2 2-5.5 0-4.4-0.1-4.5-3.2-4.5-2.5 0-2.9 0.3-1.8 1 0.8 0.5 1 1 0.5 1-0.5 0 0 0.9 1.3 2 1.2 1.1 2.2 2.7 2.2 3.5 0 0.8-0.9 1.5-2 1.5-1.1 0-2.9-1-4-2.3-1.2-1.2-2.3-3.2-2.5-4.5-0.4-1.9-1.1-2.2-4.8-2.2-3.9 0-4.5 0.4-8.3 5.3zm40.6 15.7v21h9v-42h-9z"/>
		<path id="Path 4" class="s1" d="m63.9 642.3c0 1.2-0.2 3.1-0.5 4.2-0.3 1.6-0.2 1.8 0.8 0.8 0.7-0.7 1.7-1 2.1-0.5 0.4 0.4 0.7-1 0.7-3 0-2.7-0.4-3.8-1.5-3.8-0.9 0-1.5 1-1.6 2.3zm172.3 0c0.2 1.2 0.7 2.5 1.3 2.9 0.6 0.5 0.5 0.8-0.3 0.8-0.6 0-1.2 0.5-1.2 1 0 0.6 3 1 7 1 6.6 0 7-0.1 7.1-2.2 0.1-2.2 0.1-2.2 0.9 0.2 0.8 2.5 0.8 2.4 0.9-0.5 0.1-2.9 0-3-5.1-3.3-2.9-0.2-6.1-0.8-7.1-1.3-0.9-0.5-2.2-0.9-2.8-0.9-0.6 0-0.9 1-0.7 2.3zm131.1 0c0.3 1.2 0.4 2.8 0.1 3.5-0.2 0.6-0.9 1-1.4 0.7-0.5-0.3-1 0-1 0.5 0 0.6 1.6 1 3.5 1 2.4 0 3.5-0.5 3.5-1.5 0-0.8-0.7-1.7-1.5-2-0.8-0.3-1.4-1.4-1.2-2.5 0.2-1.2-0.2-2-1.1-2-1.1 0-1.3 0.7-0.9 2.3zm3.7-0.3c0 1.1 0.7 2.2 1.5 2.5 1.1 0.4 1.4 0 1-1.5q-0.5-2 1-2c1.1 0 1.5 1.1 1.5 4v4l9-1c0 7.8 0.1 8 2.7 7.4 1.6-0.4 3.2-1.1 3.8-1.5 0.5-0.5 1.3-0.9 1.7-0.9 0.4 0 0.8 1.6 0.8 3.5 0 2 0.4 3.3 1 3 0.5-0.3 1-2.6 1-5.2-0.1-4.2 0.3-5 2.7-6.3 1.6-0.8 3.1-1.9 3.5-2.5 0.4-0.5 0.8-2 0.8-3.2 0-2.3-0.1-2.3-16-2.3-15.3 0-16 0.1-16 2zm59 3.3l0.1 5.2c3-7.7 3.9-10.1 3.9-10.2 0-0.2-0.9-0.3-2-0.3-1.8 0-2 0.7-2 5.3zm117-2.3c0 2.1 1 3.9 3.2 6 1.8 1.6 3.9 3 4.5 3 0.9 0 1.3-1.9 1.3-6v-6c-8.8 0-9 0.1-9 3z"/>
		<path id="Path 5" class="s2" d="m268 690.5v27.5h9v-55h-9zm54-16.5v11h9v-22h-9zm-76.8-4.6l-4.2 1.1v17.5h9c0-15.5-0.1-19.9-0.3-19.9-0.1 0.1-2.1 0.6-4.5 1.3z"/>
		<path id="Path 6" class="s4" d="m66.8 644c-0.2 3.3 0 4 1.5 4 1.3 0 1.7-0.9 1.7-4 0-2.8-0.4-4-1.4-4-0.9 0-1.5 1.4-1.8 4zm51.5-0.6c0.2 3.5 0.5 3.9 2.7 4 2.3 0.1 2.6-0.3 2.7-3.9 0-2.2-0.2-3.3-0.5-2.5-0.3 0.8-1 1.8-1.6 2.2q-1.1 0.8 0.2 0.8c0.6 0 1.2 0.5 1.2 1 0 0.5-0.7 1-1.5 1-0.8 0-1.9-1.4-2.4-3.3l-1-3.2zm19.7-2.4q-1.5 1-0.2 1c0.6 0 1 0.4 0.7 1-0.3 0.5 0.1 0.8 0.8 0.5 0.7-0.3 1.2 0.3 1.2 1.6 0 1.7 0.7 2.3 3 2.6 2.5 0.3 3.1 0 3.5-1.9 0.3-1.3 0.4-3.1 0.3-4.1-0.2-1.3-1.2-1.7-4-1.7-2.1 0-4.5 0.4-5.3 1zm17.6 2.4c-0.7 2-1.3 3.8-1.4 4-0.1 0.3 0.9 0.6 2.3 0.6 1.4 0 2.7-0.6 2.9-1.3 0.2-0.7 0.2-2.5 0.1-4-0.2-1.5-0.8-2.7-1.5-2.7-0.6 0-1.7 1.5-2.4 3.4zm29.1-1.5c-0.4 1.1-1.1 2.1-1.7 2.1-0.5 0-0.9 0.8-0.7 1.9 0.1 1.5 0.5 1.7 1.5 0.8 1-0.9 1.3-0.9 1.2 0 0 0.7 0.5 1.3 1 1.3 0.6 0 0.8-1.6 0.5-3.8-0.3-2-0.7-3.9-0.8-4-0.1-0.2-0.6 0.6-1 1.7zm14 0.4c1 1.3 2.5 2.2 3.3 1.9 0.8-0.2 1.8 0.1 2.3 0.7 0.4 0.6 1.7 1.1 3 1.2 2.1 0 2.1 0.1 0.2 0.8-1.3 0.5-0.1 0.8 3.4 0.7 3.4-0.1 5.6-0.6 5.8-1.4 0.2-0.7-0.1-1.2-0.7-1.2-0.5 0-1 0.4-1 1 0 0.5-0.8 1-1.7 1-1.7 0-1.7-0.1 0-1.3 1.6-1 1.6-1.4 0.5-2.3-0.7-0.7-2.6-1.4-4.3-1.7-1.6-0.3-4-0.8-5.2-1.1-1.7-0.5-2.2-0.2-1.9 0.8 0.2 0.8-0.2 1.3-0.9 1.3-0.7-0.1-1.7-0.6-2.2-1.1-0.4-0.6-0.3-0.7 0.5-0.3 0.6 0.4 1.2 0.2 1.2-0.3 0-0.6-0.9-1-2.1-1-2 0-2 0-0.2 2.3zm20.2-1.8c-0.1 0.5-0.3 2.2-0.3 3.7l-0.1 2.6c5.8-3.3 7.5-4.9 7.5-5.6 0-0.7-1.1-1.2-2.5-1.2-1.4 0-2.5 0.3-2.5 0.7 0 0.4 0.5 1.4 1.2 2 0.7 0.7 0.9 1.3 0.3 1.3-0.5 0-1.5-1-2.2-2.2-0.6-1.3-1.3-1.9-1.4-1.3zm15.4 3c0.1 1.9 0.7 3.3 1.2 3.1 0.6-0.1 0.9-0.6 0.8-1-0.2-0.3-0.3-1.7-0.3-3.1 0-1.4-0.4-2.5-1-2.5-0.5 0-0.9 1.6-0.7 3.5zm33 0.2l0.4 3.8c12.6 0.4 14.4 0.2 13.3-0.5-1.1-0.8-0.7-0.9 1.5-0.5 1.9 0.4 3.7 0.1 5-1q2-1.5 0.5-1.3c-0.9 0.2-1.6-0.6-1.7-2-0.3-2.1-0.4-2.2-4.5-0.9-2.4 0.7-5.3 1.1-6.5 1-1.3-0.2-2.3-0.8-2.3-1.3 0-0.6-1.4-1-3-1-2.9 0-3 0.1-2.7 3.7zm52.9 0l0.3 3.8c12.8 0 16.5-0.2 16.5-0.5 0-0.3 1.3-0.4 2.8-0.2 2.1 0.3 3.4-0.4 5.6-3l2.9-3.3c-4.5-0.5-6.4-0.1-7.2 0.7-1.3 1.1-1.3 1-0.6-0.2 0.8-1.4 0.7-1.4-1 0-1.2 1-3.7 1.4-7.4 1.3-3.1-0.1-5.7-0.6-5.8-1.2-0.2-0.6-1.7-1.1-3.4-1.1-2.9 0-3 0.1-2.7 3.7zm-68.2 1.3c0 2.7 0.3 3 3.3 2.7 2.6-0.2 3.3-0.7 3.5-2.7 0.3-2.2-0.1-2.5-3.3-2.7-3.3-0.2-3.6-0.1-3.5 2.7zm-146.6-1.2c-1 0.2-1.8 0.7-1.6 1.3 0.1 0.5 0.9 0.7 1.7 0.4 0.8-0.3 1.7 0.2 2 1 0.3 0.8 1.2 1.5 2 1.5 0.8 0 1.5-0.2 1.5-0.5 0-0.3-0.8-1.3-1.9-2.3-1-1-2.7-1.6-3.7-1.4z"/>
		<path id="Path 7" class="s5" d="m101.7 640.8c-0.2 0.4 0.2 2.2 0.9 4 0.9 2.1 2.1 3.2 3.4 3.2 1.1 0 1.8-0.5 1.6-1.2-0.2-0.7-1.1-1.2-2-1-0.9 0.1-1.6-0.3-1.6-0.8 0-0.5 0.9-1.2 2-1.5 1.3-0.3 2.3 0.1 2.9 1.3 0.5 0.9 1.2 1.5 1.5 1.2 0.3-0.3 0.2-1.1-0.2-1.8-0.4-0.7-1.6-1.4-2.7-1.6-1.1-0.2-1.9-0.9-1.8-1.5 0.2-0.6-0.6-1.1-1.7-1.1-1 0-2.1 0.3-2.3 0.8zm34.3 0c0 0.4 0.9 1.5 2 2.5 1.2 1 2.2 1.3 2.5 0.7 0.3-0.5-0.1-1-0.7-1q-1.3 0 0.2-0.9c1.3-0.7 1.3-0.9-0.2-1.5-1-0.3-2.2-0.6-2.8-0.6-0.6 0-1 0.3-1 0.8zm61.1 1.1c0.5 1.1 1.3 2.1 1.9 2.1 0.6 0 1.2-0.5 1.5-1 0.3-0.5 0.9-0.8 1.5-0.5 0.6 0.3 1-0.1 1-0.7 0-0.7 0.8-0.2 1.8 1 1.1 1.6 2.4 2.2 3.7 1.9 1.8-0.4 1.8-0.5-0.3-0.6-1.2 0-2.3-0.7-2.3-1.3-0.1-0.7-0.1-1.5-0.1-1.8 0-0.3-1.1-0.5-2.6-0.5-1.4-0.1-2.5 0.3-2.4 0.7 0.1 0.4-0.4 0.7-1.1 0.5-0.6-0.1-1.7-0.6-2.3-1.1-0.9-0.6-0.9-0.2-0.3 1.3zm18.6-0.8c-2.1 0.7-2.5 1.2-1.7 2.4 0.7 1.1 0.5 1.8-1 2.5-1.1 0.6-3.4 0.7-5.1 0.3-1.7-0.5-3.3-1.1-3.5-1.5-0.2-0.5-1.1-0.8-1.9-0.8-0.8 0-1.5 0.6-1.5 1.3 0 0.6 0.2 0.9 0.5 0.5 0.3-0.5 1.1-0.2 1.8 0.5 0.8 0.6 3.5 1.1 6.3 1.1 2.7-0.1 5-0.6 5.1-1.3 0.2-0.6 0.7-1.1 1.3-1.1 0.6 0 0.8 0.7 0.5 1.5-0.3 0.8-0.1 1.5 0.5 1.5 0.6 0 1-0.4 1-1 0-0.5 0.6-0.7 1.2-0.3 1 0.5 1 0.3 0-1-0.6-0.9-1-2.6-0.7-3.7 0.2-1.1 0.3-2 0.2-1.9-0.1 0-1.4 0.5-3 1zm25.1 0.2c0.4 0.4 3.6 0.6 7.2 0.5l6.5-0.3c-11.2-0.8-14.1-0.7-13.7-0.2zm45.2 0.5c-0.1 0.9 0.5 2.3 1.2 2.9 1 1 1.7 0.9 3.3-0.3 1.1-0.8 1.4-1.3 0.7-1-0.8 0.4-1.2-0.2-1.2-1.6 0-2.3 0-2.3-1.5-0.3-1.3 1.7-1.4 1.7-1.1 0.3 0.2-1 0-1.8-0.5-1.8-0.5 0-0.9 0.8-0.9 1.8z"/>
		<path id="Path 8" class="s6" d="m90 640.7c2.5 0.2 6.1 0.2 8 0 1.9-0.2-0.1-0.4-4.5-0.4-4.4 0-6 0.2-3.5 0.4zm73.6 0c-0.2 0.5 3.1 0.8 7.4 0.8 4.3 0 7.6-0.3 7.4-0.8-0.2-0.4-3.5-0.7-7.4-0.7-3.8 0-7.1 0.3-7.4 0.7z"/>
		<path id="Path 9" class="s7" d="m38.8 641.8c-0.2 0.9 0.1 2.7 0.7 3.9 0.5 1.3 1.3 2.3 1.8 2.3 0.4 0 0.5-0.4 0.2-1-0.3-0.5 0.1-1 0.8-1q1.2 0-0.3-1-1.5-1-0.2-1c0.6 0 1.2-0.9 1.2-2 0-1.1-0.4-2-1-2-0.6 0-1 0.7-1 1.5 0 0.8-0.4 1.7-1 2-0.6 0.3-0.8-0.4-0.5-1.5 0.3-1.1 0.3-2 0.1-2-0.3 0-0.6 0.8-0.8 1.8zm40.6-0.1c-0.8 1.3-0.7 1.6 0.3 1 0.7-0.4 1.3-0.2 1.3 0.3 0 0.6 0.4 1 0.9 1 0.5 0 1.7-0.7 2.5-1.5 0.9-0.8 1.5-1.8 1.3-2.2-0.1-0.3-0.9 0.2-1.8 1.3-1.6 1.8-1.7 1.8-2.5 0.1-0.9-1.8-1-1.8-2 0z"/>
		<path id="Path 10" class="s8" d="m454.8 643c-0.2 2.1 0.1 2.8 0.9 2.5 0.7-0.3 1.3 0 1.3 0.5 0 0.6-1.7 0.7-4.7 0.3-3.9-0.7-4.6-0.6-4.1 0.7 0.3 1.1 2.4 1.6 8.1 1.8 5.6 0.1 7.7-0.1 7.7-1.1 0-0.6-1.3-1.5-3-1.9-2.3-0.6-3-1.4-3-3.3 0-1.5-0.6-2.5-1.4-2.5-0.8 0-1.5 1.3-1.8 3zm20.2-2c0 0.5 0.7 1.2 1.5 1.5 0.8 0.3 1.3 1 1 1.5-0.3 0.5 1 1.9 2.7 3 1.8 1.1 5.1 1.9 7.3 1.9 2.2 0 5.5-0.8 7.2-1.9 1.8-1.1 3.8-2.9 4.3-4 0.5-1.1 0.9-2.1 0.8-2.3-0.1-0.2-0.8-0.4-1.7-0.4-0.9 0-2.2 0.8-2.9 1.8-0.7 1-2.7 2.2-4.5 2.8-1.9 0.6-4.5 0.7-6.2 0.3-1.6-0.5-3.5-1.8-4-3-0.6-1.3-1.9-2.2-3.3-2.2-1.2 0-2.2 0.5-2.2 1zm39.6 0.3c-1.1 0.6-1.6 1.8-1.3 2.5 0.4 0.6 0.2 1.2-0.3 1.2-0.5 0-1.2 0.7-1.5 1.5-0.3 0.8-0.3 1.5 0 1.5 0.3 0 1.4-1 2.6-2.3 1.1-1.2 2.4-3 2.8-4 0.4-0.9 0.5-1.7 0.2-1.7-0.4 0-1.5 0.6-2.5 1.2zm14.5 0c0 0.7 1 2.7 2.3 4.3 1.3 1.6 2.7 2.8 3 2.5 0.3-0.3-0.3-2.1-1.3-4-1-1.9-2.3-3.6-2.9-3.8-0.5-0.2-1 0.2-1.1 1z"/>
		<path id="Path 11" fill-rule="evenodd" class="s9" d="m281 26.1c86.1-0.1 129.7 0.2 136.5 1 5.5 0.6 13.1 1.9 17 3 3.9 1 9.9 2.9 13.5 4 3.6 1.2 11.5 4.5 17.5 7.5 6 3 11.3 5.4 11.8 5.4 0.4 0 2.8 1.5 5.4 3.2 2.7 1.8 5.5 4.1 6.3 5 0.8 0.9 2.1 1.7 2.7 1.8 0.7 0 2.7 1.4 4.3 3 1.6 1.6 3.3 3 3.7 3 0.5 0 4.7 3.7 9.4 8.3 4.7 4.5 11 11.3 14.1 15.2 3 3.9 6.9 9.5 8.6 12.5 1.7 3 4 8 5.2 11 1.2 3 2.5 5.7 2.9 6 0.4 0.3 1.3 1.9 1.9 3.5 0.6 1.6 2.7 6.8 4.6 11.5 2 4.7 4.6 11.4 5.7 15 1.2 3.6 2.5 8.1 2.9 10 0.5 1.9 1.5 6.4 2.4 10 1.3 5.6 1.5 23.6 1.6 134 0 107.8-0.2 128.2-1.4 132-0.8 2.5-1.1 4.9-0.8 5.3 0.4 0.4-2.7 0.8-6.8 0.8-4.1 0.1-10.9 0-15-0.1-4.1-0.1-7.7-0.4-8-0.7-0.3-0.3-1.1-2.8-1.9-5.7-0.7-2.8-1.7-6.9-2.1-9.1-0.4-2.2-2.3-11-4-19.5-1.8-8.5-3.5-17.2-3.6-19.3-0.2-2-0.9-3.9-1.4-4.2-0.5-0.3-1-1.7-1-3.3 0-1.5-0.7-6.1-1.5-10.2-0.8-4.1-2-9.5-2.6-12-0.6-2.5-2-8.5-3.1-13.5-1.1-5-2.4-11.3-2.8-14-0.5-2.8-1.4-7.5-2-10.5-0.6-3-1.7-8.2-2.5-11.5-0.7-3.3-1.9-8.7-2.5-12-0.6-3.3-1.5-7.6-2-9.5-0.5-1.9-1.6-7.1-2.5-11.5-0.9-4.4-2-10.3-2.6-13-0.6-2.8-1.4-7-1.9-9.5-0.5-2.5-1.4-6.5-2-9-0.6-2.5-1.5-6.5-2-9-0.4-2.5-1.2-7.2-1.8-10.5-0.5-3.3-1.1-6.4-1.5-7-0.3-0.6-1.7-6.6-3.2-13.5-1.5-6.9-3.1-14.8-3.6-17.5-0.4-2.8-1.2-7.3-1.7-10-0.5-2.8-2.1-7.7-3.6-11-1.4-3.3-2.6-6.3-2.6-6.8 0-0.4-2.1-3.7-4.8-7.4-2.6-3.7-7.2-9.2-10.3-12.2-3-3.1-8.4-7.7-12-10.2-3.5-2.5-10-6.1-22.4-11.4h-261l-8.5 3.1c-5.3 1.9-9.7 4.3-11.8 6.2-1.7 1.8-3.7 3.2-4.2 3.2-0.6 0-3.2 2.1-5.9 4.7-2.6 2.7-6.3 7.3-8.2 10.3-1.9 3-4.1 6.9-4.9 8.5-0.7 1.6-2.2 5.2-3.4 8-2 4.9-2 7.2-2.4 145-0.2 109.7 0 140.9 0.9 144 0.7 2.2 1.3 4.2 1.4 4.5 0.1 0.3 1.1 2.5 2.2 5 1.2 2.5 4.7 7.1 7.9 10.3 4.4 4.3 7.7 6.6 12.9 8.6 3.9 1.6 11.1 3.8 16 5.1 4.9 1.2 10.8 2.6 13 3.2 2.2 0.7 4.4 1.4 5 1.7 0.6 0.3 2.4 0.6 4 0.8 1.6 0.1 4.6 0.7 6.5 1.2 1.9 0.6 9.1 2.4 16 4 6.9 1.7 15.9 3.8 20 4.7 4.1 0.9 10.9 2.5 15 3.6 4.1 1.1 10.6 2.6 14.5 3.4 3.9 0.7 11.1 2.5 16 4 4.9 1.4 11.2 2.9 14 3.3 2.7 0.5 5.9 1.3 7 1.8 1.1 0.6 3.8 1.3 6 1.6 2.2 0.3 7.1 1.3 11 2.2 3.9 1 10.4 2.6 14.5 3.7 4.1 1.1 8.5 2.2 9.7 2.4 1.3 0.2 3.4 0.9 4.8 1.4 1.4 0.5 4.3 1 6.5 1 2.2 0 3.8 0.3 3.6 0.7-0.3 0.5 1.2 1.1 3.2 1.5 2 0.5 5.7 1.2 8.2 1.7 2.5 0.5 7 1.6 10 2.4 3 0.8 8.4 2.2 12 3.2 3.6 0.9 8.9 2.1 11.8 2.6 2.8 0.5 6.9 1.6 8.9 2.4 2.1 0.9 4.8 1.5 6 1.5 1.6 0 2.1 0.5 1.8 1.5-0.3 0.8 0.1 1.5 0.7 1.5 0.7-0.1-0.5 1.3-2.7 3-2.2 1.7-4.5 3.1-5.2 3-0.6 0-1.8 0.6-2.5 1.3-0.7 0.7-4 2.8-7.3 4.7-3.3 1.8-7.6 4.1-9.5 5.1-1.9 0.9-5.5 2.7-8 3.8-4.5 2.1-5.4 2.1-122 2.1-98.7 0-118.5-0.2-123.5-1.4-3.3-0.8-8-2-10.5-2.6-2.5-0.6-4.9-1.5-5.5-1.9-0.6-0.5-2.4-1.1-4-1.5-1.6-0.4-5-1.7-7.5-2.8-2.5-1.2-4.7-2.4-5-2.7-0.3-0.3-2.3-1.5-4.5-2.6-2.2-1.1-5.4-2.9-7-4-1.7-1.1-5.1-3.6-7.5-5.5-2.5-1.9-5-3.9-5.6-4.5-0.6-0.5-2.6-2.4-4.5-4-1.9-1.6-4.4-4.7-5.7-6.8-1.2-2-2.6-3.7-3.2-3.7-0.6 0-0.8-0.5-0.5-1 0.3-0.5-0.4-1.7-1.5-2.5-1.1-0.8-2-2.3-2-3.3-0.1-0.9-1.4-3.3-3-5.2-1.6-1.9-2.7-3.8-2.5-4.3 0.3-0.4-0.8-2.8-2.4-5.5-1.6-2.6-3.2-5.8-3.6-7.2-0.4-1.4-1.3-2.8-1.9-3.2-0.6-0.4-1.2-1.5-1.2-2.5-0.1-1-1-5.2-2-9.3-1-4.1-1.8-8.3-1.9-9.2 0-1-0.4-1.8-1-1.8-0.6 0-0.3-0.5 0.5-1 1.2-0.8 1.2-1 0.1-1-0.8 0-1.1-0.3-0.8-0.8 0.4-0.4 0.1-1.3-0.6-2.1-0.9-1.1-1.3-32.7-1.5-146.5-0.2-99.2 0.1-147.2 0.8-151.6 0.6-3.6 1.6-8.8 2.2-11.5 0.6-2.8 1.5-5.4 2-6 0.5-0.6 0.8-2.2 0.8-3.8 0-1.5 1.1-5.5 2.4-9 1.3-3.4 3.3-8.5 4.5-11.2 1.2-2.8 4.1-8.8 6.4-13.5 2.3-4.7 6.8-12.3 9.9-17 3.2-4.7 8.1-11.2 11-14.4 2.9-3.3 6.9-7.6 8.8-9.5 1.9-2 6.6-6.3 10.3-9.6 3.7-3.3 7.3-6.2 8-6.4 0.7-0.2 2.3-1.4 3.7-2.6 1.4-1.1 3.6-2.5 5-3 1.4-0.4 4.3-2.2 6.5-3.9 2.2-1.7 6.2-4 9-5 2.7-1 5.4-2.3 5.9-2.7 0.6-0.5 1.8-0.9 2.8-0.9 1 0 1.8-0.3 1.8-0.8 0-0.4 3.9-1.8 8.7-3.1 4.9-1.3 12.4-2.7 16.8-3.1 4.4-0.4 64.9-0.8 134.5-0.9zm174 447.4c3 0.3 9.3 1 14 1.5 4.7 0.6 10.7 1.2 13.5 1.5 2.7 0.3 9.5 1 15 1.6 5.5 0.6 14 1.4 19 1.8 5 0.4 10 1.1 11.2 1.7 1.2 0.5 5.4 4.8 9.5 9.5 4 4.7 8.9 10.5 10.8 12.9 1.9 2.4 4.5 5.4 5.7 6.7 1.3 1.3 2.3 2.9 2.3 3.6-0.1 0.6 0.5 1.8 1.2 2.4 0.7 0.7 1.7 1 2.1 0.5 0.5-0.4 0.6 0.1 0.3 1.1-0.4 1.1 0 2 1.1 2.4 1 0.4 2.4 1.3 3 2 0.7 0.7 1 1.3 0.5 1.3-0.4 0 0.2 0.6 1.3 1.4 1.1 0.7 3.9 3.9 6.2 7 3.6 4.7 4.1 5.9 3 7.1-0.6 0.9-1.3 1.3-1.5 1-0.1-0.3-1.3 0.6-2.7 2-1.6 1.6-3.2 2.3-4.5 2-1.2-0.3-2.8 0.3-4 1.5-1.1 1.1-1.7 2.3-1.3 2.7 0.5 0.3-0.1 0.3-1.2-0.1-1.6-0.7-1.9-0.5-1.3 0.8 0.6 1.1 0.3 1.6-0.7 1.6-0.8 0-2.7 1-4.3 2.3-1.5 1.2-3.4 2.7-4.3 3.2-0.9 0.5-3.6 2.3-6 3.8-2.4 1.6-5.5 3.7-6.9 4.7-2.3 1.6-2.8 1.6-5.5 0.2-1.6-0.8-3.9-2.5-5-3.7-1.1-1.3-5-5.6-8.7-9.6-3.6-4.1-7.9-9-9.5-10.9-1.5-2-5.7-6.7-9.3-10.5-3.6-3.8-7.8-8.3-9.3-9.9-1.6-1.7-5.2-5.7-8-9-2.9-3.2-8.4-9.3-12.4-13.5-3.9-4.2-8.2-8.9-9.5-10.6-1.2-1.6-3.4-4.1-4.8-5.5-1.4-1.4-3.2-3.4-4-4.4-1.3-1.8-1.3-1.9 0-1.2 0.8 0.4 0.7 0.2-0.2-0.6-1-0.7-1.5-1.7-1.1-2.1 0.4-0.4 3.2-0.5 6.3-0.2zm-23.8 5.8c0.9 0.1 3.1 2 4.9 4.2 1.9 2.2 5.7 6.3 8.4 9.1 2.8 2.9 6.8 7.3 9 9.9 2.2 2.7 5.5 6.4 7.4 8.4 1.9 2 4 4.6 4.7 5.9 1.3 2.1 1 2.6-4.4 7.7-3.1 3.1-7.8 6.7-10.5 8-2.6 1.4-5.3 2.5-6 2.5-0.6 0-2.6 0.7-4.2 1.6-1.6 0.8-4.8 1.6-11 1.9l-0.2-28.5c0-15.7 0-29 0.2-29.7 0.1-0.6 0.9-1.1 1.7-1z"/>
		<path id="Path 12" class="s10" d="m129.5 28.7c-2.8 0.8-4.8 1.6-4.5 1.8 0.3 0.2 3.4-0.4 7-1.5 3.6-1 5.6-1.8 4.5-1.8-1.1 0-4.3 0.7-7 1.5zm-28.8 12.8c-4.2 2.5-7.5 4.8-7.2 5.3 0.3 0.4 2.9-0.9 5.8-2.9 2.8-2 6.6-4.4 8.2-5.2 1.6-0.9 2.6-1.6 2-1.7-0.6 0-4.5 2-8.7 4.5zm363.2-1.4c0.8 0.5 4.1 2.3 7.3 3.9 3.1 1.7 5.9 2.9 6.2 2.8 0.2-0.2-2.7-2-6.5-4-3.9-2.1-7.3-3.8-7.7-3.8-0.5 0-0.1 0.5 0.7 1.1zm-384.5 16.1c-2.7 2.3-8.5 7.5-12.8 11.7-4.3 4.2-8.3 8.4-8.8 9.3-0.5 1 3-2.2 7.9-7 4.8-4.9 11.2-10.9 14.2-13.5 3-2.5 5.3-4.6 5-4.6-0.3-0.1-2.7 1.8-5.5 4.1zm427.2 12.6c2.9 2.6 7.6 7.2 10.4 10.2 2.9 3 4.3 4.1 3.2 2.5-1.2-1.6-5.5-6.3-9.7-10.3-4.2-3.9-7.9-7.2-8.3-7.2-0.5 0 1.5 2.2 4.4 4.8zm-473.9 49c-1.5 3.1-3.4 7.5-4.2 9.7-0.9 2.2-1.5 4.1-1.4 4.3 0.2 0.1 0.9-1.3 1.7-3 0.8-1.8 2.7-6.2 4.3-9.8 1.5-3.6 2.7-6.6 2.5-6.7-0.2-0.2-1.5 2.3-2.9 5.5zm172.2-4.1c9.6 0.2 25.6 0.2 35.5 0 9.9-0.1 2-0.2-17.5-0.2-19.5 0-27.6 0.1-18 0.2zm-67.4 6.8c-2.1 1.4-3.8 2.8-3.7 3 0 0.3 2.2-0.7 4.9-2.2 2.6-1.5 4.9-2.8 5.1-3 0.2-0.2-0.2-0.3-1-0.3-0.8 0-3.1 1.1-5.3 2.5zm-10 7.7c-2 1.7-5.3 5-7.2 7.2-2 2.3-4 5-4.5 6.1-0.5 1.1-0.2 0.9 0.8-0.5 0.9-1.4 4.7-5.5 8.4-9.2 3.7-3.8 6.7-6.8 6.5-6.8-0.2 0-2 1.4-4 3.2zm313.4 0.1c0.8 0.7 4.4 4 8 7.2l6.5 5.9c-10.1-10.3-13.7-13.6-14.5-13.9-1.3-0.5-1.3-0.5 0 0.8zm-422.5 177.2c0 75.4 0.1 106 0.2 68 0.2-38 0.2-99.6 0-137-0.1-37.4-0.2-6.4-0.2 69zm87 3c0 70.4 0.1 99 0.2 63.5 0.2-35.5 0.2-93.1 0-128-0.1-34.9-0.2-5.9-0.2 64.5zm454-1.5c0 66.3 0.1 93.3 0.2 60 0.2-33.3 0.2-87.5 0-120.5-0.1-33-0.2-5.8-0.2 60.5zm-449.5 148.5c0 0.5 1.4 3 3.1 5.5 1.8 2.5 5.1 6.2 7.5 8.3 2.4 2 5 3.7 5.7 3.6 0.6 0 0.1-0.8-1.3-1.7-1.3-0.9-3.7-2.8-5.4-4.2-1.6-1.4-4.4-4.7-6.3-7.5-1.8-2.7-3.3-4.5-3.3-4zm317 51c0 26.9 0.3 34.5 1.3 34.5 0.6 0 1.9-0.4 2.7-0.9 1.2-0.7 1.1-1-0.7-1.5l-2.3-0.6c0-53.7 0.3-61.2 1.2-61.7 0.9-0.6 1-0.4 0.4 0.7-0.6 0.9-0.6 1.2 0 0.8 0.5-0.5 1.5-0.2 2.3 0.5 1.2 1 1.3 0.9 0.3-0.8-0.6-1.1-2-2.8-3.1-3.7l-2.1-1.8zm100.5-25c1.6 0.7 4.4 3 6.2 5.2 1.8 2.1 6.2 7.4 9.9 11.8 3.7 4.4 8 9.4 9.7 11 2.7 2.7 2.8 2.7 1.1 0.4-1.1-1.5-6.4-8-11.9-14.5-5.4-6.6-10.7-12.7-11.7-13.6-1-1-2.8-1.8-4.1-1.7-2 0.1-1.9 0.2 0.8 1.4zm-64.4 12c0 0.6 3.6 4.8 8.1 9.5 4.5 4.7 7.2 7.4 6.2 6-1.1-1.3-3.3-4-5-6-1.7-1.9-4.5-5.1-6.2-7-1.8-1.9-3.2-3-3.1-2.5zm-6.5 12.1c2.8 3.2 6.2 6.8 7.5 7.9 1.3 1.1-0.6-1.3-4.1-5.4-3.6-4-7-7.6-7.5-7.9-0.6-0.3 1.3 2.1 4.1 5.4zm10.2 11.5c1 1.1 0.4 2.3-3.1 5.9-2.4 2.5-5 5-5.8 5.5-0.8 0.6-2.5 1.9-3.9 2.8-1.4 0.9-2.1 1.7-1.5 1.7 0.5 0 3-1.6 5.5-3.4 2.5-1.9 6-5.1 7.8-7.2 1.8-2.2 3.1-4.3 2.9-4.9-0.2-0.5-1-1.2-1.8-1.4-1-0.3-1-0.1-0.1 1zm22.1 5.4c2.4 2.8 4.8 5.5 5.4 6q0.9 1 0.1-0.6c-0.5-0.9-2.1-2.9-3.4-4.5-1.4-1.6-3.5-3.6-4.5-4.4-1.1-0.8 0 0.8 2.4 3.5zm7 7.3c0 0.4 1.6 2.4 3.6 4.5 1.9 2 4 3.7 4.7 3.8 0.7 0 0.3-0.8-0.9-1.8-1.2-1-3.3-3-4.8-4.5-1.5-1.5-2.7-2.4-2.6-2zm78.8 5.6c1.8 2.8 1.8 2.9-0.8 5-1.3 1.2-3.6 2.9-5 3.9-2.4 1.8-2.4 1.8 0.6 0.2 1.6-0.9 4.2-2.6 5.7-3.8l2.7-2.2-5-6zm-504.7 11.5c1.4 1.1 3.6 2.6 5 3.3 1.4 0.7 2.7 1.6 3 1.8 0.3 0.3 3.6 2 7.5 3.8 3.8 1.8 7.1 3.2 7.2 3 0.1-0.1-3.9-2.4-9-5.1-5.1-2.6-10.8-5.7-12.7-6.8l-3.5-2.1zm486.3 5c-4.5 3.1-8.8 6.3-9.5 7.1-0.7 0.7 3-1.5 8.2-4.9 5.2-3.5 9.9-6.7 10.4-7.2 0.6-0.5 0.6-0.8 0-0.8-0.5 0.1-4.6 2.7-9.1 5.8zm-31.3 10.8c4.5 4.6 5.9 5.5 8 5.1 1.4-0.3 3.6-1.5 5-2.7 2.4-2.1 2.3-2.1-1.5 0.1l-4 2.2c-5.4-3.9-7.8-6.3-8.8-7.7-0.9-1.4-2.3-2.6-3-2.6-0.7 0 1.3 2.5 4.3 5.6zm-166 2.8c-2.1 1.2-21.8 1.4-116.3 1.2-62.5-0.1-113.7 0.2-113.7 0.6 0 0.4 51.1 0.8 113.5 0.8 98.9 0 113.9-0.2 116.5-1.5 1.6-0.8 3-1.7 3-2 0-0.3-0.1-0.5-0.3-0.5-0.1 0-1.3 0.7-2.7 1.4z"/>
		<path id="Path 13" class="s11" d="m154.9 113.9c-2 0.3-4.1 1-4.5 1.5-0.5 0.5 0.3 0.6 2.1 0.1 1.6-0.4 7.7-1.1 13.5-1.5l10.5-0.7c-13.9 0-19.6 0.2-21.6 0.6zm139.1-0.2c20.1 0.2 53.1 0.2 73.5 0 20.4-0.1 3.9-0.2-36.5-0.2-40.4 0-57.1 0.1-37 0.2zm265.3 66.8c0 3.9 0.2 5.2 0.4 3 0.2-2.2 0.2-5.4 0-7-0.2-1.6-0.4 0.1-0.4 4zm-1.6 251.5c-0.4 1.9-0.6 4-0.4 4.5 0.1 0.6-3.1 1.2-7.3 1.6l-7.5 0.5c12.8 0.3 16.7 0.1 16.9-0.4 0.2-0.4 0-2.7-0.3-5.2l-0.7-4.5zm-31.4 5c0.3 1.2 2.1 1.5 7.8 1.6l7.4 0.1c-10.8-0.6-14.4-1.4-14.8-2q-0.9-1.2-0.4 0.3zm-80.3 36.3c0 0.6 1 2.4 2.3 3.8 1.2 1.4 3.6 4.1 5.2 6 1.7 1.9 4 4.1 5 4.9 1.9 1.4 1.9 1.4 0-0.9-1.1-1.3-3.5-3.9-5.2-5.7-1.8-1.9-3.1-3.9-2.8-4.4 0.3-0.5-0.3-1.3-1.2-1.7-1.7-0.6-1.6-0.7 0.2-2 1.9-1.3 1.9-1.3-0.7-1.3-1.6 0-2.8 0.6-2.8 1.3zm-17.5 3.4c-0.5 0.3-0.7 14.4-0.4 31.2l0.4 30.6c0.9-52.3 1.3-58.9 2.3-58.8 0.6 0.2 1.3-0.1 1.4-0.6 0.2-0.5-0.4-1.4-1.3-2-0.9-0.6-2-0.8-2.4-0.4zm9.2 8.6c2.1 2.6 4.1 4.7 4.6 4.7 0.4 0-0.3-1.3-1.5-2.8-1.3-1.6-3.3-3.7-4.6-4.8-1.2-1-0.6 0.3 1.5 2.9zm118.5 28.2c-0.1 1.1 1 3.4 2.3 5 1.7 2.1 2.8 2.7 3.5 2 0.8-0.7 0.6-1.4-0.5-2.5-0.9-0.8-1.6-1.2-1.5-0.8 0 0.5-0.6 0.2-1.4-0.5-0.7-0.6-1.6-2.1-1.8-3.2l-0.6-2zm-266.1 0.8c1.9 0.8 5.2 1.7 7.2 2.1 2.1 0.3 3.7 0.4 3.7 0.2-0.1-0.2-2.2-0.9-4.8-1.5-2.5-0.6-5.7-1.3-7.1-1.6-1.4-0.3-0.9 0.1 1 0.8zm105.6 26.7c-0.3 1.1-0.2 2 0.4 2 0.5 0-0.3 1.1-1.8 2.5l-2.7 2.5c5.1-2.7 7.6-4 8.8-4.7 2.1-1.1 2.1-1.1-1-2.7-2.9-1.5-3.2-1.4-3.7 0.4zm-174.6 25.7c2.5 0.2 6.1 0.2 8 0 1.9-0.2-0.1-0.4-4.5-0.4-4.4 0-6 0.2-3.5 0.4zm36 0c4.1 0.2 10.6 0.2 14.5 0 3.8-0.1 0.5-0.3-7.5-0.3-8 0-11.1 0.2-7 0.3zm80 0c3.6 0.2 9.6 0.2 13.5 0 3.8-0.2 0.9-0.3-6.5-0.3-7.4 0-10.6 0.1-7 0.3z"/>
		<path id="Path 14" class="s12" d="m212.5 25.7c37.4 0.2 98.1 0.2 135 0 36.9-0.1 6.3-0.2-68-0.2-74.3 0-104.4 0.1-67 0.2zm347.5 285c-0.3 71.1-0.2 128.9 0.2 128.5 0.4-0.4 0.7-58.5 0.5-129.2l-0.2-128.5z"/>
		<path id="Path 15" class="s13" d="m533 439.7c4.7 0.2 12.5 0.2 17.5 0 5-0.1 1.1-0.3-8.5-0.3-9.6 0-13.7 0.2-9 0.3z"/>
		<path id="Path 16" class="s14" d="m17.5 312.5c0 73.7 0.1 103.6 0.2 66.5 0.2-37.1 0.2-97.4 0-134-0.1-36.6-0.2-6.2-0.2 67.5z"/>
		<path id="Path 17" class="s15" d="m221.5 114.7c33.6 0.2 88 0.2 121 0 33-0.1 5.5-0.2-61-0.2-66.6 0-93.6 0.1-60 0.2z"/>
		<path id="Path 18" class="s5" d="m294 566.7c4.7 0.2 12.1 0.2 16.5 0 4.4-0.1 0.6-0.3-8.5-0.3-9.1 0-12.7 0.2-8 0.3z"/>
	</g>
</svg>