<?xml version="1.0" encoding="UTF-8" standalone="no"?>
<!-- Created with Inkscape (http://www.inkscape.org/) -->

<svg
   width="137mm"
   height="137mm"
   viewBox="0 0 137 137"
   version="1.1"
   id="svg1"
   inkscape:version="1.4.2 (ebf0e940d0, 2025-05-08)"
   sodipodi:docname="quadfilm-logo-black-square.svg"
   xmlns:inkscape="http://www.inkscape.org/namespaces/inkscape"
   xmlns:sodipodi="http://sodipodi.sourceforge.net/DTD/sodipodi-0.dtd"
   xmlns="http://www.w3.org/2000/svg"
   xmlns:svg="http://www.w3.org/2000/svg">
  <sodipodi:namedview
     id="namedview1"
     pagecolor="#ffffff"
     bordercolor="#000000"
     borderopacity="0.25"
     inkscape:showpageshadow="2"
     inkscape:pageopacity="0.0"
     inkscape:pagecheckerboard="false"
     inkscape:deskcolor="#d1d1d1"
     inkscape:document-units="mm"
     inkscape:clip-to-page="true"
     showgrid="true"
     inkscape:zoom="0.77415123"
     inkscape:cx="315.18389"
     inkscape:cy="426.2733"
     inkscape:window-width="1916"
     inkscape:window-height="1021"
     inkscape:window-x="0"
     inkscape:window-y="0"
     inkscape:window-maximized="0"
     inkscape:current-layer="layer1" />
  <defs
     id="defs1">
    <clipPath
       clipPathUnits="userSpaceOnUse"
       id="clipPath2">
      <path
         d="M 0,595.276 H 841.89 V 0 H 0 Z"
         transform="translate(-388.64891,-346.10461)"
         id="path2" />
    </clipPath>
    <clipPath
       clipPathUnits="userSpaceOnUse"
       id="clipPath4">
      <path
         d="M 0,595.276 H 841.89 V 0 H 0 Z"
         transform="translate(-408.39161,-329.75831)"
         id="path4" />
    </clipPath>
    <clipPath
       clipPathUnits="userSpaceOnUse"
       id="clipPath6">
      <path
         d="M 0,595.276 H 841.89 V 0 H 0 Z"
         transform="translate(-437.42801,-340.18381)"
         id="path6" />
    </clipPath>
    <clipPath
       clipPathUnits="userSpaceOnUse"
       id="clipPath8">
      <path
         d="M 0,595.276 H 841.89 V 0 H 0 Z"
         transform="translate(-450.68601,-341.31541)"
         id="path8" />
    </clipPath>
    <clipPath
       clipPathUnits="userSpaceOnUse"
       id="clipPath10">
      <path
         d="M 0,595.276 H 841.89 V 0 H 0 Z"
         transform="translate(-476.36091,-238.4972)"
         id="path10" />
    </clipPath>
    <clipPath
       clipPathUnits="userSpaceOnUse"
       id="clipPath12">
      <path
         d="M 0,595.276 H 841.89 V 0 H 0 Z"
         transform="translate(-526.32022,-268.2893)"
         id="path12" />
    </clipPath>
    <clipPath
       clipPathUnits="userSpaceOnUse"
       id="clipPath14">
      <path
         d="M 0,595.276 H 841.89 V 0 H 0 Z"
         transform="translate(-526.01452,-455.90341)"
         id="path14" />
    </clipPath>
    <clipPath
       clipPathUnits="userSpaceOnUse"
       id="clipPath16">
      <path
         d="M 0,595.276 H 841.89 V 0 H 0 Z"
         transform="translate(-604.66361,-160.08691)"
         id="path16" />
    </clipPath>
    <clipPath
       clipPathUnits="userSpaceOnUse"
       id="clipPath18">
      <path
         d="M 0,595.276 H 841.89 V 0 H 0 Z"
         transform="translate(-603.76751,-162.8342)"
         id="path18" />
    </clipPath>
    <clipPath
       clipPathUnits="userSpaceOnUse"
       id="clipPath20">
      <path
         d="M 0,595.276 H 841.89 V 0 H 0 Z"
         transform="translate(-260.05971,-129.0779)"
         id="path20" />
    </clipPath>
    <clipPath
       clipPathUnits="userSpaceOnUse"
       id="clipPath22">
      <path
         d="M 0,595.276 H 841.89 V 0 H 0 Z"
         transform="translate(-299.78551,-102.3352)"
         id="path22" />
    </clipPath>
    <clipPath
       clipPathUnits="userSpaceOnUse"
       id="clipPath24">
      <path
         d="M 0,595.276 H 841.89 V 0 H 0 Z"
         transform="translate(-348.37481,-142.44991)"
         id="path24" />
    </clipPath>
    <clipPath
       clipPathUnits="userSpaceOnUse"
       id="clipPath26">
      <path
         d="M 0,595.276 H 841.89 V 0 H 0 Z"
         transform="translate(-391.30541,-111.1981)"
         id="path26" />
    </clipPath>
    <clipPath
       clipPathUnits="userSpaceOnUse"
       id="clipPath28">
      <path
         d="M 0,595.276 H 841.89 V 0 H 0 Z"
         transform="translate(-454.89101,-103.2982)"
         id="path28" />
    </clipPath>
    <clipPath
       clipPathUnits="userSpaceOnUse"
       id="clipPath30">
      <path
         d="M 0,595.276 H 841.89 V 0 H 0 Z"
         id="path30" />
    </clipPath>
    <clipPath
       clipPathUnits="userSpaceOnUse"
       id="clipPath32">
      <path
         d="M 0,595.276 H 841.89 V 0 H 0 Z"
         transform="translate(-512.34251,-154.85761)"
         id="path32" />
    </clipPath>
    <clipPath
       clipPathUnits="userSpaceOnUse"
       id="clipPath34">
      <path
         d="M 0,595.276 H 841.89 V 0 H 0 Z"
         transform="translate(-568.47802,-117.1328)"
         id="path34" />
    </clipPath>
    <clipPath
       clipPathUnits="userSpaceOnUse"
       id="clipPath36">
      <path
         d="M 0,595.276 H 841.89 V 0 H 0 Z"
         transform="translate(-388.64888,-361.36111)"
         id="path36" />
    </clipPath>
    <clipPath
       clipPathUnits="userSpaceOnUse"
       id="clipPath38">
      <path
         d="M 0,595.276 H 841.89 V 0 H 0 Z"
         transform="translate(-408.39159,-345.01481)"
         id="path38" />
    </clipPath>
    <clipPath
       clipPathUnits="userSpaceOnUse"
       id="clipPath40">
      <path
         d="M 0,595.276 H 841.89 V 0 H 0 Z"
         transform="translate(-437.42799,-355.44031)"
         id="path40" />
    </clipPath>
    <clipPath
       clipPathUnits="userSpaceOnUse"
       id="clipPath42">
      <path
         d="M 0,595.276 H 841.89 V 0 H 0 Z"
         transform="translate(-450.68604,-356.57201)"
         id="path42" />
    </clipPath>
    <clipPath
       clipPathUnits="userSpaceOnUse"
       id="clipPath44">
      <path
         d="M 0,595.276 H 841.89 V 0 H 0 Z"
         transform="translate(-476.36094,-253.75381)"
         id="path44" />
    </clipPath>
    <clipPath
       clipPathUnits="userSpaceOnUse"
       id="clipPath46">
      <path
         d="M 0,595.276 H 841.89 V 0 H 0 Z"
         transform="translate(-526.32024,-283.5458)"
         id="path46" />
    </clipPath>
    <clipPath
       clipPathUnits="userSpaceOnUse"
       id="clipPath48">
      <path
         d="M 0,595.276 H 841.89 V 0 H 0 Z"
         transform="translate(-526.01454,-471.16001)"
         id="path48" />
    </clipPath>
    <clipPath
       clipPathUnits="userSpaceOnUse"
       id="clipPath50">
      <path
         d="M 0,595.276 H 841.89 V 0 H 0 Z"
         transform="translate(-604.66359,-175.34341)"
         id="path50" />
    </clipPath>
    <clipPath
       clipPathUnits="userSpaceOnUse"
       id="clipPath52">
      <path
         d="M 0,595.276 H 841.89 V 0 H 0 Z"
         transform="translate(-603.76749,-178.0907)"
         id="path52" />
    </clipPath>
    <clipPath
       clipPathUnits="userSpaceOnUse"
       id="clipPath54">
      <path
         d="M 0,595.276 H 841.89 V 0 H 0 Z"
         transform="translate(-260.05973,-144.3344)"
         id="path54" />
    </clipPath>
    <clipPath
       clipPathUnits="userSpaceOnUse"
       id="clipPath56">
      <path
         d="M 0,595.276 H 841.89 V 0 H 0 Z"
         transform="translate(-299.78551,-117.5918)"
         id="path56" />
    </clipPath>
    <clipPath
       clipPathUnits="userSpaceOnUse"
       id="clipPath58">
      <path
         d="M 0,595.276 H 841.89 V 0 H 0 Z"
         transform="translate(-348.37478,-157.70641)"
         id="path58" />
    </clipPath>
    <clipPath
       clipPathUnits="userSpaceOnUse"
       id="clipPath60">
      <path
         d="M 0,595.276 H 841.89 V 0 H 0 Z"
         transform="translate(-391.30538,-126.4546)"
         id="path60" />
    </clipPath>
    <clipPath
       clipPathUnits="userSpaceOnUse"
       id="clipPath62">
      <path
         d="M 0,595.276 H 841.89 V 0 H 0 Z"
         transform="translate(-454.89099,-118.5547)"
         id="path62" />
    </clipPath>
    <clipPath
       clipPathUnits="userSpaceOnUse"
       id="clipPath64">
      <path
         d="M 0,595.276 H 841.89 V 0 H 0 Z"
         id="path64" />
    </clipPath>
    <clipPath
       clipPathUnits="userSpaceOnUse"
       id="clipPath66">
      <path
         d="M 0,595.276 H 841.89 V 0 H 0 Z"
         transform="translate(-512.34249,-170.11411)"
         id="path66" />
    </clipPath>
    <clipPath
       clipPathUnits="userSpaceOnUse"
       id="clipPath68">
      <path
         d="M 0,595.276 H 841.89 V 0 H 0 Z"
         transform="translate(-568.47804,-132.3893)"
         id="path68" />
    </clipPath>
  </defs>
  <g
     inkscape:label="Layer 1"
     inkscape:groupmode="layer"
     id="layer1"
     transform="translate(-32.279166,-51.858333)">
    <g
       id="g80"
       transform="translate(-4.3635436,1.4287928)">
      <path
         id="path35"
         d="m 0,0 c 0,2.123 -0.276,3.995 -0.825,5.615 -0.552,1.618 -1.311,2.972 -2.278,4.056 -0.967,1.086 -2.107,1.907 -3.419,2.464 -1.315,0.559 -2.725,0.838 -4.235,0.838 -1.509,0 -2.921,-0.279 -4.234,-0.838 -1.312,-0.557 -2.453,-1.378 -3.42,-2.464 -0.968,-1.084 -1.726,-2.438 -2.277,-4.056 -0.55,-1.62 -0.825,-3.492 -0.825,-5.615 0,-2.123 0.279,-3.991 0.838,-5.602 0.557,-1.613 1.321,-2.961 2.288,-4.046 0.966,-1.085 2.107,-1.904 3.419,-2.453 1.313,-0.55 2.732,-0.826 4.258,-0.826 1.509,0 2.913,0.276 4.211,0.826 1.298,0.549 2.429,1.368 3.396,2.453 0.967,1.085 1.726,2.433 2.278,4.046 C -0.276,-3.991 0,-2.123 0,0 M 4.057,0.329 C 4.057,-1.18 3.899,-2.61 3.584,-3.962 3.271,-5.316 2.822,-6.562 2.24,-7.702 1.658,-8.843 0.963,-9.86 0.152,-10.757 c -0.809,-0.897 -1.703,-1.651 -2.677,-2.264 v -0.094 c 1.306,0.205 2.539,0.362 3.703,0.471 1.164,0.109 2.344,0.149 3.54,0.119 v -3.469 c -0.74,0.049 -1.542,0.099 -2.407,0.154 -0.864,0.056 -1.864,0.083 -2.995,0.083 -0.851,0 -1.706,-0.024 -2.571,-0.072 -0.866,-0.046 -1.722,-0.102 -2.573,-0.165 -0.848,-0.062 -1.681,-0.118 -2.499,-0.164 -0.818,-0.047 -1.597,-0.072 -2.335,-0.072 -2.344,0 -4.44,0.394 -6.288,1.18 -1.847,0.786 -3.407,1.891 -4.682,3.314 -1.273,1.423 -2.248,3.133 -2.923,5.131 -0.677,1.997 -1.015,4.199 -1.015,6.605 0,2.406 0.349,4.612 1.049,6.616 0.7,2.005 1.69,3.731 2.972,5.177 1.282,1.447 2.834,2.577 4.659,3.386 1.824,0.809 3.868,1.216 6.133,1.216 2.312,0 4.383,-0.407 6.216,-1.216 1.832,-0.809 3.384,-1.93 4.659,-3.361 C 1.391,10.386 2.367,8.689 3.042,6.723 3.719,4.757 4.057,2.627 4.057,0.329"
         style="fill:#231f20;fill-opacity:1;fill-rule:nonzero;stroke:none"
         transform="matrix(0.35277776,0,0,-0.35277776,96.163731,101.06268)"
         clip-path="url(#clipPath36)" />
      <path
         id="path37"
         d="m 0,0 c -1.164,0 -2.209,0.125 -3.137,0.376 -0.927,0.252 -1.742,0.605 -2.442,1.062 -0.7,0.456 -1.293,1.002 -1.779,1.64 -0.489,0.637 -0.874,1.332 -1.157,2.087 -0.22,0.566 -0.378,1.187 -0.471,1.864 -0.095,0.675 -0.142,1.414 -0.142,2.217 v 13.752 h 3.657 V 9.269 c 0,-1.242 0.164,-2.279 0.494,-3.114 0.378,-0.943 0.986,-1.686 1.828,-2.229 0.841,-0.542 1.915,-0.812 3.22,-0.812 1.384,0 2.496,0.297 3.338,0.895 0.841,0.597 1.443,1.4 1.805,2.406 0.266,0.77 0.401,1.722 0.401,2.854 V 22.998 H 9.271 V 9.222 C 9.271,8.467 9.228,7.763 9.142,7.111 9.054,6.458 8.916,5.856 8.728,5.307 8.445,4.537 8.055,3.824 7.561,3.172 7.065,2.519 6.456,1.957 5.733,1.486 5.01,1.013 4.172,0.648 3.221,0.389 2.268,0.129 1.196,0 0,0"
         style="fill:#231f20;fill-opacity:1;fill-rule:nonzero;stroke:none"
         transform="matrix(0.35277776,0,0,-0.35277776,103.12852,106.82929)"
         clip-path="url(#clipPath38)" />
      <path
         id="path39"
         d="m 0,0 c -0.673,0.188 -1.471,0.369 -2.395,0.542 -0.924,0.174 -1.941,0.267 -3.053,0.283 -1.549,0 -2.763,-0.329 -3.64,-0.99 -0.875,-0.66 -1.314,-1.676 -1.314,-3.044 0,-0.691 0.109,-1.296 0.329,-1.815 0.219,-0.519 0.52,-0.949 0.905,-1.286 0.383,-0.338 0.836,-0.59 1.36,-0.755 0.525,-0.165 1.085,-0.247 1.68,-0.247 0.782,0 1.511,0.113 2.184,0.342 0.673,0.227 1.271,0.498 1.796,0.813 0.524,0.315 0.97,0.628 1.339,0.943 0.367,0.316 0.637,0.559 0.809,0.732 z M 0.19,-7.361 H 0.095 c -0.299,-0.376 -0.677,-0.75 -1.133,-1.118 -0.455,-0.371 -0.983,-0.7 -1.58,-0.992 -0.597,-0.291 -1.251,-0.523 -1.958,-0.695 -0.707,-0.174 -1.463,-0.26 -2.265,-0.26 -1.085,0 -2.079,0.162 -2.983,0.484 -0.904,0.322 -1.683,0.793 -2.336,1.414 -0.652,0.622 -1.159,1.381 -1.52,2.278 -0.364,0.895 -0.543,1.91 -0.543,3.041 0,1.118 0.201,2.115 0.602,2.996 0.401,0.881 0.961,1.627 1.686,2.241 0.722,0.615 1.592,1.085 2.606,1.417 1.014,0.329 2.135,0.494 3.362,0.494 1.163,-0.016 2.241,-0.118 3.231,-0.306 0.991,-0.188 1.871,-0.425 2.641,-0.707 H 0 v 1.555 c 0,0.615 -0.039,1.157 -0.118,1.628 -0.079,0.472 -0.211,0.888 -0.401,1.251 -0.408,0.754 -1.062,1.379 -1.957,1.875 -0.897,0.496 -2.107,0.743 -3.633,0.743 -1.133,0 -2.198,-0.106 -3.196,-0.319 -0.999,-0.211 -1.994,-0.506 -2.984,-0.884 v 3.066 c 0.378,0.189 0.822,0.366 1.332,0.53 0.512,0.165 1.051,0.308 1.617,0.425 0.565,0.118 1.164,0.209 1.792,0.272 0.628,0.063 1.258,0.095 1.887,0.095 2.265,0 4.116,-0.401 5.556,-1.203 1.439,-0.802 2.472,-1.864 3.1,-3.185 C 3.232,8.271 3.4,7.716 3.504,7.111 3.606,6.506 3.656,5.842 3.656,5.119 V -9.836 H 0.591 Z"
         style="fill:#231f20;fill-opacity:1;fill-rule:nonzero;stroke:none"
         transform="matrix(0.35277776,0,0,-0.35277776,113.37191,103.15141)"
         clip-path="url(#clipPath40)" />
      <path
         id="path41"
         d="m 0,0 c 0,-1.289 0.145,-2.457 0.437,-3.502 0.29,-1.046 0.711,-1.934 1.262,-2.666 0.55,-0.73 1.227,-1.293 2.029,-1.687 0.802,-0.394 1.72,-0.589 2.759,-0.589 0.77,0 1.469,0.102 2.1,0.306 0.628,0.205 1.19,0.464 1.686,0.78 0.494,0.313 0.92,0.648 1.273,1.002 0.355,0.353 0.634,0.68 0.838,0.978 V 6.345 C 11.628,7.117 10.757,7.734 9.765,8.198 8.775,8.662 7.706,8.893 6.558,8.893 5.865,8.893 5.138,8.764 4.376,8.504 3.613,8.245 2.906,7.777 2.252,7.101 1.6,6.424 1.062,5.516 0.637,4.376 0.213,3.235 0,1.778 0,0 m -3.821,-0.047 c 0,1.558 0.152,2.937 0.46,4.14 0.307,1.203 0.711,2.252 1.214,3.149 0.503,0.897 1.092,1.647 1.769,2.252 0.677,0.605 1.377,1.098 2.1,1.476 0.724,0.377 1.458,0.648 2.206,0.812 0.747,0.167 1.45,0.249 2.111,0.249 1.368,0 2.555,-0.229 3.561,-0.684 1.006,-0.456 1.91,-1.126 2.713,-2.005 h 0.071 v 13.845 h 3.656 v -34.155 h -2.759 l -0.755,2.501 h -0.095 c -0.283,-0.364 -0.613,-0.729 -0.99,-1.097 -0.378,-0.371 -0.822,-0.704 -1.334,-1.003 -0.511,-0.299 -1.1,-0.539 -1.769,-0.72 -0.668,-0.181 -1.443,-0.27 -2.323,-0.27 -1.226,0 -2.429,0.208 -3.609,0.625 -1.18,0.415 -2.229,1.085 -3.149,2.005 -0.92,0.918 -1.663,2.107 -2.229,3.561 -0.566,1.454 -0.849,3.228 -0.849,5.319"
         style="fill:#231f20;fill-opacity:1;fill-rule:nonzero;stroke:none"
         transform="matrix(0.35277776,0,0,-0.35277776,118.04906,102.75217)"
         clip-path="url(#clipPath42)" />
      <path
         id="path43"
         d="M 0,0 C 0,0 14.667,1.68 20.778,11.306 L 0,34.375 Z"
         style="fill:#231f20;fill-opacity:1;fill-rule:nonzero;stroke:none"
         transform="matrix(0.35277776,0,0,-0.35277776,127.10659,139.02415)"
         clip-path="url(#clipPath44)" />
      <path
         id="path45"
         d="M 0,0 -43.237,4.583 0.611,-43.542 23.528,-28.417 Z"
         style="fill:#231f20;fill-opacity:1;fill-rule:nonzero;stroke:none"
         transform="matrix(0.35277776,0,0,-0.35277776,144.73112,128.51419)"
         clip-path="url(#clipPath46)" />
      <path
         id="path47"
         d="m 0,0 c -24.139,32.695 -59.89,32.542 -59.89,32.542 0,0 -100.376,0.306 -122.071,0 -21.695,-0.306 -40.945,-19.556 -40.945,-19.556 -25.668,-25.667 -24.751,-57.139 -24.751,-57.139 v -112.212 -7.334 -4.889 -1.471 c 0.117,-5.388 1.595,-24.731 16.149,-42.375 1.462,-1.543 3.051,-3.043 4.789,-4.477 0.151,-0.125 0.292,-0.232 0.438,-0.348 9.446,-7.857 23.051,-13.485 42.724,-13.485 2.37,-0.381 3.735,-0.412 3.735,-0.412 h 94.571 l 25.819,13.903 c 0,0 -106.64,25.819 -125.126,30.097 -2.262,0.524 -4.265,1.128 -6.051,1.783 -0.126,0.041 -0.234,0.094 -0.357,0.137 -0.936,0.353 -1.805,0.72 -2.619,1.097 -10.779,5.375 -11.14,17.384 -11.14,17.384 v 119.852 c 0,6.111 0.916,12.986 0.916,12.986 5.806,21.083 25.056,22.917 25.056,22.917 h 117.03 c 5.805,0 10.083,-1.528 10.083,-1.528 18.334,-8.861 22.001,-23.834 22.001,-23.834 l 27.5,-132.002 H 14.972 V -44.918 C 14.972,-25.361 0,0 0,0"
         style="fill:#231f20;fill-opacity:1;fill-rule:nonzero;stroke:none"
         transform="matrix(0.35277776,0,0,-0.35277776,144.62328,62.328072)"
         clip-path="url(#clipPath48)" />
      <path
         id="path49"
         d="m 0,0 c -0.14,0.109 -0.338,0.164 -0.592,0.164 h -0.991 v -1.303 h 0.996 c 0.244,0 0.437,0.059 0.582,0.177 0.143,0.118 0.216,0.277 0.216,0.477 C 0.211,-0.27 0.14,-0.109 0,0 m 0.221,-3.087 -0.952,1.346 h -0.852 v -1.346 h -0.674 v 3.863 h 1.722 c 0.221,0 0.421,-0.028 0.599,-0.085 C 0.243,0.634 0.393,0.553 0.517,0.448 0.64,0.343 0.735,0.214 0.801,0.062 c 0.066,-0.153 0.1,-0.323 0.1,-0.511 0,-0.162 -0.024,-0.307 -0.07,-0.433 C 0.786,-1.009 0.722,-1.122 0.641,-1.219 0.56,-1.317 0.464,-1.399 0.351,-1.468 0.239,-1.535 0.115,-1.588 -0.021,-1.625 l 1.043,-1.462 z"
         style="fill:#231f20;fill-opacity:1;fill-rule:nonzero;stroke:none"
         transform="matrix(0.35277776,0,0,-0.35277776,172.36892,166.68559)"
         clip-path="url(#clipPath50)" />
      <path
         id="path51"
         d="m 0,0 c -2.181,0 -3.955,-1.774 -3.955,-3.955 0,-2.181 1.774,-3.956 3.955,-3.956 2.181,0 3.956,1.775 3.956,3.956 C 3.956,-1.774 2.181,0 0,0 m 0,-8.831 c -2.688,0 -4.875,2.187 -4.875,4.876 0,2.688 2.187,4.875 4.875,4.875 2.688,0 4.876,-2.187 4.876,-4.875 0,-2.689 -2.188,-4.876 -4.876,-4.876"
         style="fill:#231f20;fill-opacity:1;fill-rule:nonzero;stroke:none"
         transform="matrix(0.35277776,0,0,-0.35277776,172.05279,165.71641)"
         clip-path="url(#clipPath52)" />
      <path
         id="path53"
         d="m 0,0 c 0,3.134 -0.385,5.877 -1.156,8.227 -0.771,2.351 -1.838,4.309 -3.199,5.877 -1.362,1.567 -2.98,2.736 -4.855,3.507 -1.876,0.771 -3.931,1.156 -6.166,1.156 -2.235,0 -4.29,-0.385 -6.165,-1.156 -1.876,-0.771 -3.494,-1.94 -4.855,-3.507 -1.363,-1.568 -2.428,-3.526 -3.199,-5.877 -0.771,-2.35 -1.156,-5.093 -1.156,-8.227 0,-3.135 0.385,-5.877 1.156,-8.227 0.771,-2.351 1.836,-4.304 3.199,-5.858 1.361,-1.554 2.979,-2.722 4.855,-3.505 1.875,-0.785 3.93,-1.176 6.165,-1.176 2.235,0 4.29,0.391 6.166,1.176 1.875,0.783 3.493,1.951 4.855,3.505 1.361,1.554 2.428,3.507 3.199,5.858 C -0.385,-5.877 0,-3.135 0,0 m 1.04,-19.19 c 0.642,0.18 1.374,0.347 2.197,0.501 0.822,0.153 1.676,0.282 2.562,0.384 0.886,0.103 1.773,0.18 2.659,0.232 0.886,0.051 1.753,0.077 2.601,0.077 h 0.733 v -8.207 c -1.362,0.128 -3.006,0.231 -4.933,0.308 -1.927,0.077 -3.969,0.115 -6.127,0.115 -1.619,0 -3.07,-0.038 -4.355,-0.115 -1.284,-0.077 -2.575,-0.161 -3.872,-0.251 -1.298,-0.089 -2.647,-0.173 -4.046,-0.25 -1.401,-0.077 -2.769,-0.115 -4.105,-0.115 -4.033,0 -7.591,0.642 -10.674,1.926 -3.082,1.284 -5.678,3.095 -7.784,5.434 -2.107,2.337 -3.699,5.131 -4.778,8.381 -1.079,3.249 -1.619,6.84 -1.619,10.77 0,3.93 0.559,7.533 1.677,10.809 1.117,3.276 2.749,6.094 4.894,8.458 2.145,2.363 4.778,4.201 7.899,5.51 3.122,1.311 6.673,1.967 10.655,1.967 3.982,0 7.534,-0.656 10.655,-1.967 3.122,-1.309 5.754,-3.133 7.9,-5.47 C 5.323,16.968 6.955,14.188 8.073,10.963 9.19,7.739 9.749,4.213 9.749,0.385 9.749,-1.619 9.557,-3.571 9.171,-5.472 8.786,-7.374 8.227,-9.145 7.495,-10.79 6.762,-12.433 5.844,-13.968 4.74,-15.394 3.635,-16.821 2.376,-18.048 0.963,-19.074 Z"
         style="fill:#231f20;fill-opacity:1;fill-rule:nonzero;stroke:none"
         transform="matrix(0.35277776,0,0,-0.35277776,50.800337,177.62488)"
         clip-path="url(#clipPath54)" />
      <path
         id="path55"
         d="m 0,0 c -2.698,0 -5.125,0.264 -7.283,0.79 -2.159,0.526 -4.06,1.283 -5.704,2.273 -1.644,0.989 -3.044,2.197 -4.2,3.622 -1.156,1.426 -2.08,3.038 -2.774,4.837 -0.566,1.437 -0.971,3.031 -1.214,4.778 -0.245,1.746 -0.366,3.699 -0.366,5.858 V 52.522 H -12.1 V 23.004 c 0,-3.647 0.436,-6.498 1.31,-8.554 0.976,-2.287 2.402,-3.937 4.277,-4.952 1.875,-1.015 4.085,-1.521 6.629,-1.521 2.542,0 4.752,0.506 6.627,1.521 1.875,1.015 3.301,2.665 4.278,4.952 0.873,2.056 1.31,4.907 1.31,8.554 v 29.518 h 9.441 V 22.158 C 21.772,19.999 21.65,18.046 21.406,16.3 21.162,14.553 20.757,12.959 20.192,11.522 19.498,9.723 18.567,8.111 17.398,6.685 16.229,5.26 14.803,4.052 13.121,3.063 11.438,2.073 9.505,1.316 7.322,0.79 5.137,0.264 2.697,0 0,0"
         style="fill:#231f20;fill-opacity:1;fill-rule:nonzero;stroke:none"
         transform="matrix(0.35277776,0,0,-0.35277776,64.814707,187.05908)"
         clip-path="url(#clipPath56)" />
      <path
         id="path57"
         d="m 0,0 c -1.803,-5.394 -3.411,-9.902 -4.824,-13.523 l -1.763,-4.588 H 6.741 l -1.763,4.588 C 3.581,-9.869 1.973,-5.363 0.154,0 Z M 9.786,-26.011 H -9.631 l -5.051,-13.141 h -10.057 l 20.462,51.56 h 8.631 l 20.463,-51.56 h -9.981 z"
         style="fill:#231f20;fill-opacity:1;fill-rule:nonzero;stroke:none"
         transform="matrix(0.35277776,0,0,-0.35277776,81.955924,172.90753)"
         clip-path="url(#clipPath58)" />
      <path
         id="path59"
         d="m 0,0 c 5.523,0 9.839,0.757 12.947,2.274 2.749,1.36 4.83,3.339 6.243,5.934 1.413,2.594 2.12,5.908 2.12,9.942 0,2.106 -0.232,4.008 -0.694,5.702 -0.463,1.696 -1.131,3.206 -2.004,4.529 -0.873,1.322 -1.933,2.46 -3.179,3.41 -1.246,0.95 -2.653,1.734 -4.22,2.351 C 9.749,34.706 8.118,35.117 6.319,35.374 4.521,35.631 2.505,35.76 0.27,35.76 H -3.892 V 0 Z M -13.333,-7.9 V 43.66 H 0.308 c 1.207,0 2.434,-0.038 3.68,-0.115 1.246,-0.078 2.46,-0.194 3.642,-0.348 1.181,-0.154 2.324,-0.341 3.429,-0.559 1.105,-0.217 2.12,-0.481 3.045,-0.789 2.749,-0.874 5.176,-2.056 7.283,-3.545 2.106,-1.491 3.873,-3.25 5.298,-5.28 1.426,-2.029 2.505,-4.296 3.237,-6.801 0.733,-2.504 1.099,-5.222 1.099,-8.15 0,-2.775 -0.309,-5.376 -0.926,-7.804 C 29.479,7.842 28.541,5.626 27.283,3.622 26.024,1.619 24.437,-0.149 22.524,-1.677 20.61,-3.205 18.342,-4.458 15.722,-5.434 13.538,-6.257 11.059,-6.873 8.285,-7.283 5.511,-7.694 2.389,-7.9 -1.079,-7.9 Z"
         style="fill:#231f20;fill-opacity:1;fill-rule:nonzero;stroke:none"
         transform="matrix(0.35277776,0,0,-0.35277776,97.100885,183.93248)"
         clip-path="url(#clipPath60)" />
      <path
         id="path61"
         d="M 0,0 H -9.442 V 51.559 H 23.391 V 43.66 H 0 V 30.327 h 19.999 v -7.9 H 0 Z"
         style="fill:#231f20;fill-opacity:1;fill-rule:nonzero;stroke:none"
         transform="matrix(0.35277776,0,0,-0.35277776,119.53247,186.71938)"
         clip-path="url(#clipPath62)" />
      <path
         id="path63"
         d="m 483.528,170.114 h 9.442 v -51.559 h -9.442 z"
         style="fill:#231f20;fill-opacity:1;fill-rule:nonzero;stroke:none"
         transform="matrix(0.35277776,0,0,-0.35277776,-40.942954,228.54285)"
         clip-path="url(#clipPath64)" />
      <path
         id="path65"
         d="m 0,0 v -43.66 h 24.122 v -7.899 H -9.442 V 0 Z"
         style="fill:#231f20;fill-opacity:1;fill-rule:nonzero;stroke:none"
         transform="matrix(0.35277776,0,0,-0.35277776,139.80008,168.53037)"
         clip-path="url(#clipPath66)" />
      <path
         id="path67"
         d="m 0,0 c 1.131,4.059 2.53,8.412 4.201,13.062 l 8.901,24.663 h 13.256 v -51.56 h -9.441 v 26.128 c 0,3.827 0.154,8.272 0.462,13.333 H 17.032 C 16.596,24.161 16.082,22.516 15.491,20.693 14.9,18.868 14.284,17.071 13.642,15.298 L 2.967,-13.835 h -6.088 l -10.674,29.133 c -0.643,1.773 -1.26,3.57 -1.85,5.395 -0.591,1.823 -1.105,3.468 -1.541,4.933 h -0.347 c 0.308,-4.754 0.463,-9.185 0.463,-13.295 v -26.166 h -9.442 v 51.56 h 13.179 L -4.431,13.179 C -2.942,9.094 -1.541,4.701 -0.231,0 Z"
         style="fill:#231f20;fill-opacity:1;fill-rule:nonzero;stroke:none"
         transform="matrix(0.35277776,0,0,-0.35277776,159.60346,181.83885)"
         clip-path="url(#clipPath68)" />
    </g>
  </g>
</svg>
