<?xml version="1.0" encoding="UTF-8" standalone="no"?>
<!-- Created with Inkscape (http://www.inkscape.org/) -->

<svg
   width="223mm"
   height="46mm"
   viewBox="0 0 223 46"
   version="1.1"
   id="svg1"
   inkscape:version="1.4.2 (ebf0e940d0, 2025-05-08)"
   sodipodi:docname="quadfilm-logo-yellow-rectagle.svg"
   xmlns:inkscape="http://www.inkscape.org/namespaces/inkscape"
   xmlns:sodipodi="http://sodipodi.sourceforge.net/DTD/sodipodi-0.dtd"
   xmlns="http://www.w3.org/2000/svg"
   xmlns:svg="http://www.w3.org/2000/svg">
  <sodipodi:namedview
     id="namedview1"
     pagecolor="#ffffff"
     bordercolor="#000000"
     borderopacity="0.25"
     inkscape:showpageshadow="2"
     inkscape:pageopacity="0.0"
     inkscape:pagecheckerboard="false"
     inkscape:deskcolor="#d1d1d1"
     inkscape:document-units="mm"
     inkscape:clip-to-page="true"
     showgrid="true"
     inkscape:zoom="0.77415123"
     inkscape:cx="275.14004"
     inkscape:cy="299.68305"
     inkscape:window-width="1916"
     inkscape:window-height="1021"
     inkscape:window-x="0"
     inkscape:window-y="0"
     inkscape:window-maximized="0"
     inkscape:current-layer="layer1" />
  <defs
     id="defs1">
    <clipPath
       clipPathUnits="userSpaceOnUse"
       id="clipPath2">
      <path
         d="M 0,595.276 H 841.89 V 0 H 0 Z"
         transform="translate(-388.64891,-346.10461)"
         id="path2" />
    </clipPath>
    <clipPath
       clipPathUnits="userSpaceOnUse"
       id="clipPath4">
      <path
         d="M 0,595.276 H 841.89 V 0 H 0 Z"
         transform="translate(-408.39161,-329.75831)"
         id="path4" />
    </clipPath>
    <clipPath
       clipPathUnits="userSpaceOnUse"
       id="clipPath6">
      <path
         d="M 0,595.276 H 841.89 V 0 H 0 Z"
         transform="translate(-437.42801,-340.18381)"
         id="path6" />
    </clipPath>
    <clipPath
       clipPathUnits="userSpaceOnUse"
       id="clipPath8">
      <path
         d="M 0,595.276 H 841.89 V 0 H 0 Z"
         transform="translate(-450.68601,-341.31541)"
         id="path8" />
    </clipPath>
    <clipPath
       clipPathUnits="userSpaceOnUse"
       id="clipPath10">
      <path
         d="M 0,595.276 H 841.89 V 0 H 0 Z"
         transform="translate(-476.36091,-238.4972)"
         id="path10" />
    </clipPath>
    <clipPath
       clipPathUnits="userSpaceOnUse"
       id="clipPath12">
      <path
         d="M 0,595.276 H 841.89 V 0 H 0 Z"
         transform="translate(-526.32022,-268.2893)"
         id="path12" />
    </clipPath>
    <clipPath
       clipPathUnits="userSpaceOnUse"
       id="clipPath14">
      <path
         d="M 0,595.276 H 841.89 V 0 H 0 Z"
         transform="translate(-526.01452,-455.90341)"
         id="path14" />
    </clipPath>
    <clipPath
       clipPathUnits="userSpaceOnUse"
       id="clipPath16">
      <path
         d="M 0,595.276 H 841.89 V 0 H 0 Z"
         transform="translate(-604.66361,-160.08691)"
         id="path16" />
    </clipPath>
    <clipPath
       clipPathUnits="userSpaceOnUse"
       id="clipPath18">
      <path
         d="M 0,595.276 H 841.89 V 0 H 0 Z"
         transform="translate(-603.76751,-162.8342)"
         id="path18" />
    </clipPath>
    <clipPath
       clipPathUnits="userSpaceOnUse"
       id="clipPath20">
      <path
         d="M 0,595.276 H 841.89 V 0 H 0 Z"
         transform="translate(-260.05971,-129.0779)"
         id="path20" />
    </clipPath>
    <clipPath
       clipPathUnits="userSpaceOnUse"
       id="clipPath22">
      <path
         d="M 0,595.276 H 841.89 V 0 H 0 Z"
         transform="translate(-299.78551,-102.3352)"
         id="path22" />
    </clipPath>
    <clipPath
       clipPathUnits="userSpaceOnUse"
       id="clipPath24">
      <path
         d="M 0,595.276 H 841.89 V 0 H 0 Z"
         transform="translate(-348.37481,-142.44991)"
         id="path24" />
    </clipPath>
    <clipPath
       clipPathUnits="userSpaceOnUse"
       id="clipPath26">
      <path
         d="M 0,595.276 H 841.89 V 0 H 0 Z"
         transform="translate(-391.30541,-111.1981)"
         id="path26" />
    </clipPath>
    <clipPath
       clipPathUnits="userSpaceOnUse"
       id="clipPath28">
      <path
         d="M 0,595.276 H 841.89 V 0 H 0 Z"
         transform="translate(-454.89101,-103.2982)"
         id="path28" />
    </clipPath>
    <clipPath
       clipPathUnits="userSpaceOnUse"
       id="clipPath30">
      <path
         d="M 0,595.276 H 841.89 V 0 H 0 Z"
         id="path30" />
    </clipPath>
    <clipPath
       clipPathUnits="userSpaceOnUse"
       id="clipPath32">
      <path
         d="M 0,595.276 H 841.89 V 0 H 0 Z"
         transform="translate(-512.34251,-154.85761)"
         id="path32" />
    </clipPath>
    <clipPath
       clipPathUnits="userSpaceOnUse"
       id="clipPath34">
      <path
         d="M 0,595.276 H 841.89 V 0 H 0 Z"
         transform="translate(-568.47802,-117.1328)"
         id="path34" />
    </clipPath>
    <clipPath
       clipPathUnits="userSpaceOnUse"
       id="clipPath70">
      <path
         d="M 0,595.276 H 841.89 V 0 H 0 Z"
         transform="translate(-167.69363,-304.28231)"
         id="path70" />
    </clipPath>
    <clipPath
       clipPathUnits="userSpaceOnUse"
       id="clipPath72">
      <path
         d="M 0,595.276 H 841.89 V 0 H 0 Z"
         transform="translate(-177.3579,-296.2805)"
         id="path72" />
    </clipPath>
    <clipPath
       clipPathUnits="userSpaceOnUse"
       id="clipPath74">
      <path
         d="M 0,595.276 H 841.89 V 0 H 0 Z"
         transform="translate(-191.57153,-301.38401)"
         id="path74" />
    </clipPath>
    <clipPath
       clipPathUnits="userSpaceOnUse"
       id="clipPath76">
      <path
         d="M 0,595.276 H 841.89 V 0 H 0 Z"
         transform="translate(-198.0615,-301.93791)"
         id="path76" />
    </clipPath>
    <clipPath
       clipPathUnits="userSpaceOnUse"
       id="clipPath78">
      <path
         d="M 0,595.276 H 841.89 V 0 H 0 Z"
         transform="translate(-210.62971,-251.60711)"
         id="path78" />
    </clipPath>
    <clipPath
       clipPathUnits="userSpaceOnUse"
       id="clipPath80">
      <path
         d="M 0,595.276 H 841.89 V 0 H 0 Z"
         transform="translate(-235.08541,-266.19071)"
         id="path80" />
    </clipPath>
    <clipPath
       clipPathUnits="userSpaceOnUse"
       id="clipPath82">
      <path
         d="M 0,595.276 H 841.89 V 0 H 0 Z"
         transform="translate(-234.93578,-358.03021)"
         id="path82" />
    </clipPath>
    <clipPath
       clipPathUnits="userSpaceOnUse"
       id="clipPath84">
      <path
         d="M 0,595.276 H 841.89 V 0 H 0 Z"
         transform="translate(-741.13839,-341.52011)"
         id="path84" />
    </clipPath>
    <clipPath
       clipPathUnits="userSpaceOnUse"
       id="clipPath86">
      <path
         d="M 0,595.276 H 841.89 V 0 H 0 Z"
         transform="translate(-740.06484,-344.81141)"
         id="path86" />
    </clipPath>
    <clipPath
       clipPathUnits="userSpaceOnUse"
       id="clipPath88">
      <path
         d="M 0,595.276 H 841.89 V 0 H 0 Z"
         transform="translate(-328.28663,-304.36981)"
         id="path88" />
    </clipPath>
    <clipPath
       clipPathUnits="userSpaceOnUse"
       id="clipPath90">
      <path
         d="M 0,595.276 H 841.89 V 0 H 0 Z"
         transform="translate(-375.87998,-272.33081)"
         id="path90" />
    </clipPath>
    <clipPath
       clipPathUnits="userSpaceOnUse"
       id="clipPath92">
      <path
         d="M 0,595.276 H 841.89 V 0 H 0 Z"
         transform="translate(-434.09229,-320.39011)"
         id="path92" />
    </clipPath>
    <clipPath
       clipPathUnits="userSpaceOnUse"
       id="clipPath94">
      <path
         d="M 0,595.276 H 841.89 V 0 H 0 Z"
         transform="translate(-485.52511,-282.94891)"
         id="path94" />
    </clipPath>
    <clipPath
       clipPathUnits="userSpaceOnUse"
       id="clipPath96">
      <path
         d="M 0,595.276 H 841.89 V 0 H 0 Z"
         transform="translate(-561.70374,-273.48451)"
         id="path96" />
    </clipPath>
    <clipPath
       clipPathUnits="userSpaceOnUse"
       id="clipPath98">
      <path
         d="M 0,595.276 H 841.89 V 0 H 0 Z"
         id="path98" />
    </clipPath>
    <clipPath
       clipPathUnits="userSpaceOnUse"
       id="clipPath100">
      <path
         d="M 0,595.276 H 841.89 V 0 H 0 Z"
         transform="translate(-630.53334,-335.25511)"
         id="path100" />
    </clipPath>
    <clipPath
       clipPathUnits="userSpaceOnUse"
       id="clipPath102">
      <path
         d="M 0,595.276 H 841.89 V 0 H 0 Z"
         transform="translate(-697.78629,-290.05901)"
         id="path102" />
    </clipPath>
  </defs>
  <g
     inkscape:label="Layer 1"
     inkscape:groupmode="layer"
     id="layer1"
     transform="translate(-42.862487,-85.460416)">
    <g
       id="g80"
       transform="translate(-0.01358878,0.21933739)">
      <path
         id="path69"
         d="M 0,0 C 0,1.039 -0.135,1.955 -0.404,2.749 -0.674,3.541 -1.046,4.203 -1.519,4.734 -1.992,5.266 -2.55,5.668 -3.193,5.94 -3.836,6.214 -4.527,6.35 -5.265,6.35 -6.004,6.35 -6.696,6.214 -7.338,5.94 -7.981,5.668 -8.539,5.266 -9.012,4.734 -9.486,4.203 -9.857,3.541 -10.127,2.749 -10.396,1.955 -10.531,1.039 -10.531,0 c 0,-1.039 0.137,-1.953 0.41,-2.742 0.273,-0.79 0.647,-1.45 1.12,-1.981 0.473,-0.531 1.032,-0.932 1.674,-1.201 0.643,-0.269 1.337,-0.404 2.084,-0.404 0.739,0 1.426,0.135 2.062,0.404 0.635,0.269 1.189,0.67 1.662,1.201 0.473,0.531 0.845,1.191 1.115,1.981 C -0.135,-1.953 0,-1.039 0,0 M 1.986,0.161 C 1.986,-0.578 1.909,-1.278 1.755,-1.94 1.601,-2.602 1.381,-3.212 1.096,-3.77 0.811,-4.329 0.472,-4.827 0.074,-5.266 -0.322,-5.705 -0.759,-6.074 -1.236,-6.374 V -6.42 c 0.639,0.1 1.243,0.177 1.813,0.231 0.569,0.053 1.147,0.073 1.732,0.058 v -1.698 c -0.362,0.024 -0.754,0.048 -1.178,0.075 -0.423,0.027 -0.912,0.041 -1.466,0.041 -0.416,0 -0.835,-0.012 -1.258,-0.035 -0.425,-0.023 -0.844,-0.05 -1.26,-0.081 -0.415,-0.031 -0.823,-0.058 -1.223,-0.081 -0.401,-0.022 -0.782,-0.035 -1.143,-0.035 -1.147,0 -2.174,0.193 -3.078,0.578 -0.905,0.385 -1.668,0.925 -2.292,1.622 -0.623,0.697 -1.101,1.534 -1.431,2.512 -0.331,0.977 -0.497,2.055 -0.497,3.233 0,1.178 0.171,2.258 0.514,3.238 0.342,0.982 0.827,1.827 1.454,2.535 0.628,0.708 1.388,1.261 2.281,1.657 0.893,0.397 1.894,0.595 3.003,0.595 1.131,0 2.145,-0.198 3.042,-0.595 C -1.326,7.034 -0.566,6.485 0.058,5.785 0.681,5.084 1.159,4.253 1.489,3.291 1.82,2.329 1.986,1.286 1.986,0.161"
         style="fill:#ffdd00;fill-opacity:1;fill-rule:nonzero;stroke:none"
         transform="matrix(0.35277776,0,0,-0.35277776,61.909256,110.06459)"
         clip-path="url(#clipPath70)" />
      <path
         id="path71"
         d="M 0,0 C -0.57,0 -1.081,0.061 -1.536,0.184 -1.99,0.308 -2.388,0.48 -2.731,0.704 -3.074,0.927 -3.364,1.194 -3.602,1.507 -3.841,1.819 -4.03,2.159 -4.168,2.529 -4.276,2.805 -4.353,3.11 -4.399,3.441 -4.445,3.771 -4.468,4.133 -4.468,4.526 v 6.732 h 1.79 V 4.537 c 0,-0.608 0.08,-1.115 0.242,-1.524 0.185,-0.462 0.482,-0.825 0.894,-1.091 0.412,-0.266 0.938,-0.398 1.577,-0.398 0.677,0 1.222,0.146 1.634,0.438 0.412,0.293 0.706,0.686 0.883,1.178 0.131,0.377 0.196,0.843 0.196,1.397 v 6.721 h 1.79 V 4.514 C 4.538,4.145 4.517,3.8 4.475,3.481 4.432,3.161 4.364,2.867 4.273,2.598 4.134,2.221 3.943,1.872 3.701,1.553 3.458,1.233 3.16,0.958 2.806,0.727 2.452,0.496 2.042,0.317 1.577,0.19 1.11,0.063 0.586,0 0,0"
         style="fill:#ffdd00;fill-opacity:1;fill-rule:nonzero;stroke:none"
         transform="matrix(0.35277776,0,0,-0.35277776,65.318597,112.88745)"
         clip-path="url(#clipPath72)" />
      <path
         id="path73"
         d="m 0,0 c -0.33,0.092 -0.72,0.18 -1.173,0.266 -0.452,0.085 -0.95,0.13 -1.494,0.138 -0.758,0 -1.352,-0.161 -1.782,-0.485 -0.428,-0.323 -0.643,-0.82 -0.643,-1.49 0,-0.338 0.054,-0.634 0.161,-0.888 0.107,-0.254 0.254,-0.465 0.443,-0.63 0.188,-0.165 0.409,-0.289 0.666,-0.369 0.257,-0.081 0.531,-0.121 0.822,-0.121 0.383,0 0.74,0.055 1.069,0.167 0.33,0.111 0.623,0.244 0.879,0.398 0.257,0.154 0.475,0.308 0.656,0.462 0.18,0.154 0.312,0.273 0.396,0.358 z M 0.093,-3.603 H 0.046 C -0.1,-3.787 -0.285,-3.97 -0.508,-4.151 c -0.223,-0.181 -0.481,-0.342 -0.773,-0.485 -0.293,-0.142 -0.613,-0.256 -0.959,-0.34 -0.346,-0.085 -0.716,-0.127 -1.109,-0.127 -0.531,0 -1.017,0.078 -1.46,0.236 -0.442,0.158 -0.824,0.388 -1.144,0.693 -0.319,0.304 -0.567,0.675 -0.744,1.114 -0.178,0.439 -0.265,0.936 -0.265,1.489 0,0.547 0.098,1.035 0.294,1.467 0.197,0.431 0.471,0.796 0.826,1.097 0.353,0.301 0.779,0.531 1.275,0.693 0.497,0.161 1.046,0.242 1.646,0.242 0.57,-0.008 1.097,-0.058 1.582,-0.15 0.485,-0.092 0.916,-0.208 1.293,-0.346 H 0 v 0.762 c 0,0.3 -0.019,0.566 -0.058,0.796 -0.038,0.232 -0.103,0.435 -0.196,0.613 -0.2,0.369 -0.52,0.675 -0.958,0.918 -0.439,0.242 -1.032,0.363 -1.778,0.363 -0.555,0 -1.076,-0.051 -1.565,-0.156 C -5.044,4.625 -5.531,4.48 -6.016,4.295 v 1.502 c 0.185,0.092 0.403,0.178 0.652,0.259 0.251,0.081 0.515,0.151 0.792,0.208 0.277,0.058 0.57,0.102 0.877,0.133 0.308,0.031 0.616,0.046 0.924,0.046 1.109,0 2.015,-0.196 2.719,-0.589 C 0.653,5.462 1.159,4.942 1.466,4.295 1.582,4.049 1.664,3.777 1.715,3.481 1.765,3.185 1.79,2.86 1.79,2.506 V -4.815 H 0.289 Z"
         style="fill:#ffdd00;fill-opacity:1;fill-rule:nonzero;stroke:none"
         transform="matrix(0.35277776,0,0,-0.35277776,70.332848,111.08705)"
         clip-path="url(#clipPath74)" />
      <path
         id="path75"
         d="m 0,0 c 0,-0.631 0.071,-1.203 0.214,-1.714 0.142,-0.512 0.348,-0.947 0.618,-1.305 0.269,-0.358 0.6,-0.633 0.993,-0.826 0.392,-0.193 0.842,-0.288 1.35,-0.288 0.377,0 0.72,0.05 1.028,0.15 0.308,0.1 0.583,0.227 0.826,0.381 0.242,0.153 0.45,0.317 0.623,0.491 0.174,0.172 0.31,0.333 0.41,0.478 V 3.106 C 5.692,3.484 5.266,3.786 4.78,4.013 4.295,4.24 3.772,4.353 3.21,4.353 2.871,4.353 2.515,4.29 2.142,4.163 1.769,4.036 1.422,3.807 1.103,3.476 0.783,3.145 0.52,2.7 0.312,2.142 0.104,1.583 0,0.87 0,0 m -1.87,-0.023 c 0,0.763 0.074,1.438 0.225,2.026 0.15,0.589 0.348,1.103 0.594,1.542 0.246,0.439 0.535,0.806 0.866,1.103 0.331,0.296 0.674,0.537 1.028,0.722 0.354,0.185 0.714,0.317 1.08,0.398 0.365,0.081 0.71,0.121 1.033,0.121 0.67,0 1.251,-0.112 1.743,-0.334 C 5.192,5.331 5.635,5.003 6.027,4.573 h 0.035 v 6.777 h 1.79 V -5.369 H 6.501 l -0.37,1.224 H 6.085 C 5.946,-4.323 5.785,-4.501 5.6,-4.682 5.415,-4.863 5.198,-5.026 4.947,-5.173 4.698,-5.319 4.409,-5.437 4.081,-5.525 3.755,-5.614 3.375,-5.657 2.945,-5.657 c -0.601,0 -1.19,0.101 -1.767,0.306 -0.578,0.203 -1.091,0.531 -1.542,0.981 -0.45,0.45 -0.814,1.032 -1.091,1.743 -0.277,0.712 -0.415,1.58 -0.415,2.604"
         style="fill:#ffdd00;fill-opacity:1;fill-rule:nonzero;stroke:none"
         transform="matrix(0.35277776,0,0,-0.35277776,72.622367,110.89165)"
         clip-path="url(#clipPath76)" />
      <path
         id="path77"
         d="M 0,0 C 0,0 7.18,0.823 10.171,5.534 L 0,16.827 Z"
         style="fill:#ffdd00;fill-opacity:1;fill-rule:nonzero;stroke:none"
         transform="matrix(0.35277776,0,0,-0.35277776,77.056149,128.64723)"
         clip-path="url(#clipPath78)" />
      <path
         id="path79"
         d="M 0,0 -21.165,2.244 0.299,-21.314 11.517,-13.91 Z"
         style="fill:#ffdd00;fill-opacity:1;fill-rule:nonzero;stroke:none"
         transform="matrix(0.35277776,0,0,-0.35277776,85.683576,123.50246)"
         clip-path="url(#clipPath80)" />
      <path
         id="path81"
         d="m 0,0 c -11.817,16.004 -29.317,15.93 -29.317,15.93 0,0 -49.135,0.149 -59.755,0 -10.62,-0.15 -20.043,-9.573 -20.043,-9.573 -12.565,-12.564 -12.116,-27.971 -12.116,-27.971 v -54.929 -3.59 -2.393 -0.72 c 0.057,-2.638 0.781,-12.106 7.905,-20.743 0.716,-0.755 1.493,-1.49 2.344,-2.192 0.074,-0.061 0.143,-0.113 0.215,-0.17 4.624,-3.846 11.283,-6.601 20.913,-6.601 1.161,-0.187 1.829,-0.202 1.829,-0.202 h 46.293 l 12.639,6.806 c 0,0 -52.201,12.639 -61.251,14.733 -1.107,0.256 -2.087,0.552 -2.962,0.873 -0.061,0.02 -0.114,0.046 -0.174,0.067 -0.458,0.172 -0.884,0.352 -1.282,0.537 -5.277,2.631 -5.454,8.509 -5.454,8.509 v 58.669 c 0,2.992 0.449,6.357 0.449,6.357 2.842,10.321 12.265,11.218 12.265,11.218 h 57.288 c 2.842,0 4.936,-0.748 4.936,-0.748 8.974,-4.337 10.769,-11.667 10.769,-11.667 l 13.462,-64.616 h 8.376 v 60.428 C 7.329,-12.415 0,0 0,0"
         style="fill:#ffdd00;fill-opacity:1;fill-rule:nonzero;stroke:none"
         transform="matrix(0.35277776,0,0,-0.35277776,85.630792,91.103527)"
         clip-path="url(#clipPath82)" />
      <path
         id="path83"
         d="m 0,0 c -0.168,0.131 -0.405,0.196 -0.71,0.196 h -1.187 v -1.561 h 1.194 c 0.292,0 0.524,0.071 0.697,0.213 0.172,0.141 0.258,0.332 0.258,0.571 C 0.252,-0.324 0.168,-0.13 0,0 m 0.265,-3.699 -1.141,1.614 H -1.897 V -3.699 H -2.704 V 0.93 h 2.064 c 0.264,0 0.503,-0.034 0.717,-0.102 C 0.291,0.759 0.471,0.662 0.619,0.537 0.767,0.411 0.88,0.257 0.96,0.074 1.039,-0.109 1.079,-0.313 1.079,-0.538 1.079,-0.732 1.051,-0.905 0.996,-1.057 0.941,-1.209 0.865,-1.344 0.768,-1.461 0.671,-1.577 0.555,-1.676 0.421,-1.758 0.286,-1.839 0.138,-1.902 -0.025,-1.947 l 1.249,-1.752 z"
         style="fill:#ffdd00;fill-opacity:1;fill-rule:nonzero;stroke:none"
         transform="matrix(0.35277776,0,0,-0.35277776,264.20782,96.927925)"
         clip-path="url(#clipPath84)" />
      <path
         id="path85"
         d="m 0,0 c -2.613,0 -4.738,-2.126 -4.738,-4.738 0,-2.614 2.125,-4.739 4.738,-4.739 2.613,0 4.739,2.125 4.739,4.739 C 4.739,-2.126 2.613,0 0,0 m 0,-10.58 c -3.22,0 -5.841,2.621 -5.841,5.842 0,3.22 2.621,5.84 5.841,5.84 3.221,0 5.841,-2.62 5.841,-5.84 0,-3.221 -2.62,-5.842 -5.841,-5.842"
         style="fill:#ffdd00;fill-opacity:1;fill-rule:nonzero;stroke:none"
         transform="matrix(0.35277776,0,0,-0.35277776,263.82909,95.766827)"
         clip-path="url(#clipPath86)" />
      <path
         id="path87"
         d="m 0,0 c 0,3.754 -0.462,7.04 -1.385,9.857 -0.924,2.816 -2.202,5.162 -3.832,7.04 -1.632,1.878 -3.571,3.278 -5.818,4.201 -2.246,0.924 -4.708,1.386 -7.386,1.386 -2.677,0 -5.14,-0.462 -7.386,-1.386 -2.248,-0.923 -4.186,-2.323 -5.817,-4.201 -1.633,-1.878 -2.909,-4.224 -3.832,-7.04 C -36.38,7.04 -36.842,3.754 -36.842,0 c 0,-3.756 0.462,-7.04 1.386,-9.857 0.923,-2.816 2.199,-5.155 3.832,-7.017 1.631,-1.862 3.569,-3.262 5.817,-4.2 2.246,-0.94 4.709,-1.408 7.386,-1.408 2.678,0 5.14,0.468 7.386,1.408 2.247,0.938 4.186,2.338 5.818,4.2 1.63,1.862 2.908,4.201 3.832,7.017 C -0.462,-7.04 0,-3.756 0,0 m 1.246,-22.991 c 0.769,0.216 1.646,0.416 2.631,0.601 0.986,0.183 2.009,0.337 3.071,0.46 1.061,0.123 2.123,0.216 3.186,0.277 1.061,0.062 2.1,0.093 3.116,0.093 h 0.877 v -9.832 c -1.632,0.153 -3.601,0.277 -5.909,0.369 -2.309,0.092 -4.756,0.138 -7.341,0.138 -1.939,0 -3.679,-0.046 -5.217,-0.138 -1.539,-0.092 -3.086,-0.193 -4.64,-0.301 -1.555,-0.107 -3.17,-0.208 -4.847,-0.3 -1.678,-0.093 -3.317,-0.138 -4.917,-0.138 -4.833,0 -9.095,0.77 -12.789,2.307 -3.692,1.54 -6.802,3.709 -9.325,6.511 -2.524,2.8 -4.432,6.148 -5.724,10.041 -1.293,3.892 -1.94,8.194 -1.94,12.903 0,4.709 0.67,9.025 2.009,12.95 1.339,3.924 3.293,7.301 5.863,10.133 2.57,2.831 5.724,5.033 9.464,6.602 3.74,1.57 7.994,2.356 12.765,2.356 4.77,0 9.025,-0.786 12.765,-2.356 3.74,-1.569 6.894,-3.755 9.465,-6.555 2.569,-2.801 4.524,-6.133 5.863,-9.996 1.338,-3.862 2.007,-8.087 2.007,-12.672 0,-2.402 -0.23,-4.74 -0.691,-7.018 -0.462,-2.278 -1.131,-4.401 -2.009,-6.371 -0.877,-1.969 -1.978,-3.808 -3.301,-5.516 -1.323,-1.709 -2.832,-3.179 -4.524,-4.409 z"
         style="fill:#ffdd00;fill-opacity:1;fill-rule:nonzero;stroke:none"
         transform="matrix(0.35277776,0,0,-0.35277776,118.5629,110.03372)"
         clip-path="url(#clipPath88)" />
      <path
         id="path89"
         d="m 0,0 c -3.232,0 -6.14,0.316 -8.726,0.946 -2.586,0.631 -4.863,1.538 -6.832,2.724 -1.971,1.185 -3.648,2.631 -5.032,4.339 -1.386,1.708 -2.493,3.64 -3.325,5.795 -0.677,1.722 -1.162,3.631 -1.454,5.724 -0.293,2.092 -0.438,4.432 -0.438,7.018 v 36.378 h 11.311 V 27.56 c 0,-4.37 0.522,-7.785 1.569,-10.248 1.169,-2.74 2.878,-4.717 5.124,-5.932 2.247,-1.217 4.894,-1.823 7.942,-1.823 3.046,0 5.693,0.606 7.94,1.823 2.246,1.215 3.954,3.192 5.124,5.932 1.046,2.463 1.57,5.878 1.57,10.248 v 35.364 h 11.31 V 26.546 c 0,-2.586 -0.145,-4.926 -0.438,-7.018 C 25.353,17.435 24.867,15.526 24.191,13.804 23.36,11.649 22.244,9.717 20.844,8.009 19.443,6.301 17.735,4.855 15.72,3.67 13.703,2.484 11.387,1.577 8.772,0.946 6.155,0.316 3.231,0 0,0"
         style="fill:#ffdd00;fill-opacity:1;fill-rule:nonzero;stroke:none"
         transform="matrix(0.35277776,0,0,-0.35277776,135.35277,121.33637)"
         clip-path="url(#clipPath90)" />
      <path
         id="path91"
         d="m 0,0 c -2.16,-6.462 -4.086,-11.862 -5.779,-16.202 l -2.112,-5.496 H 8.076 l -2.112,5.496 C 4.29,-11.824 2.363,-6.425 0.185,0 Z M 11.724,-31.162 H -11.538 L -17.59,-46.906 H -29.638 L -5.124,14.865 H 5.217 L 29.732,-46.906 H 17.774 Z"
         style="fill:#ffdd00;fill-opacity:1;fill-rule:nonzero;stroke:none"
         transform="matrix(0.35277776,0,0,-0.35277776,155.88878,104.38212)"
         clip-path="url(#clipPath92)" />
      <path
         id="path93"
         d="m 0,0 c 6.617,0 11.787,0.907 15.512,2.724 3.293,1.63 5.786,4 7.479,7.11 1.692,3.108 2.539,7.077 2.539,11.911 0,2.523 -0.277,4.801 -0.831,6.831 -0.554,2.032 -1.355,3.841 -2.401,5.425 -1.046,1.585 -2.316,2.948 -3.808,4.087 -1.493,1.137 -3.179,2.077 -5.056,2.816 -1.754,0.676 -3.709,1.168 -5.863,1.476 -2.154,0.308 -4.57,0.462 -7.248,0.462 H -4.663 V 0 Z m -15.974,-9.464 v 61.77 H 0.369 c 1.447,0 2.916,-0.045 4.409,-0.138 1.493,-0.092 2.947,-0.231 4.363,-0.416 1.415,-0.185 2.785,-0.408 4.109,-0.669 1.323,-0.261 2.539,-0.577 3.647,-0.946 3.293,-1.047 6.202,-2.463 8.725,-4.247 2.524,-1.786 4.64,-3.894 6.348,-6.326 1.709,-2.431 3.001,-5.146 3.878,-8.147 0.878,-3.001 1.316,-6.256 1.316,-9.764 0,-3.325 -0.369,-6.441 -1.108,-9.35 C 35.318,9.395 34.193,6.741 32.686,4.339 31.178,1.94 29.277,-0.178 26.984,-2.009 24.692,-3.84 21.975,-5.341 18.836,-6.511 16.22,-7.496 13.25,-8.235 9.925,-8.726 6.602,-9.218 2.862,-9.464 -1.293,-9.464 Z"
         style="fill:#ffdd00;fill-opacity:1;fill-rule:nonzero;stroke:none"
         transform="matrix(0.35277776,0,0,-0.35277776,174.03314,117.59054)"
         clip-path="url(#clipPath94)" />
      <path
         id="path95"
         d="M 0,0 H -11.312 V 61.771 H 28.023 V 52.306 H 0 V 36.333 H 23.96 V 26.868 H 0 Z"
         style="fill:#ffdd00;fill-opacity:1;fill-rule:nonzero;stroke:none"
         transform="matrix(0.35277776,0,0,-0.35277776,200.90726,120.92937)"
         clip-path="url(#clipPath96)" />
      <path
         id="path97"
         d="m 596.012,335.255 h 11.312 v -61.771 h -11.312 z"
         style="fill:#ffdd00;fill-opacity:1;fill-rule:nonzero;stroke:none"
         transform="matrix(0.35277776,0,0,-0.35277776,2.7506724,217.40862)"
         clip-path="url(#clipPath98)" />
      <path
         id="path99"
         d="m 0,0 v -52.306 h 28.9 v -9.465 H -11.312 V 0 Z"
         style="fill:#ffdd00;fill-opacity:1;fill-rule:nonzero;stroke:none"
         transform="matrix(0.35277776,0,0,-0.35277776,225.18881,99.138077)"
         clip-path="url(#clipPath100)" />
      <path
         id="path101"
         d="m 0,0 c 1.355,4.863 3.032,10.079 5.033,15.649 l 10.664,29.547 h 15.881 v -61.77 H 20.267 v 31.301 c 0,4.586 0.185,9.91 0.554,15.974 h -0.415 c -0.524,-1.755 -1.139,-3.726 -1.847,-5.91 -0.708,-2.186 -1.447,-4.339 -2.215,-6.463 L 3.555,-16.574 h -7.294 l -12.788,34.902 c -0.77,2.124 -1.509,4.277 -2.216,6.463 -0.708,2.184 -1.324,4.155 -1.847,5.91 h -0.415 c 0.369,-5.696 0.554,-11.004 0.554,-15.928 v -31.347 h -11.312 v 61.77 h 15.79 L -5.309,15.789 C -3.524,10.895 -1.846,5.632 -0.277,0 Z"
         style="fill:#ffdd00;fill-opacity:1;fill-rule:nonzero;stroke:none"
         transform="matrix(0.35277776,0,0,-0.35277776,248.91416,115.08226)"
         clip-path="url(#clipPath102)" />
    </g>
  </g>
</svg>
