<?xml version="1.0" encoding="UTF-8" standalone="no"?>
<svg
   version="1.2"
   viewBox="0 0 70 70"
   width="70"
   height="70"
   id="svg1"
   sodipodi:docname="rolls-films.svg"
   inkscape:version="1.4.2 (ebf0e940d0, 2025-05-08)"
   xmlns:inkscape="http://www.inkscape.org/namespaces/inkscape"
   xmlns:sodipodi="http://sodipodi.sourceforge.net/DTD/sodipodi-0.dtd"
   xmlns="http://www.w3.org/2000/svg"
   xmlns:svg="http://www.w3.org/2000/svg">
  <defs
     id="defs1" />
  <sodipodi:namedview
     id="namedview1"
     pagecolor="#ffffff"
     bordercolor="#000000"
     borderopacity="0.25"
     inkscape:showpageshadow="2"
     inkscape:pageopacity="0.0"
     inkscape:pagecheckerboard="0"
     inkscape:deskcolor="#d1d1d1"
     inkscape:zoom="7.3142857"
     inkscape:cx="34.863281"
     inkscape:cy="31.445313"
     inkscape:window-width="1916"
     inkscape:window-height="1021"
     inkscape:window-x="0"
     inkscape:window-y="0"
     inkscape:window-maximized="0"
     inkscape:current-layer="svg1" />
  <title
     id="title1">rolls-films</title>
  <style
     id="style1">
		.s0 { opacity: .98;fill: #00ecf5 } 
	</style>
  <path
     id="Path 0"
     fill-rule="evenodd"
     class="s0"
     d="m46 3.8c1.4 0.2 3.2 0.8 4 1.2 0.8 0.5 2.3 1.6 3.3 2.6 0.9 1.1 2.1 3.5 2.6 5.4 0.6 2.4 0.4 4.5-0.4 6.5-0.7 1.6-8.6 10.3-17.6 19.2-15.6 15.5-16.6 16.3-20.4 16.3-2.9 0-4.6-0.6-6.1-2.2-1.2-1.3-2.4-3.3-2.8-4.5-0.3-1.3-0.1-3.3 0.4-4.5 0.6-1.3 2.1-2.9 3.5-3.5 1.4-0.7 2.9-1.3 3.5-1.3 0.6 0 1.2 0.7 1.5 1.5 0.3 0.9-0.5 2-2.2 2.8-1.5 0.6-2.9 2-3 3-0.2 0.9 0.6 2.6 1.7 3.7q2 2 4.3 1.4c1.2-0.3 3-1.5 4-2.7 1.3-1.6 1.7-3.1 1.3-5.2-0.4-1.6-1.6-3.9-2.7-5-1.4-1.4-3.3-2-6.5-2-3.9 0-5 0.5-7.5 3.3-2.3 2.6-2.9 4.1-2.9 8 0 2.9 0.7 5.9 2 8 1.1 1.7 3.5 3.9 5.3 4.8 2.2 1.1 5 1.5 8.8 1.3 4.5-0.3 6.5-1 9.5-3.5 2.2-1.7 4.7-4.6 5.6-6.5 0.9-1.9 1.7-4.6 1.8-6.1 0-2.2 3.1-5.9 15-17.8 8.2-8.2 15.7-15 16.7-15 1.6 0 1.7 0.5 1.1 4.5-0.5 2.5-1.4 5.7-2.2 7.3-0.8 1.5-9.3 10.6-19 20.2-10.1 10.1-19.2 18.2-21.3 19.2-2.1 1-5.9 1.8-8.5 1.8-2.8 0-6.4-0.8-8.8-2-2.2-1.1-5.1-3.5-6.5-5.2-1.4-1.8-2.8-5.1-3.1-7.3-0.4-2.2-0.4-5.7 0-7.7 0.5-3.2 3-6.2 14.9-18.4 7.8-8 16-16 18.2-17.7 2.2-1.7 5.4-3.4 7-3.8 1.7-0.4 4.1-0.4 5.5-0.1zm-20.5 17l-11 11c5.4 1.6 8.2 3.5 9.8 5.1 1.5 1.7 2.7 3.8 2.7 4.6 0 0.8 0.3 1.5 0.8 1.5 0.4 0 5.9-5.3 12.3-11.7 6.4-6.5 11.9-12.6 12.3-13.6 0.3-0.9 0-3.1-0.6-4.9-0.9-2-2.5-3.6-4.5-4.5-1.8-0.7-3.6-1.3-4-1.3-0.5 0.1-2.2 0.7-3.8 1.4-1.6 0.8-8 6.3-14 12.4zm15.3 25.2c0.1 0.9 4.4-2.7 10.8-9 5.8-5.8 11.1-11.7 11.9-13.3 0.7-1.5 1.3-2.7 1.2-2.7-0.1 0-5.6 5.3-12.2 11.8-6.6 6.4-11.9 12.4-11.7 13.2z"
     style="fill:#f6d72e;fill-opacity:1" />
</svg>
