<?xml version="1.0" encoding="UTF-8" standalone="no"?>
<svg
   version="1.2"
   viewBox="0 0 75 73"
   width="75"
   height="73"
   id="svg1"
   sodipodi:docname="served-customer.svg"
   inkscape:version="1.4.2 (ebf0e940d0, 2025-05-08)"
   xmlns:inkscape="http://www.inkscape.org/namespaces/inkscape"
   xmlns:sodipodi="http://sodipodi.sourceforge.net/DTD/sodipodi-0.dtd"
   xmlns="http://www.w3.org/2000/svg"
   xmlns:svg="http://www.w3.org/2000/svg"
   xmlns:rdf="http://www.w3.org/1999/02/22-rdf-syntax-ns#"
   xmlns:cc="http://creativecommons.org/ns#"
   xmlns:dc="http://purl.org/dc/elements/1.1/">
  <defs
     id="defs1" />
  <sodipodi:namedview
     id="namedview1"
     pagecolor="#ffffff"
     bordercolor="#000000"
     borderopacity="0.25"
     inkscape:showpageshadow="2"
     inkscape:pageopacity="0.0"
     inkscape:pagecheckerboard="0"
     inkscape:deskcolor="#d1d1d1"
     inkscape:zoom="11.90411"
     inkscape:cx="37.424051"
     inkscape:cy="26.377445"
     inkscape:window-width="1916"
     inkscape:window-height="1021"
     inkscape:window-x="0"
     inkscape:window-y="0"
     inkscape:window-maximized="0"
     inkscape:current-layer="svg1" />
  <title
     id="title1">served-customer</title>
  <style
     id="style1">
		.s0 { opacity: .98;fill: #00ecf5 } 
	</style>
  <path
     id="Path 0"
     fill-rule="evenodd"
     class="s0"
     d="m37.5 0.1c1.1-0.1 4.3 1 7 2.4 2.8 1.4 6.5 2.5 8.3 2.5 1.7 0 4.6 0.8 6.3 1.8 1.7 0.9 3.9 3.4 5 5.5 1 2 1.9 4.8 1.9 6.2 0 1.4-0.5 3.5-1.1 4.8-0.6 1.2-2.1 3.2-3.3 4.4-2.1 2.1-2.1 2.2-0.1 2.7 1.1 0.3 3.2 1.4 4.7 2.6 1.6 1.1 3.7 3.8 4.8 6 1.7 3.3 2 6 2 27l-5.8 0.2c-5.4 0.3-5.7 0.4-6.2 5.8h-48v-6h-12l0.3-11.3c0.2-9 0.6-12 2.3-15.2 1.1-2.2 3.9-5.4 10.1-10l-2.4-3.5c-1.4-2.1-2.3-5-2.3-7.3 0-2 0.7-5 1.5-6.7 0.8-1.7 3-3.9 4.8-5 1.8-1.1 4.9-2 7.2-2 2.5 0.1 4.5-0.5 5.2-1.5 0.7-0.8 2.7-1.9 4.5-2.4 1.8-0.5 4.2-1 5.3-1zm-10 9.9c-0.8 1.6-1.5 4.1-1.5 5.5 0 1.4 0.7 3.9 1.5 5.5 0.8 1.6 2.9 3.7 4.5 4.5 1.6 0.8 4.1 1.5 5.5 1.5 1.4 0 3.9-0.8 5.5-1.8 1.7-0.9 3.7-3.2 4.5-5 0.8-1.7 1.5-3.9 1.5-4.7 0-0.8-0.8-3.1-1.8-5.1-0.9-2-2.9-4.3-4.5-5-1.5-0.8-3.9-1.4-5.5-1.4-1.5 0.1-3.9 0.7-5.5 1.5-1.5 0.8-3.4 2.8-4.2 4.5zm-14.1 5c-0.6 1.9-0.9 4.4-0.7 5.5 0.2 1.1 1.5 3.3 3.1 4.8 2.1 2.2 3.6 2.8 6.9 2.7 2.4 0 4.3-0.2 4.3-0.5 0-0.3-0.9-1.7-2-3.3-1.1-1.5-2.3-4.3-2.7-6.2-0.3-1.9-0.1-5 0.6-6.8 0.9-2.5 0.8-3.2-0.2-3.2-0.6 0-2.8 0.8-4.7 1.8-2.4 1.2-3.8 2.8-4.6 5.2zm38.8 1.5c-0.1 2.2-1.1 5.5-2.2 7.2-1.1 1.8-2 3.5-2 3.8 0 0.3 1.8 0.5 4.1 0.5 3.2 0 4.7-0.6 7-3 2.1-2.2 2.9-4 2.9-6.5 0-2.4-0.8-4.4-2.8-6.5-1.5-1.6-3.9-3.2-5.4-3.6-2.4-0.6-2.6-0.5-2.1 1.7 0.4 1.3 0.6 4.2 0.5 6.4zm-32.6 21.8c-1.9 2.5-2.1 4.4-2.3 16.8l-0.3 13.9 40.5-0.5c0-26-0.2-27.6-2.1-30.2-1.1-1.5-3.6-3.8-5.5-5.1-2.9-1.9-4.7-2.3-12.5-2.2-7.7 0-9.5 0.3-12.4 2.2-1.8 1.3-4.3 3.6-5.4 5.1zm-12.4 2.7c-1.8 3.7-2.2 6.2-2.2 13.2v8.8h8c0.5-20.3 0.8-22 3.2-26.3 1.5-2.6 2.6-4.7 2.5-4.7-0.1 0-2.2 1-4.7 2.2-3.3 1.7-5.1 3.5-6.8 6.8zm52.4-3c0.5 0.8 1.1 6.7 1.4 13l0.5 11.5h8c-0.1-17.3-0.5-19.6-2.2-22.5-1.2-2-3.9-4.5-6.4-5.7-2.4-1.3-4.8-2.3-5.4-2.3-0.5 0-0.1 1 1.1 2.2 1.2 1.3 2.5 3 3 3.8z"
     style="fill:#f6d72e;fill-opacity:1" />
  <metadata
     id="metadata1">
    <rdf:RDF>
      <cc:Work
         rdf:about="">
        <dc:title>served-customer</dc:title>
      </cc:Work>
    </rdf:RDF>
  </metadata>
</svg>
