<?xml version="1.0" encoding="UTF-8" standalone="no"?>
<svg
   version="1.2"
   viewBox="0 0 81 80"
   width="81"
   height="80"
   id="svg1"
   sodipodi:docname="stars-reviews.svg"
   inkscape:version="1.4.2 (ebf0e940d0, 2025-05-08)"
   xmlns:inkscape="http://www.inkscape.org/namespaces/inkscape"
   xmlns:sodipodi="http://sodipodi.sourceforge.net/DTD/sodipodi-0.dtd"
   xmlns="http://www.w3.org/2000/svg"
   xmlns:svg="http://www.w3.org/2000/svg"
   xmlns:rdf="http://www.w3.org/1999/02/22-rdf-syntax-ns#"
   xmlns:cc="http://creativecommons.org/ns#"
   xmlns:dc="http://purl.org/dc/elements/1.1/">
  <defs
     id="defs1" />
  <sodipodi:namedview
     id="namedview1"
     pagecolor="#ffffff"
     bordercolor="#000000"
     borderopacity="0.25"
     inkscape:showpageshadow="2"
     inkscape:pageopacity="0.0"
     inkscape:pagecheckerboard="0"
     inkscape:deskcolor="#d1d1d1"
     inkscape:zoom="6.3209877"
     inkscape:cx="40.420898"
     inkscape:cy="40.025391"
     inkscape:window-width="1916"
     inkscape:window-height="1021"
     inkscape:window-x="0"
     inkscape:window-y="0"
     inkscape:window-maximized="0"
     inkscape:current-layer="svg1" />
  <title
     id="title1">stars-reviews</title>
  <style
     id="style1">
		.s0 { opacity: .98;fill: #00ecf5 } 
		.s1 { opacity: .97;fill: #00ecf5 } 
		.s2 { opacity: .48;fill: #00ecf5 } 
		.s3 { opacity: .56;fill: #00ecf5 } 
		.s4 { opacity: .44;fill: #00ecf5 } 
		.s5 { opacity: .4;fill: #00ecf5 } 
		.s6 { opacity: .22;fill: #00ecf5 } 
		.s7 { opacity: .17;fill: #00ecf5 } 
		.s8 { opacity: .52;fill: #00ecf5 } 
		.s9 { opacity: .8;fill: #00ecf5 } 
		.s10 { opacity: .32;fill: #00ecf5 } 
		.s11 { opacity: .13;fill: #00ecf5 } 
		.s12 { opacity: .71;fill: #00ecf5 } 
		.s13 { opacity: .66;fill: #00ecf5 } 
		.s14 { opacity: .86;fill: #00ecf5 } 
	</style>
  <path
     id="Path 0"
     fill-rule="evenodd"
     class="s0"
     d="m 43,1.6 c 1.9,0.3 5,0.9 6.8,1.5 C 51.5,3.6 53,4.5 53,5 53,5.5 52,5.7 50.7,5.4 49.5,5.1 46,4.6 43,4.3 39.8,4 35.9,4.3 33.6,5 c -2.2,0.7 -5.8,3.1 -8.1,5.4 -2.2,2.2 -4.6,5.9 -5.3,8.1 -0.6,2.2 -1.2,5.4 -1.2,7 0,1.6 0.7,5 1.5,7.5 0.9,2.5 2.4,5.3 3.3,6.3 0.9,1 2,1.8 2.5,1.7 0.4,0 0.7,-0.7 0.7,-1.5 0,-0.8 1.4,-3.1 3,-5 2.4,-2.8 2.8,-3.9 2,-5.5 -0.6,-1.1 -1,-3.4 -1,-5 0,-2.1 1.1,-4.1 3.4,-6.5 2.2,-2.2 4.3,-3.5 6,-3.5 1.4,0 4,0.7 5.6,1.5 1.6,0.8 3.5,2.4 4,3.5 0.5,1.1 1,3.4 1,5 0,1.6 -0.5,4 -1.1,5.3 -0.9,1.8 -0.8,2.3 0.5,3 0.9,0.4 2.6,2.4 3.8,4.5 1.2,2 2.3,3.9 2.5,4.2 0.2,0.3 1,-0.4 1.8,-1.5 0.9,-1.1 2.2,-3.6 3.1,-5.5 1.1,-2.4 1.4,-5.3 1.1,-9.5 -0.3,-3.3 -0.8,-7 -1.1,-8.3 C 61.3,15 61.5,14 62,14 c 0.5,0 1.5,1.7 2.1,3.8 0.6,2 1,6.4 0.8,9.8 -0.3,4.6 -1.1,7.2 -3.5,11 -1.7,2.9 -4.8,6 -7.5,7.7 -2.4,1.5 -6.6,3 -9.4,3.4 -3.1,0.4 -6.9,0.1 -10,-0.8 C 30.9,48 28.1,46.2 24.3,42.5 20.9,39.2 18.8,36.1 18.1,33.5 17.5,31.3 17,27.6 17,25.3 c 0,-2.4 0.7,-6 1.6,-8 0.8,-2.1 2.6,-5.3 4,-7 C 23.9,8.5 26.9,6 29.3,4.8 31.6,3.6 34.9,2.3 36.5,1.9 38.1,1.5 41.1,1.4 43,1.6 Z m -9.2,22.5 c 0,1.3 0.9,3.5 1.9,4.8 1.2,1.5 2.9,2.4 4.9,2.5 1.9,0.1 4,-0.7 5.3,-1.9 1.4,-1.3 2.2,-3.2 2.1,-5.3 0,-1.8 -0.8,-4 -2,-5.2 -1.1,-1.1 -3.3,-2 -4.8,-2 -1.6,0 -3.9,1 -5.2,2.3 -1.4,1.3 -2.3,3.4 -2.2,4.8 z M 29.5,41 c -0.5,2.1 -0.1,2.7 2.2,3.8 1.5,0.8 4.8,1.6 7.3,2 3,0.3 6.1,0 9.2,-1.1 2.9,-1 4.8,-2.3 4.8,-3.2 C 53,41.7 52.2,39.6 51.2,38 50.3,36.3 49.3,34.9 49,34.9 48.7,34.8 45.2,34.7 41.2,34.6 35,34.5 33.5,34.8 32,36.5 31,37.6 29.9,39.6 29.5,41 Z m -13.7,4 c 0.4,0 1.5,1.3 2.4,3 1.3,2.1 2.6,3 4.3,3 1.4,0 2.7,0.3 3,0.8 0.2,0.4 -0.5,1.8 -1.6,3.2 -1.5,1.9 -1.9,3.3 -1.5,5.8 0.6,2.9 0.4,3.2 -1.7,2.6 -1.2,-0.4 -3.3,-0.7 -4.7,-0.7 -1.4,0 -3.6,0.4 -4.9,0.9 C 8.7,64.5 8.6,64.4 9.3,61 9.8,58.3 9.6,57 8,55.3 6.9,54 6.2,52.5 6.5,52 c 0.3,-0.5 1.6,-1 3,-1 1.8,0 2.9,-0.9 4,-3 0.9,-1.6 1.9,-3 2.3,-3 z m -3.1,8.5 c -1.8,0.3 -2,0.7 -0.9,1.7 0.7,0.7 1.2,2 1.2,2.8 q 0,1.5 3,1.5 3,0 3,-1.5 c 0,-0.8 0.5,-2 1.2,-2.7 1,-0.9 0.8,-1.3 -1,-1.7 C 18,53.3 17,52.5 17,52 c 0,-0.5 -0.4,-1 -1,-1 -0.6,0 -1,0.5 -1,1 0,0.5 -1,1.2 -2.3,1.5 z M 41.2,54 c 0.4,0 1.6,1.7 2.7,3.8 1.6,3.2 2.5,3.8 6.2,4.4 2.4,0.4 4.6,1 4.9,1.3 0.3,0.3 -1,2 -2.8,3.8 -3,3 -3.3,3.6 -2.7,8 0.3,2.6 0.2,4.7 -0.3,4.7 -0.4,-0.1 -2.3,-0.9 -4.2,-1.9 -3.4,-1.8 -3.6,-1.8 -7.8,0 -2.3,1.1 -4.4,1.6 -4.6,1.2 -0.3,-0.5 -0.2,-2.4 0.1,-4.3 0.5,-2.9 0.1,-4.2 -2.3,-7.3 -1.6,-2.1 -2.7,-3.9 -2.4,-4.2 0.3,-0.2 2.3,-0.8 4.5,-1.2 3.2,-0.7 4.4,-1.6 6,-4.6 1,-2 2.3,-3.7 2.7,-3.7 z M 36,64.5 c -2.9,0.5 -2.9,0.6 -1.5,2.8 0.8,1.2 1.5,3.4 1.5,5 0,2.1 0.4,2.6 1.7,2.1 1,-0.4 2.5,-0.7 3.3,-0.7 0.8,0 2.3,0.3 3.2,0.7 1.4,0.5 1.8,0 1.8,-2.1 0,-1.6 0.8,-3.8 1.8,-5 C 49.5,65.1 49.5,65 47.3,65 45.9,65 44.4,64 43.5,62.5 42.7,61.1 41.6,60 41.1,60 c -0.6,0 -1.2,0.9 -1.5,2 -0.4,1.3 -1.7,2.2 -3.6,2.5 z"
     style="fill:#f6d72e;fill-opacity:1" />
  <path
     id="Path 13"
     fill-rule="evenodd"
     class="s0"
     d="m 57.5,8 c 0.3,0 0.7,0.4 1,1 0.3,0.6 -0.2,1 -1,1 -0.8,0 -1.3,-0.4 -1,-1 0.4,-0.6 0.8,-1 1,-1 z m 8.7,37 c 0.4,0 1.7,1.4 2.8,3 1.3,1.9 2.8,3 4.3,3 1.2,0 2.5,0.3 3,0.7 0.4,0.5 -0.3,1.8 -1.5,3.1 -1.8,1.8 -2.2,3.2 -1.9,6 0.3,3.5 0.2,3.7 -2,2.8 -1.3,-0.4 -3.3,-0.8 -4.4,-0.8 -1.1,0 -3,0.2 -4.2,0.6 -2.1,0.5 -2.3,0.3 -2.3,-3.1 0.1,-2.5 -0.6,-4.5 -1.9,-5.8 -1.2,-1.1 -1.8,-2.3 -1.6,-2.8 0.3,-0.4 1.6,-0.7 3,-0.7 1.7,0 3,-0.9 4.2,-3 1,-1.6 2.1,-3 2.5,-3 z m -1.7,7.5 C 63,53.9 62.6,55.3 63,57 c 0.4,2 1.1,2.5 3.6,2.5 2.1,0 3,-0.4 2.8,-1.3 -0.2,-0.6 0,-1.8 0.5,-2.5 0.7,-0.8 0.2,-1.8 -1.2,-3.2 l -2.2,-2 z"
     style="fill:#f6d72e;fill-opacity:1" />
  <metadata
     id="metadata1">
    <rdf:RDF>
      <cc:Work
         rdf:about="">
        <dc:title>stars-reviews</dc:title>
      </cc:Work>
    </rdf:RDF>
  </metadata>
</svg>
