<?xml version="1.0" encoding="UTF-8" standalone="no"?>
<svg
   version="1.2"
   viewBox="0 0 92 61"
   width="92"
   height="61"
   id="svg1"
   sodipodi:docname="years-exp.svg"
   inkscape:version="1.4.2 (ebf0e940d0, 2025-05-08)"
   xmlns:inkscape="http://www.inkscape.org/namespaces/inkscape"
   xmlns:sodipodi="http://sodipodi.sourceforge.net/DTD/sodipodi-0.dtd"
   xmlns="http://www.w3.org/2000/svg"
   xmlns:svg="http://www.w3.org/2000/svg">
  <defs
     id="defs1" />
  <sodipodi:namedview
     id="namedview1"
     pagecolor="#ffffff"
     bordercolor="#000000"
     borderopacity="0.25"
     inkscape:showpageshadow="2"
     inkscape:pageopacity="0.0"
     inkscape:pagecheckerboard="0"
     inkscape:deskcolor="#d1d1d1"
     inkscape:zoom="5.5652174"
     inkscape:cx="46"
     inkscape:cy="30.546875"
     inkscape:window-width="1916"
     inkscape:window-height="1021"
     inkscape:window-x="0"
     inkscape:window-y="0"
     inkscape:window-maximized="0"
     inkscape:current-layer="svg1" />
  <title
     id="title1">years-exp</title>
  <style
     id="style1">
		.s0 { opacity: .74;fill: #00ecf5 } 
	</style>
  <path
     id="Path 0"
     fill-rule="evenodd"
     class="s0"
     d="m49.5 2.4c6.3 0.2 11.4 1 13.8 2 3 1.3 4.3 2.8 7 8.3 2 4.1 3.6 6.3 4 5.5 0.4-0.7 2.7-1.2 5.8-1.2 2.9 0 5.5 0.5 6 1.2 0.5 0.7 0.9 2.3 0.9 3.5 0 1.7-1.1 2.8-4 4-3.8 1.7-3.9 1.9-2.2 3.7 1.4 1.5 1.8 4.1 2 14.5 0.3 11.3 0.1 12.7-1.5 13.9-1 0.7-3.5 1.2-5.6 1.2-2 0-4.6-0.5-5.7-1-1.1-0.5-2-1.9-2-3 0-1.9-0.7-2-21-2-20.3 0-21 0.1-21 2 0 1.1-0.9 2.5-2 3-1.1 0.5-3.8 1-6 1-2.2 0-4.7-0.7-5.5-1.5-1.2-1.2-1.5-4.1-1.5-12.8 0-9.4 0.3-11.7 4-17.7l-3.5-1c-2.5-0.7-3.6-1.7-4-3.5-0.3-1.4 0.1-3.2 0.7-4 0.8-1 2.9-1.6 5.8-1.6 2.5 0.1 4.9 0.5 5.5 1.1 0.7 0.7 2-1 4-5.1 1.6-3.4 3.9-6.8 5-7.5 1.1-0.8 4-1.8 6.5-2.3 2.5-0.6 9-0.9 14.5-0.7zm-18.3 5.1c-0.6 0.3-3.2 4.3-5.7 9-2.5 4.7-4.8 8.5-5.2 8.5-0.5 0-1.4-1.1-2-2.5-1-2-2.1-2.5-4.8-2.5q-3.5 0-3.2 1.2c0.2 0.7 2 1.6 4 2 2.1 0.5 3.9 1.5 4.2 2.3 0.3 0.8-0.5 2.9-1.7 4.6-2 2.7-2.3 4.5-2.5 14l-0.3 10.9c7 0 9-0.5 9-1 0-0.5-0.9-1.2-2-1.5-1.1-0.3-1.9-1.1-1.7-1.8 0.3-0.9 6.7-1.2 27.7-1.2 21 0 27.4 0.3 27.7 1.2 0.1 0.7-0.6 1.5-1.7 1.8-1.1 0.3-2 1-2 1.5 0 0.5 2 1 4.5 1h4.5c0.1-19.6-0.2-20.8-2.5-24.5-1.5-2.2-2.4-4.6-2.1-5.3 0.3-0.6 2.2-1.5 4.3-2 2-0.4 3.8-1.3 4-2q0.3-1.2-3.2-1.2c-2.8 0-3.7 0.5-4.5 2.5-0.5 1.4-1.5 2.5-2 2.5-0.5 0-2.7-3.5-4.9-7.8-2.1-4.2-4.5-8.2-5.2-8.9-0.8-0.6-4.3-1.6-7.9-2.2-3.6-0.6-8.1-1-10-1-1.9 0.1-5.7 0.5-8.5 1-2.7 0.5-5.6 1.1-6.2 1.4zm19.2-0.9c3.9 0.3 8.5 0.9 10.3 1.4 2.7 0.9 3.7 2.1 6.7 8.5 1.9 4.1 3.5 7.9 3.5 8.5 0 0.6-8.7 1-24 1-15.3 0-24-0.4-24-1 0-0.6 1.5-4 3.4-7.8 1.8-3.7 4-7.3 4.7-8 0.8-0.7 3.9-1.6 6.9-2.1 3-0.5 8.7-0.7 12.5-0.5zm-20.4 10.5l-3.1 5.9h40c-5.3-10.6-6.3-11.6-9.1-12.3-1.9-0.4-7.2-0.7-11.9-0.6-4.7 0.1-9.4 0.4-10.6 0.6-1.4 0.3-3.3 2.6-5.3 6.4zm-7.3 12.9c1.5-0.1 3.5 0.7 4.5 1.7 1.1 1.1 1.7 2.9 1.5 4.8-0.2 2-1.2 3.4-3 4.5-2.4 1.3-2.9 1.3-5.3 0-1.4-0.8-2.9-2.6-3.1-4-0.3-1.4 0.1-3.5 1-4.8 1-1.3 2.7-2.2 4.4-2.2zm-1 7.6c1.5 1.4 1.9 1.4 3.2 0 0.9-0.9 1.2-2.1 0.8-3.1-0.5-0.8-1.4-1.5-2.2-1.5-0.8 0-1.9 0.7-2.5 1.5-0.8 1.2-0.7 1.9 0.7 3.1zm49.1-7.6c1.4 0 3.4 0.8 4.4 1.8 1 0.9 1.8 2.7 1.7 3.9 0 1.3-0.9 3.2-2 4.3-1.1 1.1-2.9 2-4 2-1.1 0-2.9-0.9-4-2-1.1-1.1-2.1-3-2.2-4.2-0.1-1.2 0.7-3 1.7-4 1-1 3-1.8 4.4-1.8zm-1.4 7.6c1.7 1.2 2.2 1.2 3.5 0 1.3-1.3 1.3-1.7 0-3.1-0.8-0.9-1.8-1.6-2.1-1.5-0.4 0-1.3 0.7-2 1.6-1.2 1.4-1.1 1.8 0.6 3zm-22.5 4.4c6.3 0 12.2 0.4 13 0.9 0.8 0.5 1.2 1.4 0.7 2-0.4 0.7-5.3 1.1-13.7 1.1-8.4 0-13.3-0.4-13.8-1.1-0.4-0.6 0-1.5 0.8-2 0.8-0.5 6.7-0.9 13-0.9z"
     style="fill:#f6d72e;fill-opacity:1" />
</svg>
